<svg width="134" height="30" viewBox="0 0 134 30" fill="none" xmlns="http://www.w3.org/2000/svg">
<path d="M20.6924 15.2482C20.6924 13.0532 21.9831 11.1499 23.8499 10.253C22.4425 8.23303 20.1236 7.25586 17.4984 7.25586C16.1566 7.25586 14.895 7.42358 13.7939 8.05801C13.1667 8.42262 12.3865 8.42262 11.7593 8.05801C10.6582 7.42358 9.39662 7.25586 8.05484 7.25586C3.76698 7.25586 0.288574 9.87379 0.288574 15.343C0.288574 20.8122 3.76698 29.6505 8.05484 29.6505C9.02471 29.6505 9.95085 29.2348 10.804 28.8191C12.0437 28.2212 13.5022 28.2212 14.7492 28.8191C15.6024 29.2348 16.5285 29.6505 17.4984 29.6505C20.5757 29.6505 23.2301 25.1001 24.4844 20.5132C22.2748 19.7621 20.6924 17.6911 20.6924 15.2555V15.2482Z" fill="#2A0944"/>
<path d="M16.4483 4.30974C17.5932 3.01171 18.162 1.45116 18.162 0C16.7254 0.182307 15.2451 0.940705 14.1002 2.23873C12.9553 3.53676 12.3865 5.09731 12.3865 6.54847C13.8231 6.36616 15.3034 5.60777 16.4483 4.30974Z" fill="#2A0944"/>
<path d="M42.912 7.75149C43.4589 7.48168 43.8819 7.0806 44.1736 6.57014C44.4653 6.05239 44.6111 5.44713 44.6111 4.73978C44.6111 4.03243 44.4653 3.42717 44.1736 2.90212C43.8819 2.38437 43.4589 1.98329 42.912 1.70619C42.3651 1.42908 41.7161 1.29053 40.965 1.29053H38.821V8.16715H40.965C41.7161 8.16715 42.3651 8.0286 42.912 7.75878V7.75149ZM39.7253 2.01976H40.965C41.8473 2.01976 42.5182 2.2604 42.9922 2.74169C43.4589 3.22298 43.6996 3.88658 43.6996 4.74707C43.6996 5.60756 43.4662 6.25657 42.9995 6.72328C42.5328 7.18999 41.8546 7.43063 40.965 7.43063H39.7253V2.01976Z" fill="#2A0944"/>
<path d="M49.3147 3.01168C48.899 2.78562 48.4396 2.66895 47.9219 2.66895C47.4041 2.66895 46.9447 2.78562 46.529 3.01168C46.1134 3.23774 45.7852 3.5659 45.5446 3.98885C45.3039 4.4118 45.1873 4.90038 45.1873 5.4546C45.1873 6.00881 45.3039 6.50469 45.5373 6.92764C45.7706 7.35059 46.0915 7.67875 46.5072 7.9121C46.9155 8.14545 47.3749 8.25484 47.8854 8.25484C48.3959 8.25484 48.8626 8.13816 49.2855 7.9121C49.7085 7.67875 50.0366 7.35788 50.2846 6.92764C50.5325 6.50469 50.6565 6.00881 50.6565 5.4546C50.6565 4.90038 50.5398 4.40451 50.2992 3.98156C50.0585 3.5586 49.7304 3.23774 49.3147 3.01168ZM49.4751 6.55573C49.3001 6.85472 49.074 7.08807 48.7896 7.23392C48.5052 7.38705 48.2063 7.45998 47.8854 7.45998C47.5645 7.45998 47.2656 7.38705 46.9958 7.24121C46.7259 7.09536 46.5072 6.8693 46.3467 6.56303C46.1863 6.26404 46.1061 5.89213 46.1061 5.44731C46.1061 5.00248 46.1863 4.64515 46.354 4.34617C46.5217 4.04719 46.7405 3.82113 47.0103 3.66799C47.2801 3.52214 47.5864 3.44922 47.9146 3.44922C48.2427 3.44922 48.5344 3.52214 48.8115 3.66799C49.0886 3.81383 49.3074 4.03989 49.4824 4.34617C49.6501 4.64515 49.7376 5.01706 49.7376 5.44731C49.7376 5.87755 49.6501 6.24946 49.4751 6.55573Z" fill="#2A0944"/>
<path d="M54.9809 3.87207L56.2862 8.15993H57.2123L58.8968 2.75635H58.0145L56.7894 7.30673L55.4768 2.75635H54.5579L53.2161 7.29215L51.9765 2.75635H51.0576L52.7567 8.15993H53.6828L54.9809 3.87207Z" fill="#2A0944"/>
<path d="M62.2876 2.66162C61.9156 2.66162 61.5802 2.73454 61.2739 2.88768C60.9676 3.04082 60.727 3.2523 60.552 3.5294V2.76371H59.655V8.1673H60.552V5.17746C60.552 4.60866 60.6905 4.17842 60.9677 3.88672C61.2448 3.58774 61.624 3.4419 62.0979 3.4419C62.5719 3.4419 62.9293 3.58774 63.1991 3.87214C63.4689 4.15654 63.6002 4.5722 63.6002 5.11183V8.1673H64.4898V4.98057C64.4898 4.22946 64.2856 3.66066 63.8773 3.25959C63.4689 2.85851 62.9366 2.66162 62.2803 2.66162H62.2876Z" fill="#2A0944"/>
<path d="M66.1743 0.867676H65.2773V8.16725H66.1743V0.867676Z" fill="#2A0944"/>
<path d="M68.4132 7.90477C68.8215 8.13813 69.2809 8.24751 69.7914 8.24751C70.3019 8.24751 70.7686 8.13083 71.1915 7.90477C71.6145 7.67142 71.9426 7.35056 72.1906 6.92031C72.4385 6.49736 72.5625 6.00149 72.5625 5.44727C72.5625 4.89306 72.4458 4.39718 72.2051 3.97423C71.9645 3.55128 71.6364 3.23042 71.2207 3.00436C70.805 2.7783 70.3456 2.66162 69.8279 2.66162C69.3101 2.66162 68.8507 2.7783 68.435 3.00436C68.0194 3.23042 67.6912 3.55857 67.4506 3.98152C67.2099 4.40448 67.0933 4.89306 67.0933 5.44727C67.0933 6.00149 67.2099 6.49736 67.4433 6.92031C67.6766 7.34327 67.9975 7.67142 68.4132 7.90477ZM68.26 4.34614C68.4278 4.04716 68.6465 3.82109 68.9163 3.66796C69.1861 3.52211 69.4924 3.44919 69.8206 3.44919C70.1487 3.44919 70.4404 3.52211 70.7175 3.66796C70.9946 3.8138 71.2134 4.03986 71.3884 4.34614C71.5561 4.64512 71.6436 5.01703 71.6436 5.44727C71.6436 5.87752 71.5561 6.24942 71.3811 6.5557C71.2061 6.85468 70.9801 7.08804 70.6957 7.23388C70.4113 7.38702 70.1123 7.45994 69.7914 7.45994C69.4705 7.45994 69.1715 7.38702 68.9017 7.24118C68.6319 7.09533 68.4132 6.86927 68.2527 6.56299C68.0923 6.26401 68.0121 5.8921 68.0121 5.44727C68.0121 5.00244 68.0923 4.64512 68.26 4.34614Z" fill="#2A0944"/>
<path d="M77.7107 3.74091C77.5357 3.43464 77.2805 3.17211 76.9304 2.97522C76.5804 2.77104 76.172 2.66895 75.698 2.66895C75.224 2.66895 74.7792 2.78562 74.3927 3.01168C73.9989 3.24504 73.6927 3.5659 73.4739 3.98156C73.2478 4.39722 73.1384 4.8858 73.1384 5.44001C73.1384 5.99423 73.2478 6.47552 73.4739 6.89847C73.6999 7.32872 74.0062 7.65687 74.3927 7.89751C74.7792 8.13087 75.2167 8.25484 75.698 8.25484C76.1793 8.25484 76.5731 8.15274 76.9231 7.94127C77.2732 7.73708 77.543 7.47456 77.718 7.1537V8.16004H78.6222V2.75645H77.718V3.74091H77.7107ZM77.4628 6.51927C77.295 6.82555 77.0763 7.0589 76.7992 7.21933C76.5221 7.37976 76.2085 7.45998 75.8803 7.45998C75.5522 7.45998 75.2386 7.37976 74.9615 7.21933C74.6844 7.0589 74.4656 6.82555 74.2979 6.51927C74.1302 6.213 74.05 5.85567 74.05 5.44001C74.05 5.02435 74.1302 4.67432 74.2979 4.37534C74.4656 4.07636 74.6844 3.843 74.9615 3.68257C75.2386 3.52214 75.5449 3.44922 75.8803 3.44922C76.2158 3.44922 76.5221 3.52943 76.7992 3.68986C77.0763 3.8503 77.3023 4.08365 77.4628 4.38263C77.6305 4.68891 77.7107 5.03894 77.7107 5.44731C77.7107 5.85567 77.6305 6.213 77.4628 6.51927Z" fill="#2A0944"/>
<path d="M85.0104 8.15996V0.867676H84.1062V3.72625C83.9166 3.41268 83.6395 3.15745 83.2749 2.96056C82.9102 2.76367 82.5237 2.66887 82.1008 2.66887C81.6122 2.66887 81.1747 2.78555 80.7809 3.01161C80.3871 3.24496 80.0808 3.56582 79.8621 3.98148C79.636 4.39714 79.5266 4.88572 79.5266 5.43994C79.5266 5.99415 79.636 6.47544 79.8621 6.89839C80.0881 7.32864 80.3944 7.65679 80.7809 7.89744C81.1747 8.13079 81.6049 8.25476 82.0862 8.25476C82.5675 8.25476 82.9613 8.15267 83.3113 7.94119C83.6613 7.73701 83.9239 7.46719 84.0989 7.14633V8.15996H85.0031H85.0104ZM83.8582 6.5192C83.6905 6.82547 83.4717 7.05882 83.1946 7.21925C82.9175 7.37968 82.6113 7.4599 82.2758 7.4599C81.9404 7.4599 81.6341 7.37968 81.357 7.21925C81.0799 7.05882 80.8611 6.82547 80.6934 6.5192C80.5257 6.21292 80.4454 5.8556 80.4454 5.43994C80.4454 5.02428 80.5257 4.67425 80.6934 4.37526C80.8611 4.07628 81.0799 3.84293 81.357 3.6825C81.6341 3.52207 81.9404 3.44914 82.2758 3.44914C82.6113 3.44914 82.9175 3.52936 83.1946 3.68979C83.4717 3.85022 83.6978 4.08357 83.8582 4.38256C84.026 4.68883 84.1062 5.03886 84.1062 5.44723C84.1062 5.8556 84.026 6.21292 83.8582 6.5192Z" fill="#2A0944"/>
<path d="M89.4586 7.90477C89.8669 8.13813 90.3264 8.24751 90.8368 8.24751C91.3473 8.24751 91.814 8.13083 92.2369 7.90477C92.6599 7.67142 92.9953 7.35056 93.236 6.92031C93.4839 6.49736 93.6079 6.00149 93.6079 5.44727C93.6079 4.89306 93.4912 4.39718 93.2506 3.97423C93.0099 3.55128 92.6818 3.23042 92.2661 3.00436C91.8504 2.7783 91.391 2.66162 90.8733 2.66162C90.3555 2.66162 89.8961 2.7783 89.4804 3.00436C89.0648 3.23042 88.7367 3.55857 88.496 3.98152C88.2554 4.40448 88.1387 4.89306 88.1387 5.44727C88.1387 6.00149 88.2554 6.49736 88.4887 6.92031C88.7221 7.34327 89.0429 7.67142 89.4586 7.90477ZM89.3054 4.34614C89.4732 4.04716 89.6919 3.82109 89.9617 3.66796C90.2316 3.52211 90.5378 3.44919 90.866 3.44919C91.1942 3.44919 91.4858 3.52211 91.7629 3.66796C92.04 3.8138 92.2588 4.03986 92.4338 4.34614C92.6016 4.64512 92.6891 5.01703 92.6891 5.44727C92.6891 5.87752 92.6016 6.24942 92.4265 6.5557C92.2515 6.85468 92.0255 7.08804 91.7411 7.23388C91.4567 7.38702 91.1577 7.45994 90.8368 7.45994C90.516 7.45994 90.217 7.38702 89.9472 7.24118C89.6774 7.09533 89.4586 6.86927 89.2981 6.56299C89.1377 6.26401 89.0575 5.8921 89.0575 5.44727C89.0575 5.00244 89.1377 4.64512 89.3054 4.34614Z" fill="#2A0944"/>
<path d="M96.8311 3.4419C97.2978 3.4419 97.6624 3.58774 97.9322 3.87214C98.202 4.15654 98.3333 4.5722 98.3333 5.11183V8.1673H99.2229V4.98057C99.2229 4.22946 99.0188 3.66066 98.6104 3.25959C98.202 2.85851 97.6697 2.66162 97.0134 2.66162C96.6415 2.66162 96.306 2.73454 95.9997 2.88768C95.6935 3.04082 95.4528 3.2523 95.2778 3.5294V2.76371H94.3809V8.1673H95.2778V5.17746C95.2778 4.60866 95.4164 4.17842 95.7008 3.88672C95.9779 3.58774 96.3571 3.4419 96.8311 3.4419Z" fill="#2A0944"/>
<path d="M105.152 8.15985V7.40145H104.488C104.211 7.40145 104.021 7.35041 103.905 7.24102C103.795 7.13164 103.737 6.94933 103.737 6.68681V3.50008H105.144V2.76356H103.737V1.3999H102.84V2.76356H102.14V3.50008H102.84V6.68681C102.84 7.21185 102.964 7.59105 103.212 7.8244C103.46 8.05776 103.839 8.16714 104.335 8.16714H105.144L105.152 8.15985Z" fill="#2A0944"/>
<path d="M106.858 5.17742C106.858 4.60862 106.997 4.17837 107.274 3.88668C107.551 3.5877 107.93 3.44185 108.404 3.44185C108.878 3.44185 109.243 3.5877 109.505 3.8721C109.775 4.1565 109.906 4.57216 109.906 5.11178V8.16725H110.796V4.98052C110.796 4.48465 110.701 4.0544 110.512 3.71167C110.322 3.36164 110.067 3.09911 109.739 2.9241C109.41 2.74909 109.039 2.66158 108.637 2.66158C108.236 2.66158 107.901 2.7345 107.587 2.88764C107.274 3.04078 107.033 3.25225 106.851 3.52936V0.867676H105.954V8.16725H106.851V5.17742H106.858Z" fill="#2A0944"/>
<path d="M115.31 7.21933C115.047 7.40164 114.726 7.48915 114.34 7.48915C113.866 7.48915 113.465 7.33601 113.129 7.03702C112.794 6.73804 112.612 6.32238 112.582 5.79004H116.899C116.921 5.60044 116.929 5.41814 116.929 5.25041C116.929 4.75454 116.819 4.317 116.608 3.92322C116.396 3.52943 116.09 3.22316 115.696 3.00439C115.302 2.77833 114.85 2.66895 114.333 2.66895C113.815 2.66895 113.341 2.78562 112.94 3.01168C112.531 3.23774 112.218 3.5659 111.999 3.98156C111.773 4.40451 111.664 4.89309 111.664 5.4546C111.664 6.0161 111.78 6.50469 112.006 6.92764C112.24 7.35059 112.553 7.67875 112.962 7.9121C113.363 8.14545 113.822 8.25484 114.34 8.25484C114.982 8.25484 115.521 8.0944 115.959 7.76625C116.396 7.4381 116.681 7.01515 116.827 6.49739H115.857C115.755 6.80367 115.572 7.04432 115.31 7.21933ZM113.137 3.86488C113.457 3.57319 113.844 3.42734 114.296 3.42734C114.61 3.42734 114.901 3.49297 115.157 3.61694C115.419 3.7482 115.623 3.93051 115.776 4.17845C115.93 4.42639 116.002 4.71808 116.002 5.06081H112.59C112.633 4.55035 112.816 4.14928 113.137 3.85759V3.86488Z" fill="#2A0944"/>
<path d="M91.7994 16.9908C91.2598 16.7502 90.5452 16.5095 89.6555 16.2689C88.919 16.0647 88.3502 15.8824 87.9491 15.722C87.5407 15.5615 87.2053 15.3282 86.9282 15.0146C86.6511 14.7083 86.5125 14.3073 86.5125 13.8187C86.5125 13.1405 86.7459 12.6082 87.2053 12.229C87.6647 11.8498 88.2699 11.6602 88.9992 11.6602C89.7867 11.6602 90.4139 11.8571 90.8879 12.2508C91.3619 12.6446 91.6317 13.0967 91.6973 13.6145H93.6298C93.5277 12.5717 93.0756 11.7331 92.2661 11.106C91.464 10.4788 90.4285 10.158 89.1669 10.158C88.2918 10.158 87.5188 10.3111 86.8407 10.6247C86.1625 10.9309 85.6447 11.3685 85.2655 11.9373C84.8936 12.5061 84.704 13.1551 84.704 13.8843C84.704 14.7229 84.8936 15.3865 85.2728 15.8824C85.652 16.3783 86.1114 16.7429 86.6438 16.9762C87.1761 17.2096 87.8907 17.4429 88.7731 17.669C89.4951 17.8586 90.0639 18.0409 90.4941 18.2086C90.9171 18.3764 91.2744 18.6243 91.5588 18.9452C91.8432 19.266 91.9817 19.6817 91.9817 20.1994C91.9817 20.8557 91.7411 21.3954 91.2598 21.811C90.7785 22.2267 90.1149 22.4382 89.2836 22.4382C88.4523 22.4382 87.7449 22.2194 87.2855 21.7892C86.8261 21.3589 86.5709 20.8266 86.5052 20.1994H84.6311C84.6457 20.936 84.8499 21.5777 85.251 22.1392C85.652 22.7007 86.199 23.1382 86.899 23.4518C87.5991 23.7654 88.3939 23.9258 89.2836 23.9258C90.1732 23.9258 91.0119 23.7435 91.6973 23.3862C92.3755 23.0288 92.8933 22.5548 93.2433 21.9788C93.5933 21.4027 93.7611 20.7828 93.7611 20.1265C93.7611 19.2806 93.5715 18.6024 93.185 18.1065C92.7985 17.6107 92.3391 17.2461 91.7994 17.0054V16.9908Z" fill="#2A0944"/>
<path d="M43.685 10.3987L38.821 23.7727H40.6733L41.7526 20.7829H47.6155L48.6948 23.7727H50.547L45.705 10.3987H43.6777H43.685ZM42.2557 19.3536L44.684 12.5645L47.1124 19.3536H42.2484H42.2557Z" fill="#2A0944"/>
<path d="M61.2668 13.7021C60.5011 13.25 59.6479 13.0239 58.7072 13.0239C57.7665 13.0239 56.9935 13.2281 56.308 13.6292C55.6225 14.0376 55.1048 14.5407 54.7548 15.146V13.1989H52.9973V28.7898H54.7548V21.8257C55.1121 22.431 55.6371 22.9341 56.3299 23.3425C57.0154 23.7509 57.8102 23.9478 58.7145 23.9478C59.6187 23.9478 60.5084 23.7144 61.2741 23.255C62.0398 22.7883 62.6377 22.1393 63.0753 21.308C63.5128 20.4693 63.7316 19.5213 63.7316 18.4494C63.7316 17.3774 63.5128 16.4221 63.0753 15.6054C62.6377 14.7887 62.0398 14.1542 61.2741 13.7021H61.2668ZM61.4491 20.5569C61.1282 21.1548 60.6907 21.6142 60.1438 21.9278C59.5968 22.2414 58.9989 22.4018 58.3426 22.4018C57.6863 22.4018 57.1029 22.2414 56.556 21.9278C56.009 21.6142 55.5715 21.1548 55.2434 20.5569C54.9152 19.9589 54.7548 19.2588 54.7548 18.464C54.7548 17.6691 54.9152 16.9909 55.2434 16.393C55.5715 15.795 56.009 15.3356 56.556 15.022C57.1029 14.7084 57.7009 14.548 58.3426 14.548C58.9843 14.548 59.5968 14.7012 60.1438 15.0074C60.6907 15.3137 61.1282 15.7658 61.4491 16.3565C61.7699 16.9472 61.9304 17.6399 61.9304 18.4421C61.9304 19.2442 61.7699 19.9589 61.4491 20.5569Z" fill="#2A0944"/>
<path d="M74.6261 13.7021C73.8604 13.25 73.0073 13.0239 72.0666 13.0239C71.1259 13.0239 70.3529 13.2281 69.6674 13.6292C68.9819 14.0376 68.4642 14.5407 68.1141 15.146V13.1989H66.3567V28.7898H68.1141V21.8257C68.4715 22.431 68.9965 22.9341 69.6893 23.3425C70.3747 23.7509 71.1696 23.9478 72.0738 23.9478C72.9781 23.9478 73.8677 23.7144 74.6334 23.255C75.3991 22.7883 75.9971 22.1393 76.4346 21.308C76.8722 20.4693 77.0909 19.5213 77.0909 18.4494C77.0909 17.3774 76.8722 16.4221 76.4346 15.6054C75.9971 14.7887 75.3918 14.1542 74.6334 13.7021H74.6261ZM74.8084 20.5569C74.4876 21.1548 74.05 21.6142 73.5031 21.9278C72.9562 22.2414 72.3583 22.4018 71.7019 22.4018C71.0456 22.4018 70.4622 22.2414 69.9153 21.9278C69.3684 21.6142 68.9309 21.1548 68.6027 20.5569C68.2746 19.9589 68.1068 19.2588 68.1068 18.464C68.1068 17.6691 68.2673 16.9909 68.6027 16.393C68.9309 15.795 69.3684 15.3356 69.9153 15.022C70.4622 14.7084 71.0602 14.548 71.7019 14.548C72.3437 14.548 72.9562 14.7012 73.5031 15.0074C74.05 15.3137 74.4803 15.7658 74.8084 16.3565C75.1293 16.9472 75.2897 17.6399 75.2897 18.4421C75.2897 19.2442 75.1293 19.9589 74.8084 20.5569Z" fill="#2A0944"/>
<path d="M98.8147 10.5374H97.0572V13.199H95.6863V14.6429H97.0572V20.8778C97.0572 21.906 97.3052 22.6498 97.7938 23.0947C98.2823 23.5468 99.0189 23.7728 99.996 23.7728H101.578V22.2852H100.288C99.7481 22.2852 99.3689 22.1758 99.1501 21.9644C98.9313 21.7529 98.822 21.3883 98.822 20.8778V14.6429H101.578V13.199H98.822V10.5374H98.8147Z" fill="#2A0944"/>
<path d="M111.583 13.6875C110.774 13.2427 109.862 13.0239 108.863 13.0239C107.864 13.0239 106.953 13.2427 106.143 13.6875C105.334 14.1324 104.692 14.7668 104.225 15.5981C103.759 16.4294 103.518 17.3847 103.518 18.464C103.518 19.5432 103.744 20.5204 104.204 21.3517C104.663 22.183 105.29 22.8248 106.092 23.2696C106.894 23.7217 107.791 23.9478 108.783 23.9478C109.775 23.9478 110.701 23.7217 111.525 23.2696C112.349 22.8175 112.998 22.1757 113.487 21.3517C113.968 20.5204 114.209 19.5578 114.209 18.464C114.209 17.3701 113.975 16.4148 113.501 15.5908C113.034 14.7668 112.393 14.1324 111.583 13.6875ZM111.897 20.6298C111.554 21.2205 111.109 21.6653 110.555 21.9643C110.001 22.2632 109.41 22.4091 108.783 22.4091C108.156 22.4091 107.573 22.2632 107.048 21.9716C106.522 21.6799 106.1 21.2423 105.786 20.6517C105.472 20.061 105.312 19.3318 105.312 18.4713C105.312 17.6108 105.472 16.9034 105.793 16.3127C106.114 15.7221 106.544 15.2772 107.077 14.9928C107.609 14.7012 108.2 14.5553 108.841 14.5553C109.483 14.5553 110.059 14.7012 110.599 14.9928C111.139 15.2845 111.576 15.7221 111.911 16.3127C112.247 16.9034 112.415 17.6254 112.415 18.4713C112.415 19.3172 112.247 20.0391 111.904 20.6298H111.897Z" fill="#2A0944"/>
<path d="M118.591 14.9125V13.1915H116.834V23.7653H118.591V18.0117C118.591 15.8751 119.576 14.8104 121.545 14.8104H122.012V12.9946C121.187 12.9946 120.487 13.1624 119.919 13.4978C119.343 13.8332 118.905 14.2999 118.599 14.9052L118.591 14.9125Z" fill="#2A0944"/>
<path d="M134 18.0775C134 17.1149 133.789 16.2471 133.373 15.4814C132.957 14.7157 132.359 14.1178 131.586 13.6802C130.813 13.2427 129.924 13.0239 128.925 13.0239C127.926 13.0239 126.985 13.2427 126.197 13.6875C125.402 14.1324 124.79 14.7668 124.352 15.5908C123.915 16.4148 123.696 17.3701 123.696 18.464C123.696 19.5578 123.922 20.5204 124.374 21.3517C124.826 22.183 125.446 22.8248 126.234 23.2696C127.021 23.7217 127.926 23.9478 128.925 23.9478C130.186 23.9478 131.244 23.6269 132.089 22.9925C132.935 22.358 133.504 21.5267 133.789 20.5131H131.9C131.696 21.1038 131.338 21.5778 130.828 21.9351C130.317 22.2851 129.683 22.4674 128.925 22.4674C127.998 22.4674 127.211 22.1757 126.562 21.5924C125.913 21.009 125.556 20.1922 125.49 19.1494H133.942C133.978 18.7775 134 18.4202 134 18.0848V18.0775ZM125.505 17.7129C125.592 16.7065 125.949 15.9263 126.577 15.3575C127.204 14.7887 127.955 14.5116 128.844 14.5116C129.464 14.5116 130.026 14.6355 130.536 14.8908C131.047 15.1387 131.448 15.5106 131.739 15.9919C132.038 16.4732 132.184 17.0493 132.184 17.7202H125.505V17.7129Z" fill="#2A0944"/>
</svg>
