<svg width="69" height="21" viewBox="0 0 69 21" fill="none" xmlns="http://www.w3.org/2000/svg">
<path d="M2.96108 5.61997C3.3576 5.42436 3.66424 5.13358 3.87572 4.7635C4.0872 4.38813 4.19292 3.94931 4.19292 3.43648C4.19292 2.92365 4.0872 2.48484 3.87572 2.10418C3.66424 1.72881 3.3576 1.43803 2.96108 1.23713C2.56456 1.03623 2.09402 0.935776 1.54947 0.935776H-0.00488281V5.92133H1.54947C2.09402 5.92133 2.56456 5.82088 2.96108 5.62526V5.61997ZM0.650705 1.46447H1.54947C2.18918 1.46447 2.67558 1.63893 3.01923 1.98787C3.35759 2.33681 3.53206 2.81791 3.53206 3.44177C3.53206 4.06562 3.36288 4.53616 3.02452 4.87452C2.68616 5.21288 2.19447 5.38735 1.54947 5.38735H0.650705V1.46447Z" fill="#2A0944"/>
<path d="M7.60274 2.18348C7.30139 2.01959 6.96831 1.935 6.59294 1.935C6.21757 1.935 5.88449 2.01959 5.58314 2.18348C5.28179 2.34738 5.04387 2.58529 4.8694 2.89193C4.69494 3.19857 4.61035 3.55279 4.61035 3.9546C4.61035 4.3564 4.69495 4.71591 4.86413 5.02255C5.03331 5.32919 5.26593 5.5671 5.56728 5.73628C5.86335 5.90546 6.19643 5.98477 6.56651 5.98477C6.9366 5.98477 7.27495 5.90018 7.58159 5.73628C7.88823 5.5671 8.12614 5.33448 8.30589 5.02255C8.48565 4.71591 8.57553 4.3564 8.57553 3.9546C8.57553 3.55279 8.49095 3.19328 8.31648 2.88664C8.14201 2.58 7.9041 2.34738 7.60274 2.18348ZM7.71905 4.75292C7.59217 4.96968 7.42827 5.13886 7.22208 5.2446C7.01589 5.35563 6.79914 5.40849 6.56651 5.40849C6.33389 5.40849 6.11713 5.35563 5.92151 5.24989C5.72589 5.14415 5.56728 4.98026 5.45097 4.75821C5.33466 4.54144 5.27651 4.27181 5.27651 3.94931C5.27651 3.62681 5.33466 3.36775 5.45626 3.15099C5.57786 2.93422 5.73646 2.77033 5.93208 2.6593C6.12769 2.55357 6.34974 2.5007 6.58765 2.5007C6.82556 2.5007 7.03704 2.55357 7.23794 2.6593C7.43885 2.76504 7.59746 2.92894 7.72435 3.15099C7.84595 3.36775 7.90938 3.63738 7.90938 3.94931C7.90938 4.26124 7.84594 4.53087 7.71905 4.75292Z" fill="#2A0944"/>
<path d="M11.7111 2.80734L12.6574 5.91604H13.3288L14.5501 1.99844H13.9104L13.0222 5.29747L12.0706 1.99844H11.4044L10.4316 5.2869L9.53285 1.99844H8.8667L10.0986 5.91604H10.77L11.7111 2.80734Z" fill="#2A0944"/>
<path d="M17.0082 1.92972C16.7386 1.92972 16.4954 1.98259 16.2733 2.09361C16.0513 2.20464 15.8768 2.35796 15.7499 2.55886V2.00373H15.0996V5.92133H15.7499V3.7537C15.7499 3.34132 15.8504 3.02939 16.0513 2.81792C16.2522 2.60116 16.5271 2.49542 16.8707 2.49542C17.2144 2.49542 17.4734 2.60116 17.6691 2.80734C17.8647 3.01353 17.9598 3.31489 17.9598 3.70612V5.92133H18.6048V3.61095C18.6048 3.0664 18.4568 2.65402 18.1607 2.36324C17.8647 2.07246 17.4787 1.92972 17.0029 1.92972H17.0082Z" fill="#2A0944"/>
<path d="M19.8261 0.629135H19.1758V5.92133H19.8261V0.629135Z" fill="#2A0944"/>
<path d="M21.4496 5.731C21.7457 5.90018 22.0787 5.97949 22.4488 5.97949C22.8189 5.97949 23.1573 5.8949 23.4639 5.731C23.7706 5.56182 24.0085 5.3292 24.1882 5.01727C24.368 4.71063 24.4579 4.35112 24.4579 3.94932C24.4579 3.54751 24.3733 3.188 24.1988 2.88136C24.0243 2.57472 23.7864 2.3421 23.4851 2.1782C23.1837 2.01431 22.8506 1.92972 22.4753 1.92972C22.0999 1.92972 21.7668 2.01431 21.4655 2.1782C21.1641 2.3421 20.9262 2.58001 20.7517 2.88665C20.5773 3.19329 20.4927 3.54751 20.4927 3.94932C20.4927 4.35112 20.5773 4.71063 20.7464 5.01727C20.9156 5.32391 21.1483 5.56182 21.4496 5.731ZM21.3386 3.15099C21.4602 2.93423 21.6188 2.77034 21.8144 2.65931C22.01 2.55357 22.2321 2.5007 22.47 2.5007C22.7079 2.5007 22.9194 2.55357 23.1203 2.65931C23.3212 2.76505 23.4798 2.92894 23.6067 3.15099C23.7283 3.36776 23.7917 3.63739 23.7917 3.94932C23.7917 4.26124 23.7283 4.53088 23.6014 4.75293C23.4745 4.96969 23.3106 5.13887 23.1044 5.24461C22.8982 5.35563 22.6814 5.4085 22.4488 5.4085C22.2162 5.4085 21.9994 5.35563 21.8038 5.2499C21.6082 5.14416 21.4496 4.98026 21.3333 4.75821C21.217 4.54145 21.1588 4.27182 21.1588 3.94932C21.1588 3.62681 21.217 3.36776 21.3386 3.15099Z" fill="#2A0944"/>
<path d="M28.1904 2.71217C28.0635 2.49012 27.8785 2.29979 27.6247 2.15705C27.3709 2.00901 27.0748 1.935 26.7312 1.935C26.3875 1.935 26.065 2.01959 25.7848 2.18348C25.4993 2.35266 25.2773 2.58529 25.1187 2.88664C24.9548 3.18799 24.8755 3.54222 24.8755 3.94402C24.8755 4.34583 24.9548 4.69476 25.1187 5.0014C25.2826 5.31333 25.5046 5.55124 25.7848 5.72571C26.065 5.89489 26.3823 5.98477 26.7312 5.98477C27.0801 5.98477 27.3656 5.91075 27.6194 5.75743C27.8732 5.6094 28.0688 5.41907 28.1957 5.18645V5.91604H28.8513V1.99844H28.1957V2.71217H28.1904ZM28.0106 4.72648C27.889 4.94853 27.7304 5.11772 27.5295 5.23403C27.3286 5.35034 27.1013 5.40849 26.8634 5.40849C26.6255 5.40849 26.3981 5.35034 26.1972 5.23403C25.9963 5.11772 25.8377 4.94853 25.7161 4.72648C25.5945 4.50443 25.5364 4.24538 25.5364 3.94402C25.5364 3.64267 25.5945 3.3889 25.7161 3.17213C25.8377 2.95537 25.9963 2.78619 26.1972 2.66988C26.3981 2.55357 26.6202 2.5007 26.8634 2.5007C27.1066 2.5007 27.3286 2.55885 27.5295 2.67516C27.7304 2.79148 27.8943 2.96066 28.0106 3.17742C28.1322 3.39947 28.1904 3.65324 28.1904 3.94931C28.1904 4.24538 28.1322 4.50443 28.0106 4.72648Z" fill="#2A0944"/>
<path d="M33.4826 5.91604V0.629135H32.827V2.7016C32.6896 2.47427 32.4887 2.28922 32.2243 2.14648C31.96 2.00373 31.6798 1.935 31.3731 1.935C31.0189 1.935 30.7017 2.01959 30.4162 2.18349C30.1307 2.35267 29.9086 2.58529 29.75 2.88664C29.5861 3.188 29.5068 3.54222 29.5068 3.94403C29.5068 4.34583 29.5861 4.69477 29.75 5.00141C29.9139 5.31333 30.136 5.55124 30.4162 5.72571C30.7017 5.89489 31.0136 5.98477 31.3625 5.98477C31.7115 5.98477 31.997 5.91075 32.2507 5.75743C32.5045 5.6094 32.6949 5.41378 32.8217 5.18116V5.91604H33.4773H33.4826ZM32.6473 4.72649C32.5257 4.94854 32.3671 5.11772 32.1661 5.23403C31.9652 5.35034 31.7432 5.4085 31.5 5.4085C31.2568 5.4085 31.0348 5.35034 30.8339 5.23403C30.633 5.11772 30.4743 4.94854 30.3527 4.72649C30.2311 4.50444 30.173 4.24538 30.173 3.94403C30.173 3.64267 30.2311 3.3889 30.3527 3.17214C30.4743 2.95537 30.633 2.78619 30.8339 2.66988C31.0348 2.55357 31.2568 2.5007 31.5 2.5007C31.7432 2.5007 31.9652 2.55886 32.1661 2.67517C32.3671 2.79148 32.5309 2.96066 32.6473 3.17742C32.7689 3.39947 32.827 3.65324 32.827 3.94931C32.827 4.24538 32.7689 4.50444 32.6473 4.72649Z" fill="#2A0944"/>
<path d="M36.7074 5.731C37.0035 5.90018 37.3366 5.97949 37.7066 5.97949C38.0767 5.97949 38.4151 5.8949 38.7217 5.731C39.0284 5.56182 39.2716 5.3292 39.446 5.01727C39.6258 4.71063 39.7157 4.35112 39.7157 3.94932C39.7157 3.54751 39.6311 3.188 39.4566 2.88136C39.2821 2.57472 39.0442 2.3421 38.7429 2.1782C38.4415 2.01431 38.1084 1.92972 37.7331 1.92972C37.3577 1.92972 37.0246 2.01431 36.7233 2.1782C36.4219 2.3421 36.184 2.58001 36.0096 2.88665C35.8351 3.19329 35.7505 3.54751 35.7505 3.94932C35.7505 4.35112 35.8351 4.71063 36.0043 5.01727C36.1734 5.32391 36.4061 5.56182 36.7074 5.731ZM36.5964 3.15099C36.718 2.93423 36.8766 2.77034 37.0722 2.65931C37.2678 2.55357 37.4899 2.5007 37.7278 2.5007C37.9657 2.5007 38.1772 2.55357 38.3781 2.65931C38.579 2.76505 38.7376 2.92894 38.8645 3.15099C38.9861 3.36776 39.0495 3.63739 39.0495 3.94932C39.0495 4.26124 38.9861 4.53088 38.8592 4.75293C38.7323 4.96969 38.5684 5.13887 38.3622 5.24461C38.156 5.35563 37.9393 5.4085 37.7066 5.4085C37.474 5.4085 37.2573 5.35563 37.0616 5.2499C36.866 5.14416 36.7074 4.98026 36.5911 4.75821C36.4748 4.54145 36.4166 4.27182 36.4166 3.94932C36.4166 3.62681 36.4748 3.36776 36.5964 3.15099Z" fill="#2A0944"/>
<path d="M42.0523 2.49542C42.3906 2.49542 42.655 2.60116 42.8506 2.80734C43.0462 3.01353 43.1414 3.31489 43.1414 3.70612V5.92133H43.7864V3.61095C43.7864 3.0664 43.6384 2.65402 43.3423 2.36324C43.0462 2.07246 42.6603 1.92972 42.1845 1.92972C41.9148 1.92972 41.6716 1.98259 41.4496 2.09361C41.2275 2.20464 41.0531 2.35796 40.9262 2.55886V2.00373H40.2759V5.92133H40.9262V3.7537C40.9262 3.34132 41.0266 3.02939 41.2328 2.81792C41.4337 2.60116 41.7086 2.49542 42.0523 2.49542Z" fill="#2A0944"/>
<path d="M48.0849 5.91604V5.3662H47.6038C47.4028 5.3662 47.2654 5.32919 47.1808 5.24989C47.1015 5.17058 47.0592 5.03841 47.0592 4.84808V2.5377H48.0796V2.00373H47.0592V1.01508H46.4089V2.00373H45.9014V2.5377H46.4089V4.84808C46.4089 5.22874 46.4988 5.50366 46.6785 5.67284C46.8583 5.84202 47.1332 5.92132 47.4927 5.92132H48.0796L48.0849 5.91604Z" fill="#2A0944"/>
<path d="M49.3221 3.7537C49.3221 3.34132 49.4225 3.02939 49.6234 2.81791C49.8244 2.60115 50.0993 2.49541 50.4429 2.49541C50.7866 2.49541 51.0509 2.60115 51.2412 2.80734C51.4369 3.01353 51.532 3.31488 51.532 3.70611V5.92133H52.177V3.61095C52.177 3.25144 52.1083 2.93951 51.9708 2.69103C51.8334 2.43726 51.6483 2.24693 51.4104 2.12004C51.1725 1.99316 50.9029 1.92971 50.6121 1.92971C50.3213 1.92971 50.0781 1.98258 49.8508 2.09361C49.6234 2.20463 49.449 2.35795 49.3168 2.55886V0.629135H48.6665V5.92133H49.3168V3.7537H49.3221Z" fill="#2A0944"/>
<path d="M55.4496 5.23403C55.2593 5.3662 55.0266 5.42964 54.7464 5.42964C54.4028 5.42964 54.112 5.31862 53.8688 5.10185C53.6256 4.88509 53.4935 4.58374 53.4723 4.19779H56.6021C56.618 4.06033 56.6233 3.92816 56.6233 3.80656C56.6233 3.44705 56.544 3.12984 56.3907 2.84435C56.2374 2.55885 56.0153 2.3368 55.7298 2.1782C55.4443 2.0143 55.1165 1.935 54.7412 1.935C54.3658 1.935 54.0221 2.01959 53.7314 2.18348C53.4353 2.34738 53.208 2.58529 53.0493 2.88664C52.8855 3.19328 52.8062 3.5475 52.8062 3.9546C52.8062 4.36169 52.8907 4.71591 53.0546 5.02255C53.2238 5.32919 53.4512 5.5671 53.7472 5.73628C54.038 5.90546 54.3711 5.98477 54.7464 5.98477C55.2117 5.98477 55.6029 5.86846 55.9201 5.63054C56.2373 5.39263 56.4435 5.08599 56.5493 4.71062H55.8461C55.7721 4.93267 55.6399 5.10714 55.4496 5.23403ZM53.8741 2.80205C54.1067 2.59057 54.3869 2.48484 54.7147 2.48484C54.9421 2.48484 55.1535 2.53242 55.3386 2.6223C55.5289 2.71746 55.6769 2.84963 55.788 3.02939C55.899 3.20914 55.9519 3.42062 55.9519 3.6691H53.4776C53.5093 3.29902 53.6415 3.00824 53.8741 2.79676V2.80205Z" fill="#2A0944"/>
<path d="M38.4046 12.3185C38.0133 12.144 37.4952 11.9695 36.8502 11.7951C36.3162 11.647 35.9039 11.5149 35.6131 11.3986C35.317 11.2823 35.0738 11.1131 34.8729 10.8857C34.672 10.6637 34.5716 10.3729 34.5716 10.0187C34.5716 9.527 34.7407 9.14105 35.0738 8.86614C35.4069 8.59122 35.8457 8.45376 36.3744 8.45376C36.9454 8.45376 37.4 8.5965 37.7437 8.882C38.0873 9.16749 38.2829 9.49528 38.3305 9.87065H39.7316C39.6575 9.11462 39.3298 8.50663 38.7429 8.05195C38.1614 7.59728 37.4106 7.36465 36.496 7.36465C35.8615 7.36465 35.3011 7.47568 34.8095 7.70302C34.3178 7.92507 33.9424 8.24228 33.6675 8.65466C33.3978 9.06704 33.2604 9.53757 33.2604 10.0663C33.2604 10.6743 33.3979 11.1554 33.6728 11.5149C33.9477 11.8744 34.2808 12.1387 34.6667 12.3079C35.0527 12.4771 35.5708 12.6463 36.2105 12.8102C36.7339 12.9476 37.1463 13.0798 37.4582 13.2014C37.7648 13.323 38.0239 13.5028 38.2301 13.7354C38.4363 13.968 38.5367 14.2694 38.5367 14.6447C38.5367 15.1205 38.3623 15.5118 38.0133 15.8131C37.6644 16.1145 37.1833 16.2678 36.5806 16.2678C35.9779 16.2678 35.465 16.1092 35.132 15.7973C34.7989 15.4853 34.6138 15.0994 34.5663 14.6447H33.2075C33.2181 15.1787 33.3661 15.6439 33.6569 16.051C33.9477 16.4581 34.3442 16.7753 34.8518 17.0027C35.3593 17.23 35.9356 17.3463 36.5806 17.3463C37.2256 17.3463 37.8336 17.2142 38.3305 16.9551C38.8222 16.696 39.1976 16.3524 39.4514 15.9347C39.7051 15.5171 39.8267 15.0677 39.8267 14.5919C39.8267 13.9786 39.6893 13.4869 39.4091 13.1274C39.1289 12.7679 38.7958 12.5035 38.4046 12.3291V12.3185Z" fill="#2A0944"/>
<path d="M3.52149 7.53912L-0.00488281 17.2353H1.338L2.12046 15.0677H6.37112L7.15359 17.2353H8.49647L4.98596 7.53912H3.5162H3.52149ZM2.48526 14.0314L4.24579 9.10933L6.00634 14.0314H2.47997H2.48526Z" fill="#2A0944"/>
<path d="M16.2683 9.9341C15.7132 9.60631 15.0946 9.44241 14.4126 9.44241C13.7306 9.44241 13.1702 9.59045 12.6732 9.88123C12.1762 10.1773 11.8009 10.5421 11.5471 10.9809V9.5693H10.2729V20.8727H11.5471V15.8237C11.8062 16.2625 12.1868 16.6273 12.6891 16.9234C13.186 17.2195 13.7623 17.3622 14.4179 17.3622C15.0735 17.3622 15.7185 17.193 16.2736 16.8599C16.8287 16.5216 17.2622 16.051 17.5795 15.4483C17.8967 14.8403 18.0553 14.153 18.0553 13.3759C18.0553 12.5987 17.8967 11.9061 17.5795 11.314C17.2622 10.7218 16.8287 10.2619 16.2736 9.9341H16.2683ZM16.4005 14.9038C16.1678 15.3373 15.8506 15.6704 15.4541 15.8977C15.0576 16.1251 14.6241 16.2414 14.1483 16.2414C13.6724 16.2414 13.2495 16.1251 12.853 15.8977C12.4564 15.6704 12.1392 15.3373 11.9013 14.9038C11.6634 14.4703 11.5471 13.9627 11.5471 13.3864C11.5471 12.8102 11.6634 12.3185 11.9013 11.885C12.1392 11.4514 12.4564 11.1184 12.853 10.891C13.2495 10.6637 13.683 10.5474 14.1483 10.5474C14.6135 10.5474 15.0576 10.6584 15.4541 10.8805C15.8506 11.1025 16.1678 11.4303 16.4005 11.8585C16.6331 12.2868 16.7494 12.789 16.7494 13.3706C16.7494 13.9521 16.6331 14.4703 16.4005 14.9038Z" fill="#2A0944"/>
<path d="M25.9538 9.9341C25.3987 9.60631 24.7802 9.44241 24.0982 9.44241C23.4161 9.44241 22.8557 9.59045 22.3588 9.88123C21.8618 10.1773 21.4864 10.5421 21.2326 10.9809V9.5693H19.9585V20.8727H21.2326V15.8237C21.4917 16.2625 21.8724 16.6273 22.3746 16.9234C22.8716 17.2195 23.4479 17.3622 24.1034 17.3622C24.759 17.3622 25.404 17.193 25.9591 16.8599C26.5143 16.5216 26.9478 16.051 27.265 15.4483C27.5822 14.8403 27.7408 14.153 27.7408 13.3759C27.7408 12.5987 27.5822 11.9061 27.265 11.314C26.9478 10.7218 26.509 10.2619 25.9591 9.9341H25.9538ZM26.086 14.9038C25.8534 15.3373 25.5362 15.6704 25.1397 15.8977C24.7431 16.1251 24.3096 16.2414 23.8338 16.2414C23.358 16.2414 22.935 16.1251 22.5385 15.8977C22.142 15.6704 21.8248 15.3373 21.5869 14.9038C21.349 14.4703 21.2274 13.9627 21.2274 13.3864C21.2274 12.8102 21.3437 12.3185 21.5869 11.885C21.8248 11.4514 22.142 11.1184 22.5385 10.891C22.935 10.6637 23.3686 10.5474 23.8338 10.5474C24.2991 10.5474 24.7431 10.6584 25.1397 10.8805C25.5362 11.1025 25.8481 11.4303 26.086 11.8585C26.3186 12.2868 26.435 12.789 26.435 13.3706C26.435 13.9521 26.3186 14.4703 26.086 14.9038Z" fill="#2A0944"/>
<path d="M43.4907 7.63957H42.2166V9.56929H41.2227V10.6161H42.2166V15.1364C42.2166 15.8819 42.3964 16.4211 42.7506 16.7436C43.1048 17.0714 43.6388 17.2353 44.3472 17.2353H45.4945V16.1568H44.5587C44.1675 16.1568 43.8925 16.0775 43.7339 15.9242C43.5753 15.7708 43.496 15.5065 43.496 15.1364V10.6161H45.4945V9.56929H43.496V7.63957H43.4907Z" fill="#2A0944"/>
<path d="M52.7477 9.92352C52.1609 9.60102 51.5 9.44241 50.7757 9.44241C50.0514 9.44241 49.3905 9.60102 48.8037 9.92352C48.2168 10.246 47.7516 10.706 47.4132 11.3087C47.0749 11.9114 46.9004 12.604 46.9004 13.3864C46.9004 14.1689 47.0643 14.8774 47.3974 15.4801C47.7304 16.0828 48.1851 16.548 48.7667 16.8705C49.3482 17.1983 49.9985 17.3622 50.7175 17.3622C51.4366 17.3622 52.108 17.1983 52.7054 16.8705C53.3028 16.5427 53.7734 16.0775 54.1276 15.4801C54.4765 14.8774 54.651 14.1795 54.651 13.3864C54.651 12.5934 54.4818 11.9008 54.1382 11.3034C53.7998 10.706 53.3346 10.246 52.7477 9.92352ZM52.9751 14.9567C52.7266 15.3849 52.4041 15.7074 52.0023 15.9242C51.6005 16.1409 51.1722 16.2467 50.7175 16.2467C50.2629 16.2467 49.8399 16.1409 49.4593 15.9294C49.0786 15.718 48.772 15.4008 48.5446 14.9725C48.3173 14.5443 48.201 14.0156 48.201 13.3917C48.201 12.7679 48.3173 12.255 48.5499 11.8268C48.7825 11.3986 49.0945 11.0761 49.4804 10.8699C49.8663 10.6584 50.2946 10.5527 50.7598 10.5527C51.2251 10.5527 51.6428 10.6584 52.034 10.8699C52.4252 11.0814 52.7424 11.3986 52.9856 11.8268C53.2288 12.255 53.3504 12.7785 53.3504 13.3917C53.3504 14.005 53.2288 14.5284 52.9803 14.9567H52.9751Z" fill="#2A0944"/>
<path d="M57.8283 10.8117V9.56401H56.5542V17.23H57.8283V13.0587C57.8283 11.5096 58.5421 10.7377 59.9695 10.7377H60.3079V9.42126C59.7105 9.42126 59.2029 9.54286 58.7906 9.78606C58.3729 10.0293 58.0557 10.3676 57.8336 10.8064L57.8283 10.8117Z" fill="#2A0944"/>
<path d="M68.9997 13.1062C68.9997 12.4084 68.8464 11.7792 68.545 11.2241C68.2437 10.669 67.8101 10.2354 67.2497 9.91823C66.6893 9.60102 66.0443 9.44241 65.32 9.44241C64.5957 9.44241 63.9137 9.60102 63.3427 9.92352C62.7664 10.246 62.3223 10.706 62.0051 11.3034C61.6879 11.9008 61.5293 12.5934 61.5293 13.3864C61.5293 14.1795 61.6932 14.8774 62.021 15.4801C62.3488 16.0828 62.7982 16.548 63.3691 16.8705C63.9401 17.1983 64.5957 17.3622 65.32 17.3622C66.2346 17.3622 67.0012 17.1296 67.6145 16.6696C68.2278 16.2097 68.6402 15.6069 68.8464 14.8721H67.4771C67.329 15.3003 67.07 15.644 66.6999 15.903C66.3298 16.1568 65.8698 16.289 65.32 16.289C64.6486 16.289 64.0776 16.0775 63.607 15.6545C63.1365 15.2316 62.8775 14.6394 62.8299 13.8834H68.9574C68.9838 13.6138 68.9997 13.3547 68.9997 13.1115V13.1062ZM62.8405 12.8419C62.9039 12.1123 63.163 11.5466 63.6176 11.1342C64.0723 10.7218 64.6168 10.5209 65.2619 10.5209C65.7112 10.5209 66.1183 10.6108 66.4884 10.7959C66.8585 10.9756 67.1493 11.2452 67.3608 11.5942C67.5775 11.9431 67.6832 12.3608 67.6832 12.8472H62.8405V12.8419Z" fill="#2A0944"/>
</svg>
