<svg width="140" height="60" viewBox="0 0 140 60" fill="none" xmlns="http://www.w3.org/2000/svg">
<g clip-path="url(#clip0_179_1031)">
<path d="M60.0928 21.4202H0V31.0019H66.0483L60.0928 21.4202Z" fill="#2A0944"/>
<path d="M60.0928 2.25366H0V11.8384H66.0483L60.0928 2.25366Z" fill="#2A0944"/>
<path d="M60.0928 40.5867H0V50.1684H66.0483L60.0928 40.5867Z" fill="#2A0944"/>
<path d="M119.051 2.25366L98.7327 35.3915L78.4085 2.25366H67.092L98.7327 53.8339L130.367 2.25366H119.051Z" fill="#2A0944"/>
<path d="M134.047 0.624502H134.991V3.65952H135.643V0.624502H136.584V0H134.047V0.624502Z" fill="#2A0944"/>
<path d="M139.141 0L138.483 2.25665L137.825 0H136.966V3.65952H137.558V1.04385L138.195 3.05614H138.771L139.408 0.995583V3.65952H140V0H139.141Z" fill="#2A0944"/>
<path d="M2.08127 57.4783H3.26146V57.5597C3.26146 57.8373 3.21292 58.0756 3.11887 58.2748C3.02482 58.4709 2.88526 58.6247 2.71232 58.7303C2.53636 58.8329 2.32701 58.8872 2.09644 58.8872C1.86586 58.8872 1.64742 58.8359 1.46842 58.7363C1.28942 58.6368 1.14682 58.492 1.04974 58.314C0.952652 58.133 0.901075 57.9188 0.901075 57.6744V55.9909C0.901075 55.7224 0.949618 55.4871 1.04367 55.285C1.14075 55.0859 1.27728 54.929 1.45325 54.8174C1.62921 54.7057 1.83552 54.6514 2.06913 54.6514C2.22993 54.6514 2.38769 54.6876 2.53636 54.757C2.68502 54.8264 2.81851 54.932 2.93076 55.0678C3.04302 55.2035 3.1219 55.3664 3.16741 55.5535L3.19471 55.7315L4.12309 55.7194L4.11702 55.5263C4.05028 55.1794 3.91982 54.8717 3.72868 54.6092C3.53755 54.3467 3.29787 54.1416 3.00965 53.9968C2.72446 53.8519 2.40893 53.7795 2.07217 53.7795C1.66259 53.7795 1.29548 53.87 0.986025 54.0541C0.673532 54.2351 0.427785 54.4946 0.257885 54.8264C0.0879861 55.1553 0.0030365 55.5444 0.0030365 55.9759V57.6834C0.0030365 58.0937 0.09102 58.4588 0.263953 58.7695C0.436886 59.0803 0.685667 59.3246 1.00119 59.4966C1.31369 59.6686 1.68383 59.753 2.09947 59.753C2.51512 59.753 2.87312 59.6625 3.18561 59.4785C3.49811 59.2975 3.74385 59.038 3.91375 58.7062C4.08365 58.3743 4.1686 57.9881 4.1686 57.5537V56.6004H2.0843V57.4753L2.08127 57.4783Z" fill="#2A0944"/>
<path d="M14.5052 54.6333H16.1829V59.7561H17.084V54.6333H18.7617V53.7795H14.5052V54.6333Z" fill="#2A0944"/>
<path d="M25.23 54.6333V53.7795H21.3466V59.7561H25.23V58.9023H22.2447V57.2158H24.781V56.362H22.2447V54.6333H25.23Z" fill="#2A0944"/>
<path d="M9.72066 53.7795H8.95005L6.75046 59.7108L6.73529 59.753H7.70614L8.15516 58.4527H10.5125L10.9524 59.7319L10.9585 59.753H11.9294L9.7237 53.8007L9.71459 53.7795H9.72066ZM10.2182 57.599H8.44945L9.33232 55.0406L10.2152 57.599H10.2182Z" fill="#2A0944"/>
</g>
<defs>
<clipPath id="clip0_179_1031">
<rect width="140" height="59.7561" fill="white"/>
</clipPath>
</defs>
</svg>
