<svg width="98" height="22" viewBox="0 0 98 22" fill="none" xmlns="http://www.w3.org/2000/svg">
<path d="M0.528691 0.253769C0.200902 0.518114 0 0.983362 0 1.60722V19.8841C0 20.5079 0.200902 20.9732 0.528691 21.2375L10.9968 10.743L0.528691 0.253769Z" fill="url(#paint0_linear_75_4606)"/>
<path d="M14.5232 7.21662L2.32107 0.311923C1.60205 -0.100455 0.957048 -0.0898815 0.528809 0.253767L10.9969 10.7483L14.518 7.21662H14.5232Z" fill="url(#paint1_linear_75_4606)"/>
<path d="M0.528809 21.2375C0.957048 21.5811 1.60205 21.5864 2.32636 21.1793L14.5232 14.2746L11.0022 10.743L0.528809 21.2375Z" fill="url(#paint2_linear_75_4606)"/>
<path d="M19.3817 10.5685C19.3235 10.2143 19.0803 9.86537 18.6627 9.57459C18.5939 9.52701 18.5199 9.47942 18.4406 9.43184L14.523 7.21663L11.002 10.7483L14.523 14.2799L18.4406 12.0647C19.1596 11.6576 19.4716 11.1078 19.3817 10.5685Z" fill="url(#paint3_linear_75_4606)"/>
<path d="M26.9158 5.75743C27.3176 5.98477 27.7617 6.10108 28.2481 6.10108C28.7081 6.10108 29.1257 5.99534 29.5064 5.78915C29.8818 5.58296 30.1884 5.29747 30.4157 4.93796C30.6484 4.57845 30.7805 4.18722 30.8228 3.75369V3.225H27.9996V3.78013H30.0932C30.0404 4.30353 29.8448 4.71591 29.5117 5.02255C29.1786 5.32919 28.7609 5.48251 28.2481 5.48251C27.8833 5.48251 27.5502 5.39792 27.2595 5.22874C26.9634 5.05956 26.7361 4.82165 26.5669 4.50972C26.3977 4.19779 26.3131 3.83828 26.3131 3.42591C26.3131 3.01353 26.3977 2.65402 26.5669 2.3368C26.7361 2.02488 26.9634 1.78168 27.2595 1.6125C27.5555 1.44332 27.8833 1.35873 28.2481 1.35873C28.6129 1.35873 28.9354 1.44332 29.2103 1.6125C29.4852 1.78168 29.6967 2.01959 29.8448 2.32094H30.6642C30.4686 1.81869 30.1567 1.43274 29.7284 1.15254C29.3002 0.877618 28.8085 0.740158 28.2481 0.740158C27.7617 0.740158 27.3176 0.85647 26.9158 1.08381C26.514 1.31114 26.1968 1.62836 25.9642 2.04074C25.7315 2.44783 25.6152 2.90779 25.6152 3.42062C25.6152 3.93345 25.7315 4.39341 25.9642 4.79521C26.1968 5.20231 26.514 5.51952 26.9158 5.74686V5.75743Z" fill="#2A0944"/>
<path d="M31.7217 6.0535H34.5449V5.4878H32.409V3.68497H34.3176V3.11927H32.409V1.3693H34.5449V0.803604H31.7217V6.0535Z" fill="#2A0944"/>
<path d="M36.6963 6.05349H37.3783V1.3693H38.8058V0.808884H35.2583V1.3693H36.6963V6.05349Z" fill="#2A0944"/>
<path d="M42.3431 0.808884H41.6611V6.05349H42.3431V0.808884Z" fill="#2A0944"/>
<path d="M44.6216 6.05349H45.3089V1.3693H46.7364V0.808884H43.1836V1.3693H44.6216V6.05349Z" fill="#2A0944"/>
<path d="M53.3025 5.76271C53.7043 5.53537 54.0215 5.21816 54.2489 4.81107C54.4815 4.40398 54.5925 3.94402 54.5925 3.4259C54.5925 2.90778 54.4762 2.44782 54.2489 2.04073C54.0162 1.63364 53.7043 1.31642 53.3025 1.08909C52.9007 0.86175 52.4566 0.745438 51.9649 0.745438C51.4732 0.745438 51.0344 0.86175 50.6326 1.08909C50.2308 1.31642 49.9136 1.63364 49.681 2.04602C49.4483 2.45311 49.332 2.91307 49.332 3.4259C49.332 3.93873 49.4483 4.39869 49.681 4.80578C49.9136 5.21287 50.2308 5.53537 50.6326 5.76271C51.0344 5.99005 51.4785 6.10636 51.9649 6.10636C52.4513 6.10636 52.9007 5.99005 53.3025 5.76271ZM50.2837 4.52558C50.1145 4.20836 50.0299 3.84356 50.0299 3.4259C50.0299 3.00823 50.1145 2.63815 50.2837 2.32622C50.4529 2.0143 50.6802 1.7711 50.971 1.60192C51.2618 1.43274 51.5948 1.34814 51.9649 1.34814C52.335 1.34814 52.6681 1.43274 52.9588 1.60192C53.2496 1.7711 53.477 2.0143 53.6461 2.32622C53.8153 2.63815 53.8999 3.00823 53.8999 3.4259C53.8999 3.84356 53.8153 4.20836 53.6461 4.52558C53.477 4.84279 53.2496 5.08599 52.9536 5.25517C52.6628 5.42435 52.3297 5.50894 51.9649 5.50894C51.6001 5.50894 51.267 5.42435 50.9763 5.25517C50.6802 5.08599 50.4529 4.84279 50.2837 4.52558Z" fill="#2A0944"/>
<path d="M59.6204 0.803604H58.9384V4.96969L56.1839 0.803604H55.4966V6.0535H56.1839V1.87685L58.9384 6.0535H59.6204V0.803604Z" fill="#2A0944"/>
<path d="M29.4799 13.7671H32.8688C32.7789 14.613 32.467 15.2844 31.9277 15.7814C31.3885 16.2784 30.7064 16.5269 29.8764 16.5269C29.2843 16.5269 28.7503 16.3894 28.2745 16.1198C27.7986 15.8448 27.4233 15.4589 27.1536 14.9566C26.8787 14.4544 26.7465 13.8675 26.7465 13.2014C26.7465 12.5352 26.884 11.9484 27.1536 11.4408C27.4286 10.9333 27.7986 10.5421 28.2745 10.2724C28.7503 9.99752 29.2843 9.86535 29.8764 9.86535C30.4685 9.86535 30.9919 10.0028 31.436 10.2724C31.8854 10.5474 32.2238 10.928 32.4617 11.425H33.7887C33.4715 10.6108 32.964 9.98166 32.2714 9.53228C31.5788 9.08289 30.7752 8.86084 29.8764 8.86084C29.0886 8.86084 28.3696 9.04588 27.7193 9.41596C27.0691 9.78605 26.5562 10.3042 26.1756 10.965C25.7949 11.6259 25.6099 12.3713 25.6099 13.2014C25.6099 14.0314 25.8002 14.7769 26.1756 15.4325C26.5562 16.0933 27.0691 16.6062 27.7193 16.9762C28.3696 17.3463 29.0886 17.5314 29.8764 17.5314C30.6218 17.5314 31.3039 17.3622 31.9119 17.0238C32.5199 16.6855 33.0115 16.2255 33.3869 15.6439C33.7623 15.0624 33.979 14.4227 34.0478 13.7248V12.8736H29.4746V13.7777L29.4799 13.7671Z" fill="#2A0944"/>
<path d="M40.2016 11.0761C39.6887 10.7959 39.1177 10.6531 38.4833 10.6531C37.8489 10.6531 37.2779 10.7959 36.7651 11.0761C36.2522 11.3563 35.8504 11.7581 35.5491 12.2815C35.253 12.8049 35.105 13.4076 35.105 14.0949C35.105 14.7822 35.2477 15.3955 35.5385 15.9189C35.8293 16.4423 36.2258 16.8494 36.7333 17.1349C37.2409 17.4203 37.8066 17.5631 38.4357 17.5631C39.0649 17.5631 39.6464 17.4203 40.1698 17.1349C40.688 16.8494 41.1003 16.4476 41.407 15.9189C41.7136 15.3955 41.8669 14.7875 41.8669 14.0949C41.8669 13.4023 41.7189 12.7996 41.4228 12.2762C41.1268 11.7581 40.7197 11.3563 40.2068 11.0761H40.2016ZM40.4025 15.4589C40.1857 15.8343 39.9055 16.1145 39.5566 16.2995C39.2076 16.4846 38.8322 16.5797 38.4357 16.5797C38.0392 16.5797 37.6691 16.4899 37.3361 16.3048C37.003 16.1198 36.7386 15.8448 36.5377 15.4695C36.3368 15.0941 36.2364 14.6341 36.2364 14.0896C36.2364 13.545 36.3368 13.0957 36.543 12.7256C36.7439 12.3502 37.0188 12.0753 37.3519 11.8902C37.6903 11.7052 38.0604 11.6153 38.4675 11.6153C38.8745 11.6153 39.2341 11.7052 39.5777 11.8902C39.9214 12.0753 40.1963 12.3502 40.4077 12.7256C40.6192 13.1009 40.725 13.5556 40.725 14.0896C40.725 14.6236 40.6192 15.0835 40.4025 15.4536V15.4589Z" fill="#2A0944"/>
<path d="M48.0053 11.0761C47.4924 10.7959 46.9215 10.6531 46.287 10.6531C45.6526 10.6531 45.0816 10.7959 44.5688 11.0761C44.0559 11.3563 43.6541 11.7581 43.3528 12.2815C43.0567 12.8049 42.9087 13.4076 42.9087 14.0949C42.9087 14.7822 43.0514 15.3955 43.3422 15.9189C43.633 16.4423 44.0295 16.8494 44.5371 17.1349C45.0446 17.4203 45.6103 17.5631 46.2394 17.5631C46.8686 17.5631 47.4501 17.4203 47.9735 17.1349C48.4917 16.8494 48.904 16.4476 49.2107 15.9189C49.5173 15.3955 49.6706 14.7875 49.6706 14.0949C49.6706 13.4023 49.5226 12.7996 49.2265 12.2762C48.9305 11.7581 48.5234 11.3563 48.0106 11.0761H48.0053ZM48.2062 15.4589C47.9894 15.8343 47.7092 16.1145 47.3603 16.2995C47.0113 16.4846 46.636 16.5797 46.2394 16.5797C45.8429 16.5797 45.4728 16.4899 45.1398 16.3048C44.8067 16.1198 44.5423 15.8448 44.3414 15.4695C44.1405 15.0941 44.0454 14.6341 44.0454 14.0896C44.0454 13.545 44.1458 13.0957 44.352 12.7256C44.5529 12.3502 44.8278 12.0753 45.1609 11.8902C45.4993 11.7052 45.8694 11.6153 46.2764 11.6153C46.6835 11.6153 47.043 11.7052 47.3867 11.8902C47.7303 12.0753 48.0053 12.3502 48.2167 12.7256C48.4282 13.1009 48.534 13.5556 48.534 14.0896C48.534 14.6236 48.4282 15.0835 48.2115 15.4536L48.2062 15.4589Z" fill="#2A0944"/>
<path d="M56.3743 11.9854C56.1628 11.6047 55.8403 11.2875 55.4068 11.0338C54.9732 10.78 54.4657 10.6531 53.8894 10.6531C53.3132 10.6531 52.758 10.7959 52.2716 11.0813C51.7852 11.3668 51.4099 11.7686 51.1297 12.2815C50.8547 12.7996 50.7173 13.397 50.7173 14.079C50.7173 14.761 50.8547 15.3532 51.1297 15.8819C51.4046 16.4105 51.7852 16.8229 52.2716 17.1137C52.7527 17.4045 53.292 17.5525 53.8894 17.5525C54.4868 17.5525 54.9732 17.4203 55.4015 17.1613C55.835 16.9022 56.1575 16.5744 56.3796 16.1832V17.5842C56.3796 18.2768 56.1839 18.8108 55.798 19.1967C55.4121 19.5774 54.9151 19.7677 54.3018 19.7677C53.7625 19.7677 53.3079 19.6461 52.9219 19.3976C52.5413 19.1492 52.2875 18.8214 52.1659 18.4143H51.0662C51.172 19.128 51.5156 19.6937 52.1025 20.1114C52.6893 20.5238 53.4189 20.7352 54.2965 20.7352C54.9362 20.7352 55.5019 20.6031 55.983 20.3334C56.4642 20.0638 56.8395 19.6937 57.0986 19.2179C57.3576 18.7421 57.4898 18.1975 57.4898 17.5895V10.7588H56.369V11.9801L56.3743 11.9854ZM56.0676 15.4166C55.8667 15.7973 55.5918 16.0828 55.2429 16.2837C54.8992 16.4846 54.5186 16.585 54.1009 16.585C53.6832 16.585 53.3079 16.4846 52.9642 16.2837C52.6206 16.0828 52.3509 15.7973 52.1447 15.4166C51.9438 15.036 51.8381 14.5919 51.8381 14.079C51.8381 13.5662 51.9386 13.138 52.1447 12.7626C52.3457 12.3872 52.6206 12.1017 52.9642 11.9114C53.3079 11.7158 53.6832 11.6206 54.1009 11.6206C54.5186 11.6206 54.8939 11.7211 55.2429 11.922C55.5865 12.1229 55.8614 12.4084 56.0676 12.7837C56.2685 13.1591 56.3743 13.5979 56.3743 14.1002C56.3743 14.6024 56.2738 15.0465 56.0676 15.4219V15.4166Z" fill="#2A0944"/>
<path d="M60.4823 8.42203H59.3721V17.4468H60.4823V8.42203Z" fill="#2A0944"/>
<path d="M66.948 11.0708C66.4616 10.7958 65.9012 10.6584 65.2668 10.6584C64.6324 10.6584 64.0402 10.8011 63.5433 11.0813C63.041 11.3615 62.6551 11.7633 62.3802 12.2815C62.1052 12.7996 61.9678 13.4076 61.9678 14.1002C61.9678 14.7927 62.1105 15.4007 62.396 15.9241C62.6815 16.4475 63.0727 16.8546 63.575 17.1401C64.0772 17.4256 64.6429 17.5684 65.2774 17.5684C66.0757 17.5684 66.7418 17.3675 67.2758 16.9657C67.8151 16.5639 68.1693 16.0405 68.3491 15.4007H67.1542C67.0221 15.7761 66.8 16.0722 66.4775 16.2995C66.155 16.5216 65.7532 16.6326 65.2774 16.6326C64.6905 16.6326 64.1936 16.4475 63.7812 16.0775C63.3688 15.7074 63.1468 15.1946 63.1045 14.5337H68.4442C68.4707 14.2958 68.4812 14.0737 68.4812 13.8623C68.4812 13.2543 68.3491 12.7044 68.0847 12.2233C67.8204 11.7422 67.445 11.3615 66.9586 11.0813L66.948 11.0708ZM63.1045 13.6191C63.1626 12.9846 63.3847 12.4877 63.7812 12.1334C64.1777 11.7739 64.6535 11.5995 65.2139 11.5995C65.6052 11.5995 65.9594 11.6788 66.2819 11.8374C66.6044 11.996 66.8582 12.2286 67.0432 12.53C67.2282 12.8366 67.3234 13.2014 67.3234 13.6191H63.1045Z" fill="#2A0944"/>
<path d="M75.9358 8.95073H73.1919V17.4521H74.3021V13.9046H75.9358C76.9297 13.9046 77.6646 13.6719 78.151 13.2014C78.6321 12.7362 78.8753 12.144 78.8753 11.4409C78.8753 10.7377 78.6268 10.1138 78.1246 9.6486C77.6223 9.18335 76.8927 8.95602 75.9358 8.95602V8.95073ZM77.2998 12.5828C77.009 12.8525 76.5491 12.9846 75.9358 12.9846H74.3021V9.86008H75.9358C77.1412 9.86008 77.7386 10.3835 77.7386 11.4356C77.7386 11.9325 77.5906 12.3132 77.2998 12.5828Z" fill="#2A0944"/>
<path d="M81.3656 8.42203H80.2554V17.4468H81.3656V8.42203Z" fill="#2A0944"/>
<path d="M88.4978 11.9854C88.2863 11.6048 87.9638 11.2875 87.5356 11.0338C87.1021 10.78 86.5945 10.6531 86.013 10.6531C85.4314 10.6531 84.8816 10.7959 84.3952 11.0813C83.9088 11.3668 83.5334 11.7686 83.2532 12.2815C82.9783 12.7996 82.8408 13.397 82.8408 14.079C82.8408 14.761 82.9783 15.3532 83.2532 15.8819C83.5281 16.4105 83.9088 16.8229 84.3899 17.1137C84.871 17.4045 85.405 17.5525 86.0024 17.5525C86.5998 17.5525 87.0862 17.4256 87.5197 17.1666C87.9533 16.9128 88.281 16.585 88.5031 16.1991V17.4415H89.6239V10.7588H88.5031V11.9801L88.4978 11.9854ZM88.1912 15.4166C87.9903 15.7973 87.7153 16.0828 87.3664 16.2837C87.0228 16.4846 86.6421 16.585 86.2244 16.585C85.8068 16.585 85.4314 16.4846 85.0878 16.2837C84.7441 16.0828 84.4745 15.7973 84.2683 15.4166C84.0674 15.036 83.9616 14.5919 83.9616 14.079C83.9616 13.5662 84.0621 13.138 84.2683 12.7626C84.4692 12.3872 84.7441 12.1017 85.0878 11.9114C85.4314 11.7158 85.8068 11.6206 86.2244 11.6206C86.6421 11.6206 87.0175 11.7211 87.3664 11.922C87.7101 12.1229 87.985 12.4084 88.1912 12.7837C88.3921 13.1591 88.4978 13.5979 88.4978 14.1002C88.4978 14.6024 88.3974 15.0465 88.1912 15.4219V15.4166Z" fill="#2A0944"/>
<path d="M96.1107 10.7641L94.033 16.1832L91.9394 10.7641H90.7075L93.3986 17.378L92.0821 20.5978H93.2294L97.2527 10.7641H96.1107Z" fill="#2A0944"/>
<defs>
<linearGradient id="paint0_linear_75_4606" x1="5.45609" y1="17.801" x2="5.50896" y2="3.38362" gradientUnits="userSpaceOnUse">
<stop stop-color="#00E3FF"/>
<stop offset="1" stop-color="#00C2FF"/>
</linearGradient>
<linearGradient id="paint1_linear_75_4606" x1="0.528809" y1="5.37149" x2="14.5232" y2="5.37149" gradientUnits="userSpaceOnUse">
<stop stop-color="#00F076"/>
<stop offset="1" stop-color="#11D574"/>
</linearGradient>
<linearGradient id="paint2_linear_75_4606" x1="0.528809" y1="16.1198" x2="14.5232" y2="16.1198" gradientUnits="userSpaceOnUse">
<stop stop-color="#FF3A44"/>
<stop offset="1" stop-color="#E02453"/>
</linearGradient>
<linearGradient id="paint3_linear_75_4606" x1="10.9967" y1="10.7483" x2="19.3923" y2="10.7483" gradientUnits="userSpaceOnUse">
<stop stop-color="#FFBB00"/>
<stop offset="1" stop-color="#FFDD00"/>
</linearGradient>
</defs>
</svg>
