<svg width="97" height="22" viewBox="0 0 97 22" fill="none" xmlns="http://www.w3.org/2000/svg">
<path d="M14.8523 11.0549C14.8523 9.46359 15.7881 8.08371 17.1416 7.43342C16.1212 5.96894 14.4399 5.2605 12.5367 5.2605C11.5639 5.2605 10.6492 5.3821 9.85092 5.84206C9.39625 6.1064 8.83054 6.1064 8.37587 5.84206C7.57755 5.3821 6.6629 5.2605 5.69011 5.2605C2.58141 5.2605 0.0595703 7.1585 0.0595703 11.1237C0.0595703 15.0889 2.58141 21.4966 5.69011 21.4966C6.39327 21.4966 7.06472 21.1952 7.68329 20.8939C8.58206 20.4604 9.63944 20.4604 10.5435 20.8939C11.1621 21.1952 11.8335 21.4966 12.5367 21.4966C14.7677 21.4966 16.6922 18.1976 17.6015 14.8721C15.9996 14.3275 14.8523 12.8261 14.8523 11.0602V11.0549Z" fill="white"/>
<path d="M11.7749 3.12456C12.6049 2.18349 13.0173 1.05209 13.0173 0C11.9758 0.132173 10.9025 0.682011 10.0725 1.62308C9.24246 2.56415 8.83008 3.69555 8.83008 4.74764C9.8716 4.61547 10.9448 4.06563 11.7749 3.12456Z" fill="white"/>
<path d="M30.9611 5.61999C31.3576 5.42437 31.6642 5.13359 31.8757 4.76351C32.0872 4.38814 32.1929 3.94933 32.1929 3.4365C32.1929 2.92367 32.0872 2.48485 31.8757 2.1042C31.6642 1.72883 31.3576 1.43805 30.9611 1.23714C30.5646 1.03624 30.094 0.935791 29.5495 0.935791H27.9951V5.92134H29.5495C30.094 5.92134 30.5646 5.82089 30.9611 5.62528V5.61999ZM28.6507 1.46448H29.5495C30.1892 1.46448 30.6756 1.63895 31.0192 1.98789C31.3576 2.33682 31.5321 2.81793 31.5321 3.44178C31.5321 4.06564 31.3629 4.53617 31.0245 4.87454C30.6862 5.2129 30.1945 5.38737 29.5495 5.38737H28.6507V1.46448Z" fill="white"/>
<path d="M35.6027 2.18354C35.3014 2.01965 34.9683 1.93506 34.5929 1.93506C34.2176 1.93506 33.8845 2.01965 33.5831 2.18354C33.2818 2.34744 33.0439 2.58535 32.8694 2.89199C32.6949 3.19863 32.6104 3.55285 32.6104 3.95466C32.6104 4.35646 32.6949 4.71597 32.8641 5.02261C33.0333 5.32925 33.2659 5.56716 33.5673 5.73634C33.8633 5.90553 34.1964 5.98483 34.5665 5.98483C34.9366 5.98483 35.2749 5.90024 35.5816 5.73634C35.8882 5.56716 36.1261 5.33454 36.3059 5.02261C36.4856 4.71597 36.5755 4.35646 36.5755 3.95466C36.5755 3.55285 36.4909 3.19334 36.3165 2.8867C36.142 2.58006 35.9041 2.34744 35.6027 2.18354ZM35.7191 4.75298C35.5922 4.96974 35.4283 5.13892 35.2221 5.24466C35.0159 5.35569 34.7991 5.40856 34.5665 5.40856C34.3339 5.40856 34.1171 5.35569 33.9215 5.24995C33.7259 5.14421 33.5673 4.98032 33.451 4.75827C33.3347 4.5415 33.2765 4.27187 33.2765 3.94937C33.2765 3.62687 33.3347 3.36781 33.4563 3.15105C33.5779 2.93428 33.7365 2.77039 33.9321 2.65936C34.1277 2.55363 34.3497 2.50076 34.5876 2.50076C34.8256 2.50076 35.037 2.55363 35.2379 2.65936C35.4388 2.7651 35.5975 2.929 35.7243 3.15105C35.8459 3.36781 35.9094 3.63744 35.9094 3.94937C35.9094 4.2613 35.8459 4.53093 35.7191 4.75298Z" fill="white"/>
<path d="M39.7106 2.80743L40.6569 5.91613H41.3284L42.5496 1.99854H41.9099L41.0217 5.29756L40.0701 1.99854H39.4039L38.4311 5.28699L37.5324 1.99854H36.8662L38.0981 5.91613H38.7695L39.7106 2.80743Z" fill="white"/>
<path d="M45.0082 1.92969C44.7386 1.92969 44.4954 1.98256 44.2733 2.09358C44.0513 2.20461 43.8768 2.35793 43.7499 2.55883V2.0037H43.0996V5.9213H43.7499V3.75367C43.7499 3.34129 43.8504 3.02936 44.0513 2.81789C44.2522 2.60112 44.5271 2.49539 44.8707 2.49539C45.2144 2.49539 45.4734 2.60112 45.6691 2.80731C45.8647 3.0135 45.9598 3.31486 45.9598 3.70609V5.9213H46.6048V3.61092C46.6048 3.06637 46.4568 2.65399 46.1607 2.36321C45.8647 2.07243 45.4787 1.92969 45.0029 1.92969H45.0082Z" fill="white"/>
<path d="M47.8261 0.62915H47.1758V5.92134H47.8261V0.62915Z" fill="white"/>
<path d="M49.4491 5.73097C49.7452 5.90015 50.0782 5.97946 50.4483 5.97946C50.8184 5.97946 51.1568 5.89487 51.4634 5.73097C51.7701 5.56179 52.008 5.32917 52.1877 5.01724C52.3675 4.7106 52.4574 4.35109 52.4574 3.94929C52.4574 3.54748 52.3728 3.18797 52.1983 2.88133C52.0238 2.57469 51.7859 2.34207 51.4846 2.17817C51.1832 2.01428 50.8501 1.92969 50.4748 1.92969C50.0994 1.92969 49.7663 2.01428 49.465 2.17817C49.1636 2.34207 48.9257 2.57998 48.7512 2.88662C48.5768 3.19326 48.4922 3.54748 48.4922 3.94929C48.4922 4.35109 48.5768 4.7106 48.7459 5.01724C48.9151 5.32388 49.1478 5.56179 49.4491 5.73097ZM49.3381 3.15096C49.4597 2.9342 49.6183 2.77031 49.8139 2.65928C50.0095 2.55354 50.2316 2.50067 50.4695 2.50067C50.7074 2.50067 50.9189 2.55354 51.1198 2.65928C51.3207 2.76502 51.4793 2.92891 51.6062 3.15096C51.7278 3.36773 51.7912 3.63736 51.7912 3.94929C51.7912 4.26121 51.7278 4.53085 51.6009 4.7529C51.474 4.96966 51.3101 5.13884 51.1039 5.24458C50.8977 5.3556 50.681 5.40847 50.4483 5.40847C50.2157 5.40847 49.9989 5.3556 49.8033 5.24986C49.6077 5.14413 49.4491 4.98023 49.3328 4.75818C49.2165 4.54142 49.1583 4.27179 49.1583 3.94929C49.1583 3.62678 49.2165 3.36773 49.3381 3.15096Z" fill="white"/>
<path d="M56.1899 2.71223C56.063 2.49018 55.878 2.29986 55.6242 2.15711C55.3704 2.00908 55.0744 1.93506 54.7307 1.93506C54.3871 1.93506 54.0646 2.01965 53.7843 2.18354C53.4989 2.35272 53.2768 2.58535 53.1182 2.8867C52.9543 3.18806 52.875 3.54228 52.875 3.94408C52.875 4.34589 52.9543 4.69482 53.1182 5.00146C53.2821 5.31339 53.5041 5.5513 53.7843 5.72577C54.0646 5.89495 54.3818 5.98483 54.7307 5.98483C55.0796 5.98483 55.3651 5.91081 55.6189 5.75749C55.8727 5.60946 56.0683 5.41913 56.1952 5.18651V5.9161H56.8508V1.9985H56.1952V2.71223H56.1899ZM56.0101 4.72655C55.8885 4.9486 55.7299 5.11778 55.529 5.23409C55.3281 5.3504 55.1008 5.40856 54.8629 5.40856C54.625 5.40856 54.3976 5.3504 54.1967 5.23409C53.9958 5.11778 53.8372 4.9486 53.7156 4.72655C53.594 4.50449 53.5359 4.24544 53.5359 3.94408C53.5359 3.64273 53.594 3.38896 53.7156 3.17219C53.8372 2.95543 53.9958 2.78625 54.1967 2.66994C54.3976 2.55363 54.6197 2.50076 54.8629 2.50076C55.1061 2.50076 55.3281 2.55891 55.529 2.67523C55.7299 2.79154 55.8938 2.96072 56.0101 3.17748C56.1317 3.39953 56.1899 3.6533 56.1899 3.94937C56.1899 4.24544 56.1317 4.50449 56.0101 4.72655Z" fill="white"/>
<path d="M61.4826 5.91606V0.62915H60.827V2.70162C60.6896 2.47428 60.4887 2.28924 60.2243 2.14649C59.96 2.00375 59.6798 1.93502 59.3731 1.93502C59.0189 1.93502 58.7017 2.01961 58.4162 2.1835C58.1307 2.35268 57.9086 2.58531 57.75 2.88666C57.5861 3.18801 57.5068 3.54224 57.5068 3.94404C57.5068 4.34585 57.5861 4.69478 57.75 5.00142C57.9139 5.31335 58.136 5.55126 58.4162 5.72573C58.7017 5.89491 59.0136 5.98479 59.3625 5.98479C59.7115 5.98479 59.997 5.91077 60.2507 5.75745C60.5045 5.60942 60.6949 5.4138 60.8217 5.18118V5.91606H61.4773H61.4826ZM60.6473 4.7265C60.5257 4.94855 60.3671 5.11773 60.1661 5.23405C59.9652 5.35036 59.7432 5.40851 59.5 5.40851C59.2568 5.40851 59.0348 5.35036 58.8339 5.23405C58.633 5.11773 58.4743 4.94855 58.3527 4.7265C58.2311 4.50445 58.173 4.24539 58.173 3.94404C58.173 3.64269 58.2311 3.38892 58.3527 3.17215C58.4743 2.95539 58.633 2.78621 58.8339 2.6699C59.0348 2.55358 59.2568 2.50072 59.5 2.50072C59.7432 2.50072 59.9652 2.55887 60.1661 2.67518C60.3671 2.79149 60.5309 2.96068 60.6473 3.17744C60.7689 3.39949 60.827 3.65326 60.827 3.94933C60.827 4.24539 60.7689 4.50445 60.6473 4.7265Z" fill="white"/>
<path d="M64.7069 5.73097C65.003 5.90015 65.3361 5.97946 65.7062 5.97946C66.0762 5.97946 66.4146 5.89487 66.7212 5.73097C67.0279 5.56179 67.2711 5.32917 67.4456 5.01724C67.6253 4.7106 67.7152 4.35109 67.7152 3.94929C67.7152 3.54748 67.6306 3.18797 67.4561 2.88133C67.2817 2.57469 67.0437 2.34207 66.7424 2.17817C66.441 2.01428 66.108 1.92969 65.7326 1.92969C65.3572 1.92969 65.0241 2.01428 64.7228 2.17817C64.4214 2.34207 64.1835 2.57998 64.0091 2.88662C63.8346 3.19326 63.75 3.54748 63.75 3.94929C63.75 4.35109 63.8346 4.7106 64.0038 5.01724C64.173 5.32388 64.4056 5.56179 64.7069 5.73097ZM64.5959 3.15096C64.7175 2.9342 64.8761 2.77031 65.0717 2.65928C65.2673 2.55354 65.4894 2.50067 65.7273 2.50067C65.9652 2.50067 66.1767 2.55354 66.3776 2.65928C66.5785 2.76502 66.7371 2.92891 66.864 3.15096C66.9856 3.36773 67.049 3.63736 67.049 3.94929C67.049 4.26121 66.9856 4.53085 66.8587 4.7529C66.7318 4.96966 66.5679 5.13884 66.3617 5.24458C66.1555 5.3556 65.9388 5.40847 65.7062 5.40847C65.4735 5.40847 65.2568 5.3556 65.0612 5.24986C64.8655 5.14413 64.7069 4.98023 64.5906 4.75818C64.4743 4.54142 64.4162 4.27179 64.4162 3.94929C64.4162 3.62678 64.4743 3.36773 64.5959 3.15096Z" fill="white"/>
<path d="M70.0528 2.49539C70.3911 2.49539 70.6555 2.60112 70.8511 2.80731C71.0467 3.0135 71.1419 3.31486 71.1419 3.70609V5.9213H71.7869V3.61092C71.7869 3.06637 71.6388 2.65399 71.3428 2.36321C71.0467 2.07243 70.6608 1.92969 70.1849 1.92969C69.9153 1.92969 69.6721 1.98256 69.4501 2.09358C69.228 2.20461 69.0535 2.35793 68.9267 2.55883V2.0037H68.2764V5.9213H68.9267V3.75367C68.9267 3.34129 69.0271 3.02936 69.2333 2.81789C69.4342 2.60112 69.7091 2.49539 70.0528 2.49539Z" fill="white"/>
<path d="M76.0849 5.9161V5.36626H75.6038C75.4028 5.36626 75.2654 5.32925 75.1808 5.24995C75.1015 5.17065 75.0592 5.03847 75.0592 4.84814V2.53777H76.0796V2.00379H75.0592V1.01514H74.4089V2.00379H73.9014V2.53777H74.4089V4.84814C74.4089 5.2288 74.4988 5.50372 74.6785 5.6729C74.8583 5.84208 75.1332 5.92139 75.4927 5.92139H76.0796L76.0849 5.9161Z" fill="white"/>
<path d="M77.3216 3.75371C77.3216 3.34133 77.4221 3.02941 77.623 2.81793C77.8239 2.60117 78.0988 2.49543 78.4424 2.49543C78.7861 2.49543 79.0504 2.60117 79.2408 2.80736C79.4364 3.01354 79.5315 3.3149 79.5315 3.70613V5.92134H80.1765V3.61097C80.1765 3.25146 80.1078 2.93953 79.9703 2.69104C79.8329 2.43727 79.6478 2.24694 79.4099 2.12006C79.172 1.99317 78.9024 1.92973 78.6116 1.92973C78.3208 1.92973 78.0776 1.9826 77.8503 2.09362C77.623 2.20465 77.4485 2.35797 77.3163 2.55887V0.62915H76.666V5.92134H77.3163V3.75371H77.3216Z" fill="white"/>
<path d="M83.4491 5.23409C83.2588 5.36626 83.0262 5.4297 82.7459 5.4297C82.4023 5.4297 82.1115 5.31868 81.8683 5.10192C81.6251 4.88515 81.493 4.5838 81.4718 4.19785H84.6017C84.6175 4.06039 84.6228 3.92822 84.6228 3.80662C84.6228 3.44711 84.5435 3.1299 84.3902 2.84441C84.2369 2.55891 84.0148 2.33686 83.7293 2.17826C83.4438 2.01436 83.116 1.93506 82.7407 1.93506C82.3653 1.93506 82.0217 2.01965 81.7309 2.18354C81.4348 2.34744 81.2075 2.58535 81.0489 2.8867C80.885 3.19334 80.8057 3.54756 80.8057 3.95466C80.8057 4.36175 80.8903 4.71597 81.0541 5.02261C81.2233 5.32925 81.4507 5.56716 81.7467 5.73634C82.0375 5.90553 82.3706 5.98483 82.7459 5.98483C83.2112 5.98483 83.6024 5.86852 83.9196 5.63061C84.2369 5.3927 84.443 5.08605 84.5488 4.71068H83.8456C83.7716 4.93273 83.6394 5.1072 83.4491 5.23409ZM81.8736 2.80211C82.1062 2.59064 82.3864 2.4849 82.7142 2.4849C82.9416 2.4849 83.1531 2.53248 83.3381 2.62236C83.5284 2.71752 83.6764 2.84969 83.7875 3.02945C83.8985 3.2092 83.9514 3.42068 83.9514 3.66916H81.4771C81.5088 3.29908 81.641 3.0083 81.8736 2.79682V2.80211Z" fill="white"/>
<path d="M66.4041 12.3186C66.0128 12.1441 65.4947 11.9696 64.8497 11.7952C64.3157 11.6471 63.9034 11.515 63.6126 11.3987C63.3165 11.2823 63.0733 11.1132 62.8724 10.8858C62.6715 10.6638 62.5711 10.373 62.5711 10.0188C62.5711 9.52709 62.7402 9.14115 63.0733 8.86623C63.4064 8.59131 63.8452 8.45385 64.3739 8.45385C64.9449 8.45385 65.3996 8.59659 65.7432 8.88209C66.0869 9.16758 66.2825 9.49537 66.33 9.87074H67.7311C67.6571 9.11471 67.3293 8.50672 66.7424 8.05204C66.1609 7.59737 65.4101 7.36475 64.4955 7.36475C63.8611 7.36475 63.3006 7.47577 62.809 7.70311C62.3173 7.92516 61.9419 8.24237 61.667 8.65475C61.3974 9.06713 61.2599 9.53766 61.2599 10.0664C61.2599 10.6743 61.3974 11.1555 61.6723 11.515C61.9472 11.8745 62.2803 12.1388 62.6662 12.308C63.0522 12.4772 63.5703 12.6464 64.21 12.8103C64.7334 12.9477 65.1458 13.0799 65.4577 13.2015C65.7643 13.3231 66.0234 13.5028 66.2296 13.7355C66.4358 13.9681 66.5362 14.2694 66.5362 14.6448C66.5362 15.1206 66.3618 15.5119 66.0128 15.8132C65.6639 16.1146 65.1828 16.2679 64.5801 16.2679C63.9774 16.2679 63.4645 16.1093 63.1315 15.7974C62.7984 15.4854 62.6134 15.0995 62.5658 14.6448H61.207C61.2176 15.1788 61.3656 15.644 61.6564 16.0511C61.9472 16.4582 62.3437 16.7754 62.8513 17.0028C63.3588 17.2301 63.9351 17.3464 64.5801 17.3464C65.2251 17.3464 65.8331 17.2143 66.33 16.9552C66.8217 16.6961 67.1971 16.3525 67.4509 15.9348C67.7046 15.5172 67.8262 15.0678 67.8262 14.5919C67.8262 13.9787 67.6888 13.487 67.4086 13.1275C67.1284 12.768 66.7953 12.5036 66.4041 12.3292V12.3186Z" fill="white"/>
<path d="M31.5215 7.53906L27.9951 17.2352H29.338L30.1205 15.0676H34.3711L35.1536 17.2352H36.4965L32.986 7.53906H31.5162H31.5215ZM30.4853 14.0314L32.2458 9.10927L34.0063 14.0314H30.48H30.4853Z" fill="white"/>
<path d="M44.2678 9.93407C43.7127 9.60628 43.0941 9.44238 42.4121 9.44238C41.7301 9.44238 41.1697 9.59042 40.6727 9.8812C40.1758 10.1773 39.8004 10.5421 39.5466 10.9809V9.56927H38.2725V20.8727H39.5466V15.8237C39.8057 16.2625 40.1863 16.6273 40.6886 16.9234C41.1855 17.2194 41.7618 17.3622 42.4174 17.3622C43.073 17.3622 43.718 17.193 44.2731 16.8599C44.8282 16.5215 45.2618 16.051 45.579 15.4483C45.8962 14.8403 46.0548 14.153 46.0548 13.3758C46.0548 12.5987 45.8962 11.9061 45.579 11.3139C45.2618 10.7218 44.8282 10.2619 44.2731 9.93407H44.2678ZM44.4 14.9038C44.1674 15.3373 43.8502 15.6704 43.4536 15.8977C43.0571 16.125 42.6236 16.2413 42.1478 16.2413C41.672 16.2413 41.249 16.125 40.8525 15.8977C40.456 15.6704 40.1387 15.3373 39.9008 14.9038C39.6629 14.4702 39.5466 13.9627 39.5466 13.3864C39.5466 12.8101 39.6629 12.3185 39.9008 11.8849C40.1387 11.4514 40.456 11.1183 40.8525 10.891C41.249 10.6637 41.6825 10.5473 42.1478 10.5473C42.613 10.5473 43.0571 10.6584 43.4536 10.8804C43.8502 11.1025 44.1674 11.4303 44.4 11.8585C44.6326 12.2867 44.7489 12.789 44.7489 13.3706C44.7489 13.9521 44.6326 14.4702 44.4 14.9038Z" fill="white"/>
<path d="M53.9534 9.93407C53.3982 9.60628 52.7797 9.44238 52.0977 9.44238C51.4157 9.44238 50.8552 9.59042 50.3583 9.8812C49.8613 10.1773 49.4859 10.5421 49.2322 10.9809V9.56927H47.958V20.8727H49.2322V15.8237C49.4912 16.2625 49.8719 16.6273 50.3741 16.9234C50.8711 17.2194 51.4474 17.3622 52.1029 17.3622C52.7585 17.3622 53.4035 17.193 53.9586 16.8599C54.5138 16.5215 54.9473 16.051 55.2645 15.4483C55.5817 14.8403 55.7403 14.153 55.7403 13.3758C55.7403 12.5987 55.5817 11.9061 55.2645 11.3139C54.9473 10.7218 54.5085 10.2619 53.9586 9.93407H53.9534ZM54.0855 14.9038C53.8529 15.3373 53.5357 15.6704 53.1392 15.8977C52.7427 16.125 52.3091 16.2413 51.8333 16.2413C51.3575 16.2413 50.9345 16.125 50.538 15.8977C50.1415 15.6704 49.8243 15.3373 49.5864 14.9038C49.3485 14.4702 49.2269 13.9627 49.2269 13.3864C49.2269 12.8101 49.3432 12.3185 49.5864 11.8849C49.8243 11.4514 50.1415 11.1183 50.538 10.891C50.9345 10.6637 51.3681 10.5473 51.8333 10.5473C52.2986 10.5473 52.7427 10.6584 53.1392 10.8804C53.5357 11.1025 53.8476 11.4303 54.0855 11.8585C54.3182 12.2867 54.4345 12.789 54.4345 13.3706C54.4345 13.9521 54.3182 14.4702 54.0855 14.9038Z" fill="white"/>
<path d="M71.4907 7.63965H70.2166V9.56937H69.2227V10.6162H70.2166V15.1365C70.2166 15.8819 70.3964 16.4212 70.7506 16.7437C71.1048 17.0715 71.6388 17.2354 72.3472 17.2354H73.4945V16.1569H72.5587C72.1675 16.1569 71.8925 16.0776 71.7339 15.9242C71.5753 15.7709 71.496 15.5066 71.496 15.1365V10.6162H73.4945V9.56937H71.496V7.63965H71.4907Z" fill="white"/>
<path d="M80.7477 9.92349C80.1609 9.60099 79.5 9.44238 78.7757 9.44238C78.0514 9.44238 77.3905 9.60099 76.8037 9.92349C76.2168 10.246 75.7516 10.706 75.4132 11.3087C75.0749 11.9114 74.9004 12.604 74.9004 13.3864C74.9004 14.1689 75.0643 14.8773 75.3974 15.48C75.7304 16.0827 76.1851 16.548 76.7667 16.8705C77.3482 17.1983 77.9985 17.3622 78.7175 17.3622C79.4366 17.3622 80.108 17.1983 80.7054 16.8705C81.3028 16.5427 81.7734 16.0774 82.1276 15.48C82.4765 14.8773 82.651 14.1795 82.651 13.3864C82.651 12.5934 82.4818 11.9008 82.1382 11.3034C81.7998 10.706 81.3346 10.246 80.7477 9.92349ZM80.9751 14.9566C80.7266 15.3849 80.4041 15.7074 80.0023 15.9241C79.6005 16.1409 79.1722 16.2466 78.7175 16.2466C78.2629 16.2466 77.8399 16.1409 77.4593 15.9294C77.0786 15.7179 76.772 15.4007 76.5446 14.9725C76.3173 14.5442 76.201 14.0156 76.201 13.3917C76.201 12.7678 76.3173 12.255 76.5499 11.8268C76.7825 11.3985 77.0945 11.076 77.4804 10.8698C77.8663 10.6584 78.2946 10.5526 78.7598 10.5526C79.2251 10.5526 79.6428 10.6584 80.034 10.8698C80.4252 11.0813 80.7424 11.3985 80.9856 11.8268C81.2288 12.255 81.3504 12.7784 81.3504 13.3917C81.3504 14.005 81.2288 14.5284 80.9803 14.9566H80.9751Z" fill="white"/>
<path d="M85.8288 10.8118V9.56413H84.5547V17.2301H85.8288V13.0588C85.8288 11.5097 86.5426 10.7378 87.97 10.7378H88.3084V9.42139C87.711 9.42139 87.2034 9.54299 86.7911 9.78618C86.3734 10.0294 86.0562 10.3677 85.8341 10.8066L85.8288 10.8118Z" fill="white"/>
<path d="M96.9997 13.1062C96.9997 12.4083 96.8464 11.7792 96.545 11.2241C96.2437 10.6689 95.8101 10.2354 95.2497 9.9182C94.6893 9.60099 94.0443 9.44238 93.32 9.44238C92.5957 9.44238 91.9137 9.60099 91.3427 9.92349C90.7664 10.246 90.3223 10.706 90.0051 11.3034C89.6879 11.9008 89.5293 12.5934 89.5293 13.3864C89.5293 14.1795 89.6932 14.8773 90.021 15.48C90.3488 16.0827 90.7982 16.548 91.3691 16.8705C91.9401 17.1983 92.5957 17.3622 93.32 17.3622C94.2346 17.3622 95.0012 17.1295 95.6145 16.6696C96.2278 16.2096 96.6402 15.6069 96.8464 14.872H95.4771C95.329 15.3003 95.07 15.6439 94.6999 15.903C94.3298 16.1568 93.8698 16.2889 93.32 16.2889C92.6486 16.2889 92.0776 16.0774 91.607 15.6545C91.1365 15.2315 90.8775 14.6394 90.8299 13.8834H96.9574C96.9838 13.6138 96.9997 13.3547 96.9997 13.1115V13.1062ZM90.8405 12.8419C90.9039 12.1123 91.163 11.5466 91.6176 11.1342C92.0723 10.7218 92.6168 10.5209 93.2619 10.5209C93.7112 10.5209 94.1183 10.6108 94.4884 10.7958C94.8585 10.9756 95.1493 11.2452 95.3608 11.5942C95.5775 11.9431 95.6832 12.3608 95.6832 12.8471H90.8405V12.8419Z" fill="white"/>
</svg>
