<svg width="161" height="161" viewBox="0 0 161 161" fill="none" xmlns="http://www.w3.org/2000/svg">
<rect width="160.69" height="160.69" fill="url(#paint0_linear_998_1803)"/>
<path d="M70.6586 107V92.84H79.7986V94.64H72.5786V98.86H79.2986V100.66H72.5786V105.2H80.1586V107H70.6586ZM86.4052 107L80.9452 92.84H83.1652L87.3252 104.36H87.3652L91.6852 92.84H93.7852L88.2052 107H86.4052ZM56.1909 118.68L54.5909 119.9C53.7909 118.86 52.4709 118.28 51.1709 118.28C47.9909 118.28 45.8909 120.82 45.8909 124.04C45.8909 127.02 47.8709 129.56 51.1709 129.56C52.7909 129.56 54.0309 128.84 54.8709 127.66L56.4909 128.88C56.0709 129.46 54.3709 131.36 51.1309 131.36C46.6309 131.36 43.8509 127.6 43.8509 124.04C43.8509 119.64 46.8709 116.48 51.2309 116.48C53.0909 116.48 55.0509 117.18 56.1909 118.68ZM58.3529 131V115.88H60.1529V122.98H60.1929C60.6529 121.98 61.8529 121.28 63.3129 121.28C65.1529 121.28 66.7529 122.38 66.7529 124.9V131H64.9529V125.4C64.9529 123.62 63.9329 122.96 62.7929 122.96C61.2929 122.96 60.1529 123.92 60.1529 126.12V131H58.3529ZM70.5862 123.8L69.5062 122.68C70.5062 121.74 71.9462 121.28 73.2662 121.28C76.0662 121.28 77.2262 122.8 77.2262 124.44V129.28C77.2262 129.94 77.2462 130.5 77.3062 131H75.7062C75.6662 130.52 75.6462 130.04 75.6462 129.56H75.6062C74.8062 130.78 73.7262 131.24 72.2862 131.24C70.5262 131.24 69.0062 130.24 69.0062 128.4C69.0062 125.96 71.3462 125.12 74.2262 125.12H75.5462V124.72C75.5462 123.74 74.8262 122.72 73.2862 122.72C71.9062 122.72 71.2462 123.3 70.5862 123.8ZM75.5462 126.44H74.5862C72.8862 126.44 70.8062 126.74 70.8062 128.26C70.8062 129.34 71.6062 129.8 72.8462 129.8C74.8462 129.8 75.5462 128.32 75.5462 127.04V126.44ZM79.8373 131V121.52H81.6373V122.98H81.6773C82.1373 121.98 83.3373 121.28 84.5173 121.28C84.7973 121.28 85.0773 121.32 85.3173 121.4L85.2373 123.34C84.9373 123.26 84.6373 123.2 84.3573 123.2C82.5973 123.2 81.6373 124.16 81.6373 126.24V131H79.8373ZM96.3881 121.52V130.92C96.3881 133.78 94.3081 135.8 91.2081 135.8C89.4081 135.8 87.9081 135.34 86.5681 134.1L87.7881 132.58C88.7281 133.58 89.7881 134.12 91.1681 134.12C93.8481 134.12 94.5881 132.44 94.5881 130.84V129.44H94.5281C93.8481 130.58 92.5481 131.12 91.2481 131.12C88.4681 131.12 86.4081 129.02 86.4281 126.26C86.4281 123.46 88.3081 121.28 91.2481 121.28C92.5281 121.28 93.8481 121.86 94.5481 122.88H94.5881V121.52H96.3881ZM91.4681 122.96C89.5481 122.96 88.3481 124.34 88.3481 126.26C88.3481 128.18 89.5481 129.44 91.4681 129.44C93.3881 129.44 94.5881 128.18 94.5881 126.26C94.5881 124.34 93.3881 122.96 91.4681 122.96ZM108.075 126.92H100.475C100.475 128.58 102.015 129.68 103.675 129.68C104.775 129.68 105.575 129.12 106.275 128.26L107.635 129.3C106.635 130.6 105.255 131.24 103.435 131.24C100.435 131.24 98.5546 129.08 98.5546 126.26C98.5546 123.42 100.615 121.28 103.455 121.28C106.795 121.28 108.075 123.84 108.075 126.28V126.92ZM100.475 125.48H106.155C106.115 123.9 105.235 122.72 103.415 122.72C101.635 122.72 100.475 124.22 100.475 125.48ZM110.228 131V121.52H112.028V122.98H112.068C112.528 121.98 113.728 121.28 114.908 121.28C115.188 121.28 115.468 121.32 115.708 121.4L115.628 123.34C115.328 123.26 115.028 123.2 114.748 123.2C112.988 123.2 112.028 124.16 112.028 126.24V131H110.228ZM124.07 122.84L122.67 123.9C122.25 123.38 121.63 122.96 120.73 122.96C119.89 122.96 119.15 123.34 119.15 124.02C119.15 125.16 120.77 125.32 121.57 125.5C123.13 125.88 124.33 126.48 124.33 128.26C124.33 130.4 122.37 131.24 120.49 131.24C118.93 131.24 117.77 130.84 116.83 129.56L118.19 128.44C118.77 129.02 119.45 129.56 120.49 129.56C121.41 129.56 122.41 129.18 122.41 128.36C122.41 127.28 120.91 127.08 120.13 126.9C118.59 126.52 117.23 126.02 117.23 124.2C117.23 122.22 119.05 121.28 120.83 121.28C122.09 121.28 123.39 121.72 124.07 122.84Z" fill="white"/>
<path d="M71.7574 58.6619H65.5847L76.9013 42.2014L74.8437 54.5468H81.0164L69.6998 71.0073L71.7574 58.6619Z" stroke="white" stroke-width="1.5" stroke-linecap="round" stroke-linejoin="round"/>
<path d="M60.4407 77.18V38.0863C60.4407 36.3889 61.8295 35 63.527 35H83.0738C84.7778 35 86.1602 36.3824 86.1602 38.0863V77.18" stroke="white" stroke-width="1.5" stroke-linecap="round" stroke-linejoin="round"/>
<path d="M58 77.1801H88.5998" stroke="white" stroke-width="1.5" stroke-linecap="round" stroke-linejoin="round"/>
<path d="M86.1604 67.921H89.2467C90.3835 67.921 91.3043 68.8418 91.3043 69.9786V75.1225C91.3043 76.2593 92.2251 77.18 93.3619 77.18H95.4194C96.5562 77.18 97.477 76.2593 97.477 75.1225V54.5469" stroke="white" stroke-width="1.5" stroke-linejoin="round"/>
<path d="M94.3906 38.0863V43.2302" stroke="white" stroke-width="1.5" stroke-linecap="round" stroke-linejoin="round"/>
<path d="M100.563 38.0863V43.2302" stroke="white" stroke-width="1.5" stroke-linecap="round" stroke-linejoin="round"/>
<path d="M102.621 50.4317C102.621 52.704 100.318 54.5468 97.4769 54.5468C94.6362 54.5468 92.333 52.704 92.333 50.4317V47.3453L91.3042 46.3166V43.2302H103.65V46.3166L102.621 47.3453V50.4317Z" stroke="white" stroke-width="1.5" stroke-linejoin="round"/>
<defs>
<linearGradient id="paint0_linear_998_1803" x1="-1.40421e-06" y1="6.6037" x2="152.435" y2="153.536" gradientUnits="userSpaceOnUse">
<stop stop-color="#80C804"/>
<stop offset="0.501884" stop-color="#191970"/>
</linearGradient>
</defs>
</svg>
