<svg width="173" height="72" viewBox="0 0 173 72" fill="none" xmlns="http://www.w3.org/2000/svg">
<path d="M144.341 58.2114H142.358V51.7868H144.429C145.052 51.7868 145.585 51.9154 146.029 52.1727C146.472 52.4278 146.812 52.7948 147.048 53.2737C147.284 53.7506 147.403 54.3215 147.403 54.9866C147.403 55.6558 147.283 56.232 147.045 56.7151C146.807 57.1961 146.459 57.5662 146.004 57.8256C145.548 58.0828 144.993 58.2114 144.341 58.2114ZM143.136 57.5213H144.291C144.822 57.5213 145.262 57.4188 145.611 57.2139C145.961 57.0089 146.221 56.7172 146.393 56.3386C146.564 55.9601 146.65 55.5094 146.65 54.9866C146.65 54.4679 146.565 54.0214 146.396 53.6471C146.226 53.2706 145.973 52.982 145.636 52.7812C145.3 52.5784 144.88 52.4769 144.379 52.4769H143.136V57.5213ZM148.784 58.2114V53.393H149.524V58.2114H148.784ZM149.16 52.5899C149.016 52.5899 148.892 52.5407 148.787 52.4424C148.685 52.3441 148.633 52.226 148.633 52.088C148.633 51.9499 148.685 51.8318 148.787 51.7335C148.892 51.6352 149.016 51.586 149.16 51.586C149.305 51.586 149.428 51.6352 149.531 51.7335C149.635 51.8318 149.687 51.9499 149.687 52.088C149.687 52.226 149.635 52.3441 149.531 52.4424C149.428 52.5407 149.305 52.5899 149.16 52.5899ZM153.002 60.1187C152.644 60.1187 152.337 60.0727 152.08 59.9807C151.822 59.8908 151.608 59.7716 151.437 59.6231C151.267 59.4767 151.132 59.3198 151.032 59.1525L151.622 58.7384C151.689 58.8263 151.773 58.9267 151.876 59.0396C151.978 59.1546 152.118 59.254 152.296 59.3376C152.476 59.4234 152.711 59.4662 153.002 59.4662C153.391 59.4662 153.712 59.3721 153.965 59.1839C154.218 58.9957 154.345 58.7008 154.345 58.2993V57.3205H154.282C154.227 57.4083 154.15 57.5171 154.05 57.6468C153.951 57.7743 153.809 57.8883 153.623 57.9887C153.439 58.087 153.19 58.1361 152.876 58.1361C152.487 58.1361 152.138 58.0441 151.829 57.8601C151.521 57.676 151.278 57.4083 151.098 57.057C150.92 56.7057 150.831 56.279 150.831 55.7771C150.831 55.2835 150.918 54.8538 151.091 54.4878C151.265 54.1197 151.507 53.8353 151.816 53.6345C152.126 53.4316 152.483 53.3302 152.889 53.3302C153.203 53.3302 153.452 53.3825 153.636 53.4871C153.822 53.5895 153.964 53.7067 154.062 53.8384C154.163 53.9681 154.24 54.0747 154.294 54.1584H154.37V53.393H155.085V58.3495C155.085 58.7635 154.991 59.1002 154.803 59.3596C154.616 59.621 154.365 59.8124 154.05 59.9337C153.736 60.057 153.387 60.1187 153.002 60.1187ZM152.977 57.4711C153.274 57.4711 153.525 57.4031 153.73 57.2672C153.935 57.1312 154.09 56.9357 154.197 56.6806C154.304 56.4254 154.357 56.1201 154.357 55.7645C154.357 55.4174 154.305 55.111 154.2 54.8454C154.096 54.5798 153.941 54.3717 153.736 54.2211C153.531 54.0706 153.278 53.9953 152.977 53.9953C152.663 53.9953 152.402 54.0747 152.193 54.2337C151.985 54.3926 151.83 54.6059 151.725 54.8736C151.623 55.1413 151.571 55.4383 151.571 55.7645C151.571 56.0992 151.624 56.3951 151.728 56.6523C151.835 56.9075 151.992 57.1082 152.199 57.2546C152.408 57.3989 152.667 57.4711 152.977 57.4711ZM156.617 58.2114V53.393H157.357V58.2114H156.617ZM156.993 52.5899C156.849 52.5899 156.724 52.5407 156.62 52.4424C156.517 52.3441 156.466 52.226 156.466 52.088C156.466 51.9499 156.517 51.8318 156.62 51.7335C156.724 51.6352 156.849 51.586 156.993 51.586C157.137 51.586 157.261 51.6352 157.363 51.7335C157.468 51.8318 157.52 51.9499 157.52 52.088C157.52 52.226 157.468 52.3441 157.363 52.4424C157.261 52.5407 157.137 52.5899 156.993 52.5899ZM160.985 53.393V54.0204H158.488V53.393H160.985ZM159.216 52.2385H159.956V56.8311C159.956 57.0403 159.987 57.1971 160.047 57.3017C160.11 57.4042 160.19 57.4732 160.286 57.5087C160.384 57.5422 160.488 57.5589 160.596 57.5589C160.678 57.5589 160.745 57.5547 160.797 57.5464C160.849 57.5359 160.891 57.5276 160.923 57.5213L161.073 58.1863C161.023 58.2052 160.953 58.224 160.863 58.2428C160.773 58.2637 160.659 58.2742 160.521 58.2742C160.312 58.2742 160.107 58.2292 159.906 58.1393C159.707 58.0493 159.542 57.9124 159.41 57.7283C159.281 57.5443 159.216 57.3121 159.216 57.0319V52.2385ZM163.694 58.3244C163.388 58.3244 163.111 58.2668 162.862 58.1518C162.613 58.0347 162.416 57.8664 162.269 57.6468C162.123 57.4251 162.05 57.1574 162.05 56.8437C162.05 56.5676 162.104 56.3439 162.213 56.1724C162.322 55.9988 162.467 55.8628 162.649 55.7645C162.831 55.6663 163.032 55.5931 163.251 55.545C163.473 55.4948 163.696 55.455 163.919 55.4257C164.212 55.3881 164.45 55.3599 164.631 55.341C164.816 55.3201 164.949 55.2856 165.033 55.2375C165.119 55.1894 165.162 55.1058 165.162 54.9866V54.9615C165.162 54.6519 165.077 54.4114 164.908 54.24C164.74 54.0685 164.486 53.9827 164.145 53.9827C163.792 53.9827 163.515 54.0601 163.314 54.2149C163.113 54.3696 162.972 54.5348 162.89 54.7105L162.188 54.4595C162.313 54.1668 162.481 53.9388 162.69 53.7757C162.901 53.6105 163.131 53.4954 163.38 53.4306C163.631 53.3637 163.878 53.3302 164.12 53.3302C164.275 53.3302 164.453 53.349 164.653 53.3867C164.856 53.4222 165.052 53.4965 165.24 53.6094C165.43 53.7223 165.588 53.8928 165.714 54.1207C165.839 54.3487 165.902 54.654 165.902 55.0368V58.2114H165.162V57.5589H165.124C165.074 57.6635 164.99 57.7754 164.873 57.8946C164.756 58.0138 164.6 58.1152 164.406 58.1989C164.211 58.2825 163.974 58.3244 163.694 58.3244ZM163.806 57.6593C164.099 57.6593 164.346 57.6018 164.547 57.4868C164.75 57.3717 164.902 57.2233 165.005 57.0413C165.109 56.8594 165.162 56.668 165.162 56.4672V55.7896C165.13 55.8273 165.061 55.8618 164.955 55.8932C164.85 55.9224 164.729 55.9486 164.591 55.9716C164.455 55.9925 164.322 56.0113 164.192 56.0281C164.065 56.0427 163.961 56.0552 163.882 56.0657C163.689 56.0908 163.509 56.1316 163.342 56.188C163.177 56.2424 163.043 56.325 162.941 56.4359C162.84 56.5446 162.79 56.6931 162.79 56.8813C162.79 57.1386 162.885 57.3331 163.076 57.4648C163.268 57.5945 163.512 57.6593 163.806 57.6593ZM168.17 51.7868V58.2114H167.43V51.7868H168.17Z" fill="#191970"/>
<path d="M78.8782 28.5227C77.7722 27.8618 76.5623 27.3237 75.2512 26.9109C73.9382 26.4978 72.6472 26.1458 71.3772 25.8557C70.0242 25.5247 68.8865 25.1848 67.9646 24.8328C67.0422 24.4817 66.3655 24.0679 65.9353 23.5928C65.5051 23.1177 65.2893 22.5068 65.2893 21.7627C65.2893 20.7297 65.7712 19.9128 66.7341 19.3127C67.6975 18.7139 68.8962 18.4138 70.3323 18.4138C71.8474 18.4138 73.2522 18.7239 74.5432 19.3438C75.8342 19.9639 76.8894 20.9558 77.7102 22.3208L81.4612 19.4058C80.3943 17.5049 78.8982 16.0669 76.9724 15.0947C75.0452 14.1248 72.9143 13.6377 70.5774 13.6377C67.2986 13.6377 64.6633 14.4338 62.6765 16.0259C60.6882 17.6177 59.6946 19.7158 59.6946 22.3208C59.6946 23.8088 59.9915 25.0598 60.5862 26.0728C61.1794 27.0867 61.9583 27.9128 62.9226 28.5537C63.8845 29.1948 64.9612 29.7227 66.1501 30.1348C67.3396 30.5498 68.5076 30.9209 69.6555 31.2517C70.9255 31.5417 72.0935 31.8828 73.1604 32.2747C74.2253 32.6687 75.0862 33.1648 75.7424 33.7627C76.3982 34.3638 76.7263 35.1587 76.7263 36.1509C76.7263 37.3918 76.2043 38.3948 75.1584 39.1587C74.1135 39.9248 72.6882 40.3069 70.8855 40.3069C68.8352 40.3069 67.0823 39.8008 65.6282 38.7869C64.1726 37.7747 63.0544 36.5647 62.2766 35.1587L58.1575 38.7559C58.8542 39.8318 59.7864 40.8757 60.9543 41.8877C62.1233 42.9019 63.5276 43.7278 65.1672 44.3689C66.8054 45.0098 68.6921 45.3298 70.8235 45.3298C73.2004 45.3298 75.2703 44.9158 77.0344 44.0898C78.7952 43.2627 80.1692 42.1157 81.1536 40.6477C82.1375 39.1797 82.6292 37.4749 82.6292 35.5317C82.6292 33.7537 82.2805 32.3057 81.5842 31.1897C80.8875 30.0728 79.9856 29.1848 78.8782 28.5227Z" fill="#191970"/>
<path d="M100.698 13.6377C98.116 13.6377 95.7268 14.0828 93.5339 14.9717C91.3411 15.8608 89.343 17.2559 87.5388 19.1577L91.2898 23.0647C92.6428 21.5767 94.0657 20.5017 95.5637 19.8398C97.0588 19.1787 98.6267 18.8477 100.267 18.8477C102.604 18.8477 104.387 19.4277 105.617 20.5837C106.846 21.7417 107.462 23.3958 107.462 25.5459V26.5378H98.3611C96.844 26.5378 95.4187 26.6729 94.0867 26.9419C92.7546 27.2097 91.5759 27.6758 90.552 28.3367C89.4451 28.9988 88.5427 29.9387 87.8469 31.1587C87.1487 32.3787 86.801 33.8367 86.801 35.5317C86.801 37.4749 87.2717 39.1797 88.2161 40.6477C89.158 42.1157 90.49 43.2627 92.2117 44.0898C93.9338 44.9158 95.9216 45.3298 98.177 45.3298C100.144 45.3298 101.917 44.9158 103.495 44.0898C105.073 43.2627 106.395 42.0527 107.462 40.4617C107.498 40.4067 107.527 40.3457 107.563 40.2898V45.3298H113.487V25.5459C113.487 21.7837 112.37 18.8577 110.136 16.7698C107.901 14.6829 104.756 13.6377 100.698 13.6377ZM107.462 31.9958C107.462 33.6089 107.071 35.0447 106.293 36.3057C105.514 37.5679 104.479 38.5598 103.188 39.2837C101.897 40.0068 100.472 40.3677 98.9138 40.3677C97.0701 40.3677 95.595 39.9338 94.4871 39.0657C93.3806 38.1978 92.8269 37.0408 92.8269 35.5928C92.8269 34.8489 92.97 34.1968 93.2571 33.6399C93.5437 33.0818 93.9338 32.6167 94.426 32.2439C95.0408 31.7898 95.7888 31.4897 96.6697 31.3438C97.551 31.1997 98.4006 31.1277 99.2219 31.1277H107.462V31.9958Z" fill="#191970"/>
<path d="M137.764 15.6841C136.863 15.1479 135.971 14.7651 135.091 14.5371C134.208 14.3101 133.277 14.1951 132.292 14.1951C130.898 14.1951 129.484 14.5781 128.05 15.343C126.615 16.1091 125.375 17.1631 124.329 18.5061C124.114 18.7849 123.927 19.0801 123.745 19.3779V13.7241H117.657V45.3301H123.745V31.375C123.745 29.7629 123.796 28.491 123.899 27.561C124.001 26.6311 124.135 25.877 124.3 25.2971C124.667 24.0991 125.21 23.127 125.928 22.3821C126.645 21.6389 127.454 21.1011 128.357 20.77C129.259 20.4399 130.181 20.2739 131.124 20.2739C131.74 20.2739 132.394 20.3569 133.093 20.522C133.788 20.687 134.362 20.894 134.813 21.1421L137.764 15.6841Z" fill="#191970"/>
<path d="M163.26 16.7698C161.025 14.6829 157.88 13.6377 153.823 13.6377C153.802 13.6377 153.782 13.6387 153.763 13.6387L153.724 13.6377C151.141 13.6377 148.753 14.0828 146.56 14.9717C144.367 15.8608 142.368 17.2559 140.565 19.1577L144.316 23.0647C144.332 23.0469 144.348 23.0308 144.365 23.0137L144.414 23.0647C145.767 21.5767 147.19 20.5017 148.688 19.8398C150.171 19.1838 151.727 18.8547 153.353 18.8489C155.66 18.8599 157.425 19.4377 158.642 20.5837C159.873 21.7417 160.489 23.3958 160.489 25.5459V26.5378H151.486H151.387C149.87 26.5378 148.446 26.6729 147.114 26.9419C145.781 27.2097 144.602 27.6758 143.578 28.3367C142.471 28.9988 141.57 29.9387 140.873 31.1587C140.176 32.3787 139.828 33.8367 139.828 35.5317C139.828 37.4749 140.299 39.1797 141.241 40.6477C142.184 42.1157 143.517 43.2627 145.239 44.0898C146.96 44.9158 148.948 45.3298 151.203 45.3298L151.249 45.3289C151.266 45.3289 151.283 45.3298 151.302 45.3298C153.268 45.3298 155.041 44.9158 156.619 44.0898C158.198 43.2627 159.519 42.0527 160.585 40.4617L160.602 40.4348L160.687 41.4128V45.3298H166.612V25.5459C166.612 21.7837 165.494 18.8577 163.26 16.7698ZM160.489 31.1277V31.9958C160.489 33.6089 160.097 35.0447 159.32 36.3057C158.54 37.5679 157.505 38.5598 156.215 39.2837C154.937 39.9988 153.529 40.3589 151.99 40.3667C150.168 40.3589 148.708 39.9268 147.612 39.0657C146.504 38.1978 145.951 37.0408 145.951 35.5928C145.951 34.8489 146.094 34.1968 146.382 33.6399C146.668 33.0818 147.058 32.6167 147.551 32.2439C148.165 31.7898 148.912 31.4897 149.794 31.3438C150.676 31.1997 151.525 31.1277 152.346 31.1277H160.489Z" fill="#191970"/>
<path d="M172.056 13.6372L171.284 15.8401L170.502 13.6372H169.68V16.7927H170.18V14.1436L171.114 16.5645H171.445L172.357 14.1831V16.7927H172.868V13.6372H172.056Z" fill="#191970"/>
<path d="M166.612 14.1038H167.544V16.7927H168.055V14.1038H168.978V13.6372H166.612V14.1038Z" fill="#191970"/>
<path d="M26.2136 46.1443L21.1521 51.2493L0.888916 30.8198L5.94995 25.7056L26.2136 46.1443Z" fill="#F09100"/>
<path d="M41.4065 51.249L21.1521 71.6875L0.888916 51.249L5.94995 46.144H5.95923L21.1521 61.4683L36.345 46.144L41.4065 51.249Z" fill="#F09100"/>
<path d="M41.4065 20.6001L36.345 25.7053L21.1521 10.3809L5.94995 25.7053L0.888916 20.6001L21.1433 0.161621L41.4065 20.6001Z" fill="#F09100"/>
<path d="M41.406 41.0295L36.3445 46.144L16.0813 25.7053L21.1516 20.6001L41.406 41.0295Z" fill="#F09100"/>
</svg>
