<svg width="161" height="161" viewBox="0 0 161 161" fill="none" xmlns="http://www.w3.org/2000/svg">
<rect width="160.69" height="160.69" fill="url(#paint0_linear_998_1793)"/>
<path d="M45.9743 105V90.84H50.8943C53.3543 90.84 55.1943 91.98 55.1943 94.38C55.1943 96 54.1943 97.02 52.7543 97.5V97.54C54.4543 97.66 55.8143 99.16 55.8143 101.06C55.8143 103.6 53.5943 105 50.8343 105H45.9743ZM47.8943 92.52V96.72H50.5143C51.9743 96.72 53.1543 96.14 53.1543 94.6C53.1543 93.48 52.4543 92.52 50.9143 92.52H47.8943ZM47.8943 98.4V103.32H50.7143C51.8743 103.32 53.7743 102.92 53.7743 100.92C53.7743 99.24 52.5943 98.4 50.7343 98.4H47.8943ZM66.512 95.52V105H64.712V103.54H64.672C64.212 104.54 63.012 105.24 61.552 105.24C59.712 105.24 58.112 104.14 58.112 101.62V95.52H59.912V101.12C59.912 102.9 60.932 103.56 62.072 103.56C63.572 103.56 64.712 102.6 64.712 100.4V95.52H66.512ZM69.3652 105V95.52H71.1652V105H69.3652ZM68.9452 92.12C68.9452 91.4 69.5452 90.8 70.2652 90.8C70.9852 90.8 71.5852 91.4 71.5852 92.12C71.5852 92.84 70.9852 93.44 70.2652 93.44C69.5452 93.44 68.9452 92.84 68.9452 92.12ZM74.1699 105V89.88H75.9699V105H74.1699ZM88.3346 89.88V105H86.5346V103.64H86.4946C85.7946 104.66 84.4746 105.24 83.1946 105.24C80.2546 105.24 78.3746 103.06 78.3746 100.26C78.3746 97.42 80.2746 95.28 83.1946 95.28C84.5546 95.28 85.8546 95.9 86.4946 96.88H86.5346V89.88H88.3346ZM83.4146 103.56C85.3346 103.56 86.5346 102.18 86.5346 100.26C86.5346 98.34 85.3346 96.96 83.4146 96.96C81.4946 96.96 80.2946 98.34 80.2946 100.26C80.2946 102.18 81.4946 103.56 83.4146 103.56ZM91.2012 105V95.52H93.0012V105H91.2012ZM90.7812 92.12C90.7812 91.4 91.3812 90.8 92.1012 90.8C92.8212 90.8 93.4212 91.4 93.4212 92.12C93.4212 92.84 92.8212 93.44 92.1012 93.44C91.3812 93.44 90.7812 92.84 90.7812 92.12ZM95.8659 105V95.52H97.6659V96.98H97.7059C98.1659 95.98 99.3659 95.28 100.826 95.28C102.666 95.28 104.266 96.38 104.266 98.9V105H102.466V99.4C102.466 97.62 101.446 96.96 100.306 96.96C98.8059 96.96 97.6659 97.92 97.6659 100.12V105H95.8659ZM116.479 95.52V104.92C116.479 107.78 114.399 109.8 111.299 109.8C109.499 109.8 107.999 109.34 106.659 108.1L107.879 106.58C108.819 107.58 109.879 108.12 111.259 108.12C113.939 108.12 114.679 106.44 114.679 104.84V103.44H114.619C113.939 104.58 112.639 105.12 111.339 105.12C108.559 105.12 106.499 103.02 106.519 100.26C106.519 97.46 108.399 95.28 111.339 95.28C112.619 95.28 113.939 95.86 114.639 96.88H114.679V95.52H116.479ZM111.559 96.96C109.639 96.96 108.439 98.34 108.439 100.26C108.439 102.18 109.639 103.44 111.559 103.44C113.479 103.44 114.679 102.18 114.679 100.26C114.679 98.34 113.479 96.96 111.559 96.96ZM27.4848 133L33.7248 118.84H35.4648L41.5248 133H39.2848L37.8648 129.5H31.1248L29.7248 133H27.4848ZM31.8048 127.82H37.1648L34.5248 121.32H34.4848L31.8048 127.82ZM51.3069 123.52V133H49.5069V131.54H49.4669C49.0069 132.54 47.8069 133.24 46.3469 133.24C44.5069 133.24 42.9069 132.14 42.9069 129.62V123.52H44.7069V129.12C44.7069 130.9 45.7269 131.56 46.8669 131.56C48.3669 131.56 49.5069 130.6 49.5069 128.4V123.52H51.3069ZM59.1002 123.52V125.08H56.5202V129.38C56.5202 130.44 56.5202 131.56 57.8802 131.56C58.3002 131.56 58.8002 131.5 59.1602 131.28V132.92C58.7402 133.16 57.9002 133.24 57.5402 133.24C54.7602 133.24 54.7202 131.54 54.7202 130.02V125.08H52.6402V123.52H54.7202V120.86H56.5202V123.52H59.1002ZM62.8825 128.26C62.8825 130.18 64.0825 131.56 66.0025 131.56C67.9225 131.56 69.1225 130.18 69.1225 128.26C69.1225 126.34 67.9225 124.96 66.0025 124.96C64.0825 124.96 62.8825 126.34 62.8825 128.26ZM60.9625 128.26C60.9625 125.5 63.1825 123.28 66.0025 123.28C68.8225 123.28 71.0425 125.5 71.0425 128.26C71.0425 131.02 68.8225 133.24 66.0025 133.24C63.1825 133.24 60.9625 131.02 60.9625 128.26ZM73.2975 133V123.52H74.9775V125H75.0175C75.1975 124.44 76.3575 123.28 78.0575 123.28C79.4575 123.28 80.4175 123.88 81.0175 125.04C81.6375 123.88 82.8775 123.28 84.0175 123.28C86.9375 123.28 87.6175 125.36 87.6175 127.48V133H85.8175V127.72C85.8175 126.28 85.5175 124.96 83.7775 124.96C82.0375 124.96 81.3575 126.14 81.3575 127.82V133H79.5575V128.04C79.5575 126.24 79.2975 124.96 77.5575 124.96C76.2575 124.96 75.0975 125.94 75.0975 128.08V133H73.2975ZM91.4488 125.8L90.3688 124.68C91.3688 123.74 92.8088 123.28 94.1288 123.28C96.9288 123.28 98.0888 124.8 98.0888 126.44V131.28C98.0888 131.94 98.1088 132.5 98.1688 133H96.5688C96.5288 132.52 96.5088 132.04 96.5088 131.56H96.4688C95.6688 132.78 94.5888 133.24 93.1488 133.24C91.3888 133.24 89.8688 132.24 89.8688 130.4C89.8688 127.96 92.2088 127.12 95.0888 127.12H96.4088V126.72C96.4088 125.74 95.6888 124.72 94.1488 124.72C92.7688 124.72 92.1088 125.3 91.4488 125.8ZM96.4088 128.44H95.4488C93.7488 128.44 91.6688 128.74 91.6688 130.26C91.6688 131.34 92.4688 131.8 93.7088 131.8C95.7088 131.8 96.4088 130.32 96.4088 129.04V128.44ZM105.78 123.52V125.08H103.2V129.38C103.2 130.44 103.2 131.56 104.56 131.56C104.98 131.56 105.48 131.5 105.84 131.28V132.92C105.42 133.16 104.58 133.24 104.22 133.24C101.44 133.24 101.4 131.54 101.4 130.02V125.08H99.3198V123.52H101.4V120.86H103.2V123.52H105.78ZM108.242 133V123.52H110.042V133H108.242ZM107.822 120.12C107.822 119.4 108.422 118.8 109.142 118.8C109.862 118.8 110.462 119.4 110.462 120.12C110.462 120.84 109.862 121.44 109.142 121.44C108.422 121.44 107.822 120.84 107.822 120.12ZM114.367 128.26C114.367 130.18 115.567 131.56 117.487 131.56C119.407 131.56 120.607 130.18 120.607 128.26C120.607 126.34 119.407 124.96 117.487 124.96C115.567 124.96 114.367 126.34 114.367 128.26ZM112.447 128.26C112.447 125.5 114.667 123.28 117.487 123.28C120.307 123.28 122.527 125.5 122.527 128.26C122.527 131.02 120.307 133.24 117.487 133.24C114.667 133.24 112.447 131.02 112.447 128.26ZM124.782 133V123.52H126.582V124.98H126.622C127.082 123.98 128.282 123.28 129.742 123.28C131.582 123.28 133.182 124.38 133.182 126.9V133H131.382V127.4C131.382 125.62 130.362 124.96 129.222 124.96C127.722 124.96 126.582 125.92 126.582 128.12V133H124.782Z" fill="white"/>
<path d="M88.846 57.675L87.7072 54.9122L86.0305 55.4711C85.5666 54.8173 84.9971 54.2584 84.3644 53.8155L84.9233 52.1389L82.1605 51L81.3696 52.5818C80.5999 52.4552 79.809 52.4447 79.0181 52.5818L78.2272 51L75.4644 52.1389L76.0233 53.8155C75.3695 54.2795 74.8107 54.8489 74.3678 55.4816L72.6911 54.9227L71.5522 57.6855L73.134 58.4764C73.0075 59.2462 72.9969 60.0371 73.134 60.8279L71.5522 61.6188L72.6911 64.3816L74.3678 63.8227C74.8317 64.4765 75.4012 65.0354 76.0339 65.4783L75.475 67.1549L78.2378 68.2938L79.0287 66.7121C79.7984 66.8386 80.5893 66.8491 81.3802 66.7121L82.1711 68.2938L84.9339 67.1549L84.375 65.4783C85.0288 65.0143 85.5876 64.4449 86.0305 63.8122L87.7072 64.3711L88.846 61.6083L87.2643 60.8174C87.3908 60.0476 87.4014 59.2567 87.2643 58.4659L88.846 57.675Z" stroke="white" stroke-width="1.5" stroke-linejoin="round"/>
<path d="M74.9264 71.9075V77.18H63.3269V56.09" stroke="white" stroke-width="1.5" stroke-linejoin="round"/>
<path d="M97.0709 56.09V77.18H85.4714V71.9075" stroke="white" stroke-width="1.5" stroke-linejoin="round"/>
<path d="M57 58.199L80.199 35L103.398 58.199" stroke="white" stroke-width="1.5" stroke-linejoin="round"/>
<path d="M70.7085 40.2724V36.0544H65.436V45.5449" stroke="white" stroke-width="1.5" stroke-linejoin="round"/>
<defs>
<linearGradient id="paint0_linear_998_1793" x1="-1.40421e-06" y1="6.6037" x2="152.435" y2="153.536" gradientUnits="userSpaceOnUse">
<stop stop-color="#80C804"/>
<stop offset="0.501884" stop-color="#191970"/>
</linearGradient>
</defs>
</svg>
