<svg width="161" height="161" viewBox="0 0 161 161" fill="none" xmlns="http://www.w3.org/2000/svg">
<rect width="160.69" height="160.69" fill="url(#paint0_linear_998_1782)"/>
<path d="M87.4839 69.7769C89.4888 71.8657 96.9849 72.2734 99.6147 67.0156C101.555 63.1348 99.1899 58.2837 100.373 53.6455C93.0947 55.1616 87.4268 59.4668 86.7876 66.5806" stroke="white" stroke-width="1.5"/>
<path d="M74.9365 56.3438L70.0859 72.8364L89.4888 51.4927H81.7275L86.5786 35L67.1753 56.3438H74.9365Z" stroke="white" stroke-width="1.5"/>
<path d="M66.7261 67.3477C62.8403 63.9678 60.3843 58.9878 60.3843 53.4336C60.3843 43.2524 68.6372 35.0005 78.8174 35.0005C79.061 35.0005 79.3032 35.0049 79.5444 35.0146" stroke="white" stroke-width="1.5"/>
<path d="M95.9272 60.3027C93.2041 67.0806 86.5693 71.8657 78.8174 71.8657C78.1211 71.8657 77.4351 71.8276 76.7593 71.7524" stroke="white" stroke-width="1.5"/>
<path d="M90.064 38.8286C93.5933 41.5498 96.1074 45.5205 96.9453 50.0786" stroke="white" stroke-width="1.5"/>
<path d="M96.355 73.9077C96.52 74.9067 96.4712 76.1289 96.1064 77.1035C91.832 77.5225 87.1421 76.2148 85.439 70.6406" stroke="white" stroke-width="1.5"/>
<path d="M50.4548 105V90.84H59.5948V92.64H52.3748V96.86H59.0948V98.66H52.3748V103.2H59.9548V105H50.4548ZM62.2213 105V95.52H64.0213V96.98H64.0613C64.5213 95.98 65.7213 95.28 67.1813 95.28C69.0213 95.28 70.6213 96.38 70.6213 98.9V105H68.8213V99.4C68.8213 97.62 67.8013 96.96 66.6613 96.96C65.1613 96.96 64.0213 97.92 64.0213 100.12V105H62.2213ZM82.2946 100.92H74.6946C74.6946 102.58 76.2346 103.68 77.8946 103.68C78.9946 103.68 79.7946 103.12 80.4946 102.26L81.8546 103.3C80.8546 104.6 79.4746 105.24 77.6546 105.24C74.6546 105.24 72.7746 103.08 72.7746 100.26C72.7746 97.42 74.8346 95.28 77.6746 95.28C81.0146 95.28 82.2946 97.84 82.2946 100.28V100.92ZM74.6946 99.48H80.3746C80.3346 97.9 79.4546 96.72 77.6346 96.72C75.8546 96.72 74.6946 98.22 74.6946 99.48ZM84.4479 105V95.52H86.2479V96.98H86.2879C86.7479 95.98 87.9479 95.28 89.1279 95.28C89.4079 95.28 89.6879 95.32 89.9279 95.4L89.8479 97.34C89.5479 97.26 89.2479 97.2 88.9679 97.2C87.2079 97.2 86.2479 98.16 86.2479 100.24V105H84.4479ZM100.999 95.52V104.92C100.999 107.78 98.9187 109.8 95.8187 109.8C94.0187 109.8 92.5187 109.34 91.1787 108.1L92.3987 106.58C93.3387 107.58 94.3987 108.12 95.7787 108.12C98.4587 108.12 99.1987 106.44 99.1987 104.84V103.44H99.1387C98.4587 104.58 97.1587 105.12 95.8587 105.12C93.0787 105.12 91.0187 103.02 91.0387 100.26C91.0387 97.46 92.9187 95.28 95.8587 95.28C97.1387 95.28 98.4587 95.86 99.1587 96.88H99.1987V95.52H100.999ZM96.0787 96.96C94.1587 96.96 92.9587 98.34 92.9587 100.26C92.9587 102.18 94.1587 103.44 96.0787 103.44C97.9987 103.44 99.1987 102.18 99.1987 100.26C99.1987 98.34 97.9987 96.96 96.0787 96.96ZM106.525 105.06L102.585 95.52H104.665L107.485 102.92H107.525L110.205 95.52H112.145L107.645 107.04C107.005 108.68 106.385 109.8 104.405 109.8C103.865 109.8 103.305 109.74 102.805 109.54L103.025 107.9C103.365 108.04 103.745 108.12 104.105 108.12C105.245 108.12 105.585 107.5 105.945 106.56L106.525 105.06ZM31.1489 129.7L34.3689 133H31.7889L30.0489 131.12C28.8489 132.56 27.6089 133.36 25.7089 133.36C22.5089 133.36 21.0689 131.32 21.0689 129.26C21.0689 127.28 22.5689 126.02 24.2889 125.2C23.3889 124.24 22.6289 123.3 22.6289 121.92C22.6289 119.76 24.3889 118.6 26.4089 118.6C28.3889 118.6 30.0689 119.66 30.0689 121.8C30.0689 123.58 28.5489 124.7 27.1289 125.44L29.9289 128.36L31.7089 125.46H33.8889L31.1489 129.7ZM28.1489 121.8C28.1489 120.86 27.4289 120.28 26.4289 120.28C25.4089 120.28 24.5489 120.88 24.5489 121.94C24.5489 122.88 25.3289 123.68 25.9489 124.3C26.9289 123.76 28.1489 123.08 28.1489 121.8ZM28.9089 129.88L25.4889 126.32C24.3489 126.98 23.1089 127.74 23.1089 129.2C23.1089 130.58 24.4089 131.68 25.7689 131.68C27.1489 131.68 28.1689 130.76 28.9089 129.88ZM41.8089 133V118.84H44.6689L49.1689 129.56H49.2489L53.7089 118.84H56.5689V133H54.6489V121.36H54.6089L49.8289 133H48.5489L43.7689 121.36H43.7289V133H41.8089ZM61.0739 128.26C61.0739 130.18 62.2739 131.56 64.1939 131.56C66.1139 131.56 67.3139 130.18 67.3139 128.26C67.3139 126.34 66.1139 124.96 64.1939 124.96C62.2739 124.96 61.0739 126.34 61.0739 128.26ZM59.1539 128.26C59.1539 125.5 61.3739 123.28 64.1939 123.28C67.0139 123.28 69.2339 125.5 69.2339 128.26C69.2339 131.02 67.0139 133.24 64.1939 133.24C61.3739 133.24 59.1539 131.02 59.1539 128.26ZM71.4889 133V123.52H73.2889V124.98H73.3289C73.7889 123.98 74.9889 123.28 76.4489 123.28C78.2889 123.28 79.8889 124.38 79.8889 126.9V133H78.0889V127.4C78.0889 125.62 77.0689 124.96 75.9289 124.96C74.4289 124.96 73.2889 125.92 73.2889 128.12V133H71.4889ZM82.7422 133V123.52H84.5422V133H82.7422ZM82.3222 120.12C82.3222 119.4 82.9222 118.8 83.6422 118.8C84.3622 118.8 84.9622 119.4 84.9622 120.12C84.9622 120.84 84.3622 121.44 83.6422 121.44C82.9222 121.44 82.3222 120.84 82.3222 120.12ZM92.4869 123.52V125.08H89.9069V129.38C89.9069 130.44 89.9069 131.56 91.2669 131.56C91.6869 131.56 92.1869 131.5 92.5469 131.28V132.92C92.1269 133.16 91.2869 133.24 90.9269 133.24C88.1469 133.24 88.1069 131.54 88.1069 130.02V125.08H86.0269V123.52H88.1069V120.86H89.9069V123.52H92.4869ZM96.2692 128.26C96.2692 130.18 97.4692 131.56 99.3892 131.56C101.309 131.56 102.509 130.18 102.509 128.26C102.509 126.34 101.309 124.96 99.3892 124.96C97.4692 124.96 96.2692 126.34 96.2692 128.26ZM94.3492 128.26C94.3492 125.5 96.5692 123.28 99.3892 123.28C102.209 123.28 104.429 125.5 104.429 128.26C104.429 131.02 102.209 133.24 99.3892 133.24C96.5692 133.24 94.3492 131.02 94.3492 128.26ZM106.684 133V123.52H108.484V124.98H108.524C108.984 123.98 110.184 123.28 111.364 123.28C111.644 123.28 111.924 123.32 112.164 123.4L112.084 125.34C111.784 125.26 111.484 125.2 111.204 125.2C109.444 125.2 108.484 126.16 108.484 128.24V133H106.684ZM114.227 133V123.52H116.027V133H114.227ZM113.807 120.12C113.807 119.4 114.407 118.8 115.127 118.8C115.847 118.8 116.447 119.4 116.447 120.12C116.447 120.84 115.847 121.44 115.127 121.44C114.407 121.44 113.807 120.84 113.807 120.12ZM118.891 133V123.52H120.691V124.98H120.731C121.191 123.98 122.391 123.28 123.851 123.28C125.691 123.28 127.291 124.38 127.291 126.9V133H125.491V127.4C125.491 125.62 124.471 124.96 123.331 124.96C121.831 124.96 120.691 125.92 120.691 128.12V133H118.891ZM139.505 123.52V132.92C139.505 135.78 137.425 137.8 134.325 137.8C132.525 137.8 131.025 137.34 129.685 136.1L130.905 134.58C131.845 135.58 132.905 136.12 134.285 136.12C136.965 136.12 137.705 134.44 137.705 132.84V131.44H137.645C136.965 132.58 135.665 133.12 134.365 133.12C131.585 133.12 129.525 131.02 129.545 128.26C129.545 125.46 131.425 123.28 134.365 123.28C135.645 123.28 136.965 123.86 137.665 124.88H137.705V123.52H139.505ZM134.585 124.96C132.665 124.96 131.465 126.34 131.465 128.26C131.465 130.18 132.665 131.44 134.585 131.44C136.505 131.44 137.705 130.18 137.705 128.26C137.705 126.34 136.505 124.96 134.585 124.96Z" fill="white"/>
<defs>
<linearGradient id="paint0_linear_998_1782" x1="-1.40421e-06" y1="6.6037" x2="152.435" y2="153.536" gradientUnits="userSpaceOnUse">
<stop stop-color="#80C804"/>
<stop offset="0.501884" stop-color="#191970"/>
</linearGradient>
</defs>
</svg>
