<svg width="161" height="161" viewBox="0 0 161 161" fill="none" xmlns="http://www.w3.org/2000/svg">
<rect width="160.69" height="160.69" fill="url(#paint0_linear_998_1762)"/>
<path d="M55.2507 63.1287V77.18" stroke="white" stroke-width="1.5" stroke-miterlimit="10"/>
<path d="M68.4265 63.1287V77.18" stroke="white" stroke-width="1.5" stroke-miterlimit="10"/>
<path d="M61.8385 69.6117C65.4769 69.6117 68.4264 66.7091 68.4264 63.1285C68.4264 59.5479 65.4769 56.6453 61.8385 56.6453C58.2002 56.6453 55.2507 59.5479 55.2507 63.1285C55.2507 66.7091 58.2002 69.6117 61.8385 69.6117Z" stroke="white" stroke-width="1.5" stroke-miterlimit="10"/>
<path d="M88.2166 44.7378V52.3059H94.8044V44.7378" stroke="white" stroke-width="1.5" stroke-miterlimit="10"/>
<path d="M91.5104 45.8228C94.5473 45.8228 97.0091 43.4 97.0091 40.4114C97.0091 37.4228 94.5473 35 91.5104 35C88.4736 35 86.0117 37.4228 86.0117 40.4114C86.0117 43.4 88.4736 45.8228 91.5104 45.8228Z" stroke="white" stroke-width="1.5" stroke-miterlimit="10"/>
<path d="M94.8042 52.3058H95.9066L99.2005 55.5605L95.9066 59.887" stroke="white" stroke-width="1.5" stroke-miterlimit="10"/>
<path d="M88.2164 52.3058H87.114L83.8201 55.5605L87.114 59.887" stroke="white" stroke-width="1.5" stroke-miterlimit="10"/>
<path d="M68.4264 46.9074C71.4633 46.9074 73.9251 44.4846 73.9251 41.496C73.9251 38.5074 71.4633 36.0846 68.4264 36.0846C65.3896 36.0846 62.9277 38.5074 62.9277 41.496C62.9277 44.4846 65.3896 46.9074 68.4264 46.9074Z" stroke="white" stroke-width="1.5" stroke-miterlimit="10"/>
<path d="M87.1141 37.1698H71.7336" stroke="white" stroke-width="1.5" stroke-miterlimit="10"/>
<path d="M87.114 43.6527H73.925" stroke="white" stroke-width="1.5" stroke-miterlimit="10"/>
<path d="M70.6313 46.9075L67.3374 58.8021" stroke="white" stroke-width="1.5" stroke-miterlimit="10"/>
<path d="M62.941 43.6527L58.5447 56.6322" stroke="white" stroke-width="1.5" stroke-miterlimit="10"/>
<path d="M92.6128 63.1287H84.9226V67.4552H92.6128V63.1287Z" stroke="white" stroke-width="1.5" stroke-miterlimit="10"/>
<path d="M80.5129 63.1287H73.925V67.4552H80.5129V63.1287Z" stroke="white" stroke-width="1.5" stroke-miterlimit="10"/>
<path d="M104.699 63.1287H97.009V67.4552H104.699V63.1287Z" stroke="white" stroke-width="1.5" stroke-miterlimit="10"/>
<path d="M70.6311 67.4552H106.891" stroke="white" stroke-width="1.5" stroke-miterlimit="10"/>
<path d="M39.9743 105V90.84H41.8943V105H39.9743ZM45.0807 105V95.52H46.8807V96.98H46.9207C47.3807 95.98 48.5807 95.28 50.0407 95.28C51.8807 95.28 53.4807 96.38 53.4807 98.9V105H51.6807V99.4C51.6807 97.62 50.6607 96.96 49.5207 96.96C48.0207 96.96 46.8807 97.92 46.8807 100.12V105H45.0807ZM65.694 89.88V105H63.894V103.64H63.854C63.154 104.66 61.834 105.24 60.554 105.24C57.614 105.24 55.734 103.06 55.734 100.26C55.734 97.42 57.634 95.28 60.554 95.28C61.914 95.28 63.214 95.9 63.854 96.88H63.894V89.88H65.694ZM60.774 103.56C62.694 103.56 63.894 102.18 63.894 100.26C63.894 98.34 62.694 96.96 60.774 96.96C58.854 96.96 57.654 98.34 57.654 100.26C57.654 102.18 58.854 103.56 60.774 103.56ZM76.8205 95.52V105H75.0205V103.54H74.9805C74.5205 104.54 73.3205 105.24 71.8605 105.24C70.0205 105.24 68.4205 104.14 68.4205 101.62V95.52H70.2205V101.12C70.2205 102.9 71.2405 103.56 72.3805 103.56C73.8805 103.56 75.0205 102.6 75.0205 100.4V95.52H76.8205ZM85.9738 96.84L84.5738 97.9C84.1538 97.38 83.5338 96.96 82.6338 96.96C81.7938 96.96 81.0538 97.34 81.0538 98.02C81.0538 99.16 82.6738 99.32 83.4738 99.5C85.0338 99.88 86.2338 100.48 86.2338 102.26C86.2338 104.4 84.2738 105.24 82.3938 105.24C80.8338 105.24 79.6738 104.84 78.7338 103.56L80.0938 102.44C80.6738 103.02 81.3538 103.56 82.3938 103.56C83.3138 103.56 84.3138 103.18 84.3138 102.36C84.3138 101.28 82.8138 101.08 82.0338 100.9C80.4938 100.52 79.1338 100.02 79.1338 98.2C79.1338 96.22 80.9538 95.28 82.7338 95.28C83.9938 95.28 85.2938 95.72 85.9738 96.84ZM93.5005 95.52V97.08H90.9205V101.38C90.9205 102.44 90.9205 103.56 92.2805 103.56C92.7005 103.56 93.2005 103.5 93.5605 103.28V104.92C93.1405 105.16 92.3005 105.24 91.9405 105.24C89.1605 105.24 89.1205 103.54 89.1205 102.02V97.08H87.0405V95.52H89.1205V92.86H90.9205V95.52H93.5005ZM95.8229 105V95.52H97.6229V96.98H97.6629C98.1229 95.98 99.3229 95.28 100.503 95.28C100.783 95.28 101.063 95.32 101.303 95.4L101.223 97.34C100.923 97.26 100.623 97.2 100.343 97.2C98.5829 97.2 97.6229 98.16 97.6229 100.24V105H95.8229ZM103.365 105V95.52H105.165V105H103.365ZM102.945 92.12C102.945 91.4 103.545 90.8 104.265 90.8C104.985 90.8 105.585 91.4 105.585 92.12C105.585 92.84 104.985 93.44 104.265 93.44C103.545 93.44 102.945 92.84 102.945 92.12ZM109.15 97.8L108.07 96.68C109.07 95.74 110.51 95.28 111.83 95.28C114.63 95.28 115.79 96.8 115.79 98.44V103.28C115.79 103.94 115.81 104.5 115.87 105H114.27C114.23 104.52 114.21 104.04 114.21 103.56H114.17C113.37 104.78 112.29 105.24 110.85 105.24C109.09 105.24 107.57 104.24 107.57 102.4C107.57 99.96 109.91 99.12 112.79 99.12H114.11V98.72C114.11 97.74 113.39 96.72 111.85 96.72C110.47 96.72 109.81 97.3 109.15 97.8ZM114.11 100.44H113.15C111.45 100.44 109.37 100.74 109.37 102.26C109.37 103.34 110.17 103.8 111.41 103.8C113.41 103.8 114.11 102.32 114.11 101.04V100.44ZM118.541 105V89.88H120.341V105H118.541ZM26.4848 133L32.7248 118.84H34.4648L40.5248 133H38.2848L36.8648 129.5H30.1248L28.7248 133H26.4848ZM30.8048 127.82H36.1648L33.5248 121.32H33.4848L30.8048 127.82ZM50.3069 123.52V133H48.5069V131.54H48.4669C48.0069 132.54 46.8069 133.24 45.3469 133.24C43.5069 133.24 41.9069 132.14 41.9069 129.62V123.52H43.7069V129.12C43.7069 130.9 44.7269 131.56 45.8669 131.56C47.3669 131.56 48.5069 130.6 48.5069 128.4V123.52H50.3069ZM58.1002 123.52V125.08H55.5202V129.38C55.5202 130.44 55.5202 131.56 56.8802 131.56C57.3002 131.56 57.8002 131.5 58.1602 131.28V132.92C57.7402 133.16 56.9002 133.24 56.5402 133.24C53.7602 133.24 53.7202 131.54 53.7202 130.02V125.08H51.6402V123.52H53.7202V120.86H55.5202V123.52H58.1002ZM61.8825 128.26C61.8825 130.18 63.0825 131.56 65.0025 131.56C66.9225 131.56 68.1225 130.18 68.1225 128.26C68.1225 126.34 66.9225 124.96 65.0025 124.96C63.0825 124.96 61.8825 126.34 61.8825 128.26ZM59.9625 128.26C59.9625 125.5 62.1825 123.28 65.0025 123.28C67.8225 123.28 70.0425 125.5 70.0425 128.26C70.0425 131.02 67.8225 133.24 65.0025 133.24C62.1825 133.24 59.9625 131.02 59.9625 128.26ZM72.2975 133V123.52H73.9775V125H74.0175C74.1975 124.44 75.3575 123.28 77.0575 123.28C78.4575 123.28 79.4175 123.88 80.0175 125.04C80.6375 123.88 81.8775 123.28 83.0175 123.28C85.9375 123.28 86.6175 125.36 86.6175 127.48V133H84.8175V127.72C84.8175 126.28 84.5175 124.96 82.7775 124.96C81.0375 124.96 80.3575 126.14 80.3575 127.82V133H78.5575V128.04C78.5575 126.24 78.2975 124.96 76.5575 124.96C75.2575 124.96 74.0975 125.94 74.0975 128.08V133H72.2975ZM90.4488 125.8L89.3688 124.68C90.3688 123.74 91.8088 123.28 93.1288 123.28C95.9288 123.28 97.0888 124.8 97.0888 126.44V131.28C97.0888 131.94 97.1088 132.5 97.1688 133H95.5688C95.5288 132.52 95.5088 132.04 95.5088 131.56H95.4688C94.6688 132.78 93.5888 133.24 92.1488 133.24C90.3888 133.24 88.8688 132.24 88.8688 130.4C88.8688 127.96 91.2088 127.12 94.0888 127.12H95.4088V126.72C95.4088 125.74 94.6888 124.72 93.1488 124.72C91.7688 124.72 91.1088 125.3 90.4488 125.8ZM95.4088 128.44H94.4488C92.7488 128.44 90.6688 128.74 90.6688 130.26C90.6688 131.34 91.4688 131.8 92.7088 131.8C94.7088 131.8 95.4088 130.32 95.4088 129.04V128.44ZM104.78 123.52V125.08H102.2V129.38C102.2 130.44 102.2 131.56 103.56 131.56C103.98 131.56 104.48 131.5 104.84 131.28V132.92C104.42 133.16 103.58 133.24 103.22 133.24C100.44 133.24 100.4 131.54 100.4 130.02V125.08H98.3198V123.52H100.4V120.86H102.2V123.52H104.78ZM107.242 133V123.52H109.042V133H107.242ZM106.822 120.12C106.822 119.4 107.422 118.8 108.142 118.8C108.862 118.8 109.462 119.4 109.462 120.12C109.462 120.84 108.862 121.44 108.142 121.44C107.422 121.44 106.822 120.84 106.822 120.12ZM113.367 128.26C113.367 130.18 114.567 131.56 116.487 131.56C118.407 131.56 119.607 130.18 119.607 128.26C119.607 126.34 118.407 124.96 116.487 124.96C114.567 124.96 113.367 126.34 113.367 128.26ZM111.447 128.26C111.447 125.5 113.667 123.28 116.487 123.28C119.307 123.28 121.527 125.5 121.527 128.26C121.527 131.02 119.307 133.24 116.487 133.24C113.667 133.24 111.447 131.02 111.447 128.26ZM123.782 133V123.52H125.582V124.98H125.622C126.082 123.98 127.282 123.28 128.742 123.28C130.582 123.28 132.182 124.38 132.182 126.9V133H130.382V127.4C130.382 125.62 129.362 124.96 128.222 124.96C126.722 124.96 125.582 125.92 125.582 128.12V133H123.782Z" fill="white"/>
<defs>
<linearGradient id="paint0_linear_998_1762" x1="-1.40421e-06" y1="6.6037" x2="152.435" y2="153.536" gradientUnits="userSpaceOnUse">
<stop stop-color="#80C804"/>
<stop offset="0.501884" stop-color="#191970"/>
</linearGradient>
</defs>
</svg>
