<svg width="161" height="161" viewBox="0 0 161 161" fill="none" xmlns="http://www.w3.org/2000/svg">
<rect width="160.69" height="160.69" fill="url(#paint0_linear_998_1296)"/>
<path d="M58.2437 36.3303C58.2437 35.5471 58.8786 34.9121 59.6618 34.9121H101.469C102.252 34.9121 102.887 35.5471 102.887 36.3303V75.6693C102.887 76.4526 102.252 77.0875 101.469 77.0875H59.6618C58.8786 77.0875 58.2437 76.4526 58.2437 75.6693V36.3303Z" stroke="white" stroke-width="1.5"/>
<path d="M87.73 49.2283C87.73 48.4329 88.3748 47.7881 89.1702 47.7881H93.6478C94.4433 47.7881 95.0881 48.4329 95.0881 49.2283V61.6426H87.73V49.2283Z" stroke="white" stroke-width="1.5"/>
<path d="M87.0161 62.6216C87.0161 62.0809 87.4545 61.6426 87.9952 61.6426H94.8215C95.3623 61.6426 95.8006 62.0809 95.8006 62.6216V63.2325C95.8006 63.7732 95.3623 64.2115 94.8215 64.2115H87.9952C87.4545 64.2115 87.0161 63.7732 87.0161 63.2325V62.6216Z" stroke="white" stroke-width="1.5"/>
<path d="M84.2437 62.7712C84.2437 63.5666 83.5988 64.2114 82.8034 64.2114H78.3258C77.5304 64.2114 76.8855 63.5666 76.8855 62.7712V50.3569H84.2437V62.7712Z" stroke="white" stroke-width="1.5"/>
<path d="M84.9565 49.3784C84.9565 49.9191 84.5182 50.3574 83.9775 50.3574L77.1511 50.3574C76.6104 50.3574 76.1721 49.9191 76.1721 49.3784L76.1721 48.7675C76.1721 48.2268 76.6104 47.7885 77.1511 47.7885L83.9775 47.7885C84.5182 47.7885 84.9565 48.2268 84.9565 48.7675L84.9565 49.3784Z" stroke="white" stroke-width="1.5"/>
<path d="M66.0425 49.2283C66.0425 48.4329 66.6873 47.7881 67.4827 47.7881H71.9603C72.7558 47.7881 73.4006 48.4329 73.4006 49.2283V61.6426H66.0425V49.2283Z" stroke="white" stroke-width="1.5"/>
<path d="M65.3296 62.6216C65.3296 62.0809 65.7679 61.6426 66.3086 61.6426H73.135C73.6757 61.6426 74.1141 62.0809 74.1141 62.6216V63.2325C74.1141 63.7732 73.6757 64.2115 73.135 64.2115H66.3086C65.7679 64.2115 65.3296 63.7732 65.3296 63.2325V62.6216Z" stroke="white" stroke-width="1.5"/>
<rect x="58.2437" y="42.7402" width="44.6433" height="26.5191" stroke="white" stroke-width="1.5"/>
<path d="M23.6104 118.618L25.4274 117.054C26.2094 118.25 27.5664 118.802 28.8774 118.802C30.3264 118.802 32.1204 117.882 32.1204 116.088C32.1204 112.339 24.0934 114.662 24.0934 108.314C24.0934 106.405 25.7034 103.76 29.6134 103.76C31.3844 103.76 33.0864 104.128 34.3054 105.623L32.5114 107.256C31.9594 106.405 30.8784 105.83 29.6134 105.83C27.1754 105.83 26.4394 107.302 26.4394 108.314C26.4394 112.431 34.4664 109.97 34.4664 115.835C34.4664 118.986 31.9364 120.872 28.8084 120.872C26.7154 120.872 24.7144 120.159 23.6104 118.618ZM39.4727 120.458L35.8847 109.556H38.2077L40.6687 117.698H40.7147L43.3137 109.556H45.4987L48.2587 117.698H48.3047L50.6507 109.556H52.8357L49.3167 120.458H47.2237L44.3487 112.316H44.3027L41.7037 120.458H39.4727ZM54.8089 120.458V109.556H56.8789V120.458H54.8089ZM54.3259 105.646C54.3259 104.818 55.0159 104.128 55.8439 104.128C56.6719 104.128 57.3619 104.818 57.3619 105.646C57.3619 106.474 56.6719 107.164 55.8439 107.164C55.0159 107.164 54.3259 106.474 54.3259 105.646ZM66.0153 109.556V111.35H63.0483V116.295C63.0483 117.514 63.0483 118.802 64.6123 118.802C65.0953 118.802 65.6703 118.733 66.0843 118.48V120.366C65.6013 120.642 64.6353 120.734 64.2213 120.734C61.0243 120.734 60.9783 118.779 60.9783 117.031V111.35H58.5863V109.556H60.9783V106.497H63.0483V109.556H66.0153ZM78.0469 111.028L76.4829 112.454C75.7239 111.649 74.9189 111.235 73.7689 111.235C71.5149 111.235 70.3649 113.052 70.3649 115.099C70.3649 117.146 71.7449 118.802 73.8839 118.802C75.0339 118.802 75.8389 118.388 76.5289 117.583L78.0009 119.055C76.9199 120.251 75.4479 120.734 73.8609 120.734C70.5029 120.734 68.1569 118.411 68.1569 115.053C68.1569 111.695 70.4569 109.303 73.8609 109.303C75.4479 109.303 76.9659 109.855 78.0469 111.028ZM79.7817 120.458V103.07H81.8517V111.235H81.8977C82.4267 110.085 83.8067 109.28 85.4857 109.28C87.6017 109.28 89.4417 110.545 89.4417 113.443V120.458H87.3717V114.018C87.3717 111.971 86.1987 111.212 84.8877 111.212C83.1627 111.212 81.8517 112.316 81.8517 114.846V120.458H79.7817ZM103.487 109.556V120.366C103.487 123.655 101.095 125.978 97.5299 125.978C95.4599 125.978 93.7349 125.449 92.1939 124.023L93.5969 122.275C94.6779 123.425 95.8969 124.046 97.4839 124.046C100.566 124.046 101.417 122.114 101.417 120.274V118.664H101.348C100.566 119.975 99.0709 120.596 97.5759 120.596C94.3789 120.596 92.0099 118.181 92.0329 115.007C92.0329 111.787 94.1949 109.28 97.5759 109.28C99.0479 109.28 100.566 109.947 101.371 111.12H101.417V109.556H103.487ZM97.8289 111.212C95.6209 111.212 94.2409 112.799 94.2409 115.007C94.2409 117.215 95.6209 118.664 97.8289 118.664C100.037 118.664 101.417 117.215 101.417 115.007C101.417 112.799 100.037 111.212 97.8289 111.212ZM116.926 115.766H108.186C108.186 117.675 109.957 118.94 111.866 118.94C113.131 118.94 114.051 118.296 114.856 117.307L116.42 118.503C115.27 119.998 113.683 120.734 111.59 120.734C108.14 120.734 105.978 118.25 105.978 115.007C105.978 111.741 108.347 109.28 111.613 109.28C115.454 109.28 116.926 112.224 116.926 115.03V115.766ZM108.186 114.11H114.718C114.672 112.293 113.66 110.936 111.567 110.936C109.52 110.936 108.186 112.661 108.186 114.11ZM120.691 112.178L119.449 110.89C120.599 109.809 122.255 109.28 123.773 109.28C126.993 109.28 128.327 111.028 128.327 112.914V118.48C128.327 119.239 128.35 119.883 128.419 120.458H126.579C126.533 119.906 126.51 119.354 126.51 118.802H126.464C125.544 120.205 124.302 120.734 122.646 120.734C120.622 120.734 118.874 119.584 118.874 117.468C118.874 114.662 121.565 113.696 124.877 113.696H126.395V113.236C126.395 112.109 125.567 110.936 123.796 110.936C122.209 110.936 121.45 111.603 120.691 112.178ZM126.395 115.214H125.291C123.336 115.214 120.944 115.559 120.944 117.307C120.944 118.549 121.864 119.078 123.29 119.078C125.59 119.078 126.395 117.376 126.395 115.904V115.214ZM131.33 120.458V109.556H133.4V111.235H133.446C133.975 110.085 135.355 109.28 136.712 109.28C137.034 109.28 137.356 109.326 137.632 109.418L137.54 111.649C137.195 111.557 136.85 111.488 136.528 111.488C134.504 111.488 133.4 112.592 133.4 114.984V120.458H131.33Z" fill="white"/>
<defs>
<linearGradient id="paint0_linear_998_1296" x1="-1.40421e-06" y1="6.6037" x2="152.435" y2="153.536" gradientUnits="userSpaceOnUse">
<stop stop-color="#FF0000"/>
<stop offset="0.501884" stop-color="#191970"/>
</linearGradient>
</defs>
</svg>
