<svg width="98" height="22" viewBox="0 0 98 22" fill="none" xmlns="http://www.w3.org/2000/svg">
<path d="M0.528691 0.253906C0.200902 0.518252 0 0.983499 0 1.60735V19.8842C0 20.508 0.200902 20.9733 0.528691 21.2376L10.9968 10.7431L0.528691 0.253906Z" fill="url(#paint0_linear_55_4594)"/>
<path d="M14.5228 7.21659L2.32058 0.311893C1.60156 -0.100486 0.95656 -0.089912 0.52832 0.253737L10.9964 10.7482L14.5175 7.21659H14.5228Z" fill="url(#paint1_linear_55_4594)"/>
<path d="M0.52832 21.2374C0.95656 21.5811 1.60156 21.5864 2.32587 21.1793L14.5228 14.2746L11.0017 10.7429L0.52832 21.2374Z" fill="url(#paint2_linear_55_4594)"/>
<path d="M19.3817 10.5685C19.3235 10.2142 19.0803 9.86529 18.6627 9.57451C18.5939 9.52693 18.5199 9.47935 18.4406 9.43177L14.523 7.21655L11.002 10.7482L14.523 14.2799L18.4406 12.0646C19.1596 11.6576 19.4716 11.1077 19.3817 10.5685Z" fill="url(#paint3_linear_55_4594)"/>
<path d="M26.9148 5.75751C27.3166 5.98485 27.7607 6.10116 28.2471 6.10116C28.7071 6.10116 29.1248 5.99542 29.5054 5.78923C29.8808 5.58304 30.1874 5.29755 30.4148 4.93804C30.6474 4.57853 30.7796 4.1873 30.8219 3.75377V3.22508H27.9987V3.78021H30.0923C30.0394 4.30361 29.8438 4.71599 29.5107 5.02263C29.1776 5.32927 28.76 5.48259 28.2471 5.48259C27.8823 5.48259 27.5493 5.398 27.2585 5.22882C26.9624 5.05964 26.7351 4.82173 26.5659 4.5098C26.3967 4.19787 26.3121 3.83836 26.3121 3.42598C26.3121 3.0136 26.3967 2.65409 26.5659 2.33688C26.7351 2.02495 26.9624 1.78175 27.2585 1.61257C27.5546 1.44339 27.8823 1.3588 28.2471 1.3588C28.6119 1.3588 28.9344 1.44339 29.2094 1.61257C29.4843 1.78175 29.6957 2.01967 29.8438 2.32102H30.6633C30.4676 1.81876 30.1557 1.43282 29.7275 1.15261C29.2992 0.877694 28.8075 0.740234 28.2471 0.740234C27.7607 0.740234 27.3166 0.856546 26.9148 1.08388C26.513 1.31122 26.1958 1.62843 25.9632 2.04081C25.7306 2.4479 25.6143 2.90787 25.6143 3.4207C25.6143 3.93353 25.7306 4.39349 25.9632 4.79529C26.1958 5.20238 26.513 5.5196 26.9148 5.74693V5.75751Z" fill="white"/>
<path d="M31.7207 6.05361H34.5439V5.48791H32.408V3.68507H34.3166V3.11938H32.408V1.36941H34.5439V0.803711H31.7207V6.05361Z" fill="white"/>
<path d="M36.6959 6.05369H37.3779V1.36949H38.8053V0.809082H35.2578V1.36949H36.6959V6.05369Z" fill="white"/>
<path d="M42.3422 0.809082H41.6602V6.05369H42.3422V0.809082Z" fill="white"/>
<path d="M44.6207 6.05369H45.308V1.36949H46.7354V0.809082H43.1826V1.36949H44.6207V6.05369Z" fill="white"/>
<path d="M53.3025 5.76288C53.7043 5.53554 54.0215 5.21833 54.2489 4.81124C54.4815 4.40414 54.5925 3.94418 54.5925 3.42607C54.5925 2.90795 54.4762 2.44799 54.2489 2.0409C54.0162 1.63381 53.7043 1.31659 53.3025 1.08925C52.9007 0.861917 52.4566 0.745605 51.9649 0.745605C51.4732 0.745605 51.0344 0.861917 50.6326 1.08925C50.2308 1.31659 49.9136 1.63381 49.681 2.04618C49.4483 2.45328 49.332 2.91324 49.332 3.42607C49.332 3.9389 49.4483 4.39886 49.681 4.80595C49.9136 5.21304 50.2308 5.53554 50.6326 5.76288C51.0344 5.99022 51.4785 6.10653 51.9649 6.10653C52.4513 6.10653 52.9007 5.99022 53.3025 5.76288ZM50.2837 4.52574C50.1145 4.20853 50.0299 3.84373 50.0299 3.42607C50.0299 3.0084 50.1145 2.63832 50.2837 2.32639C50.4529 2.01446 50.6802 1.77127 50.971 1.60208C51.2618 1.4329 51.5948 1.34831 51.9649 1.34831C52.335 1.34831 52.6681 1.4329 52.9588 1.60208C53.2496 1.77127 53.477 2.01446 53.6461 2.32639C53.8153 2.63832 53.8999 3.0084 53.8999 3.42607C53.8999 3.84373 53.8153 4.20853 53.6461 4.52574C53.477 4.84296 53.2496 5.08615 52.9536 5.25534C52.6628 5.42452 52.3297 5.50911 51.9649 5.50911C51.6001 5.50911 51.267 5.42452 50.9763 5.25534C50.6802 5.08615 50.4529 4.84296 50.2837 4.52574Z" fill="white"/>
<path d="M59.6199 0.803711H58.9379V4.96979L56.1834 0.803711H55.4961V6.05361H56.1834V1.87695L58.9379 6.05361H59.6199V0.803711Z" fill="white"/>
<path d="M29.4794 13.7671H32.8683C32.7784 14.613 32.4665 15.2844 31.9272 15.7814C31.388 16.2784 30.706 16.5269 29.8759 16.5269C29.2838 16.5269 28.7498 16.3894 28.274 16.1198C27.7982 15.8448 27.4228 15.4589 27.1532 14.9566C26.8782 14.4544 26.7461 13.8675 26.7461 13.2014C26.7461 12.5352 26.8835 11.9484 27.1532 11.4408C27.4281 10.9333 27.7982 10.5421 28.274 10.2724C28.7498 9.99752 29.2838 9.86535 29.8759 9.86535C30.468 9.86535 30.9914 10.0028 31.4355 10.2724C31.8849 10.5474 32.2233 10.928 32.4612 11.425H33.7882C33.471 10.6108 32.9635 9.98166 32.2709 9.53228C31.5783 9.08289 30.7747 8.86084 29.8759 8.86084C29.0882 8.86084 28.3691 9.04588 27.7189 9.41596C27.0686 9.78605 26.5557 10.3042 26.1751 10.965C25.7944 11.6259 25.6094 12.3713 25.6094 13.2014C25.6094 14.0314 25.7997 14.7769 26.1751 15.4325C26.5557 16.0933 27.0686 16.6062 27.7189 16.9762C28.3691 17.3463 29.0882 17.5314 29.8759 17.5314C30.6214 17.5314 31.3034 17.3622 31.9114 17.0238C32.5194 16.6855 33.011 16.2255 33.3864 15.6439C33.7618 15.0624 33.9785 14.4227 34.0473 13.7248V12.8736H29.4741V13.7777L29.4794 13.7671Z" fill="white"/>
<path d="M40.2011 11.076C39.6882 10.7958 39.1173 10.6531 38.4828 10.6531C37.8484 10.6531 37.2774 10.7958 36.7646 11.076C36.2518 11.3562 35.8499 11.758 35.5486 12.2814C35.2525 12.8048 35.1045 13.4076 35.1045 14.0949C35.1045 14.7821 35.2472 15.3954 35.538 15.9188C35.8288 16.4422 36.2253 16.8493 36.7329 17.1348C37.2404 17.4203 37.8061 17.5631 38.4352 17.5631C39.0644 17.5631 39.6459 17.4203 40.1693 17.1348C40.6875 16.8493 41.0998 16.4475 41.4065 15.9188C41.7131 15.3954 41.8664 14.7874 41.8664 14.0949C41.8664 13.4023 41.7184 12.7996 41.4223 12.2762C41.1263 11.758 40.7192 11.3562 40.2064 11.076H40.2011ZM40.402 15.4589C40.1852 15.8342 39.905 16.1144 39.5561 16.2995C39.2071 16.4845 38.8318 16.5797 38.4352 16.5797C38.0387 16.5797 37.6686 16.4898 37.3356 16.3048C37.0025 16.1197 36.7381 15.8448 36.5372 15.4694C36.3363 15.0941 36.2359 14.6341 36.2359 14.0896C36.2359 13.545 36.3363 13.0956 36.5425 12.7255C36.7434 12.3502 37.0184 12.0753 37.3514 11.8902C37.6898 11.7052 38.0599 11.6153 38.467 11.6153C38.8741 11.6153 39.2336 11.7052 39.5772 11.8902C39.9209 12.0753 40.1958 12.3502 40.4073 12.7255C40.6187 13.1009 40.7245 13.5556 40.7245 14.0896C40.7245 14.6235 40.6187 15.0835 40.402 15.4536V15.4589Z" fill="white"/>
<path d="M48.0048 11.076C47.492 10.7958 46.921 10.6531 46.2865 10.6531C45.6521 10.6531 45.0811 10.7958 44.5683 11.076C44.0555 11.3562 43.6537 11.758 43.3523 12.2814C43.0562 12.8048 42.9082 13.4076 42.9082 14.0949C42.9082 14.7821 43.0509 15.3954 43.3417 15.9188C43.6325 16.4422 44.029 16.8493 44.5366 17.1348C45.0441 17.4203 45.6098 17.5631 46.239 17.5631C46.8681 17.5631 47.4497 17.4203 47.9731 17.1348C48.4912 16.8493 48.9036 16.4475 49.2102 15.9188C49.5168 15.3954 49.6702 14.7874 49.6702 14.0949C49.6702 13.4023 49.5221 12.7996 49.2261 12.2762C48.93 11.758 48.5229 11.3562 48.0101 11.076H48.0048ZM48.2057 15.4589C47.9889 15.8342 47.7087 16.1144 47.3598 16.2995C47.0108 16.4845 46.6355 16.5797 46.239 16.5797C45.8424 16.5797 45.4723 16.4898 45.1393 16.3048C44.8062 16.1197 44.5419 15.8448 44.341 15.4694C44.1401 15.0941 44.0449 14.6341 44.0449 14.0896C44.0449 13.545 44.1453 13.0956 44.3515 12.7255C44.5524 12.3502 44.8273 12.0753 45.1604 11.8902C45.4988 11.7052 45.8689 11.6153 46.276 11.6153C46.6831 11.6153 47.0426 11.7052 47.3862 11.8902C47.7299 12.0753 48.0048 12.3502 48.2163 12.7255C48.4277 13.1009 48.5335 13.5556 48.5335 14.0896C48.5335 14.6235 48.4277 15.0835 48.211 15.4536L48.2057 15.4589Z" fill="white"/>
<path d="M56.3738 11.9854C56.1623 11.6047 55.8398 11.2875 55.4063 11.0337C54.9728 10.78 54.4652 10.6531 53.8889 10.6531C53.3127 10.6531 52.7575 10.7958 52.2711 11.0813C51.7848 11.3668 51.4094 11.7686 51.1292 12.2814C50.8543 12.7996 50.7168 13.397 50.7168 14.079C50.7168 14.761 50.8543 15.3531 51.1292 15.8818C51.4041 16.4105 51.7848 16.8229 52.2711 17.1137C52.7523 17.4045 53.2915 17.5525 53.8889 17.5525C54.4864 17.5525 54.9728 17.4203 55.401 17.1613C55.8345 16.9022 56.157 16.5744 56.3791 16.1832V17.5842C56.3791 18.2768 56.1835 18.8108 55.7975 19.1967C55.4116 19.5774 54.9146 19.7677 54.3013 19.7677C53.7621 19.7677 53.3074 19.6461 52.9214 19.3976C52.5408 19.1491 52.287 18.8213 52.1654 18.4143H51.0657C51.1715 19.128 51.5151 19.6937 52.102 20.1114C52.6888 20.5237 53.4184 20.7352 54.296 20.7352C54.9357 20.7352 55.5014 20.603 55.9826 20.3334C56.4637 20.0638 56.839 19.6937 57.0981 19.2179C57.3572 18.742 57.4893 18.1975 57.4893 17.5895V10.7588H56.3685V11.9801L56.3738 11.9854ZM56.0671 15.4166C55.8662 15.7972 55.5913 16.0827 55.2424 16.2836C54.8987 16.4845 54.5181 16.585 54.1004 16.585C53.6828 16.585 53.3074 16.4845 52.9637 16.2836C52.6201 16.0827 52.3504 15.7972 52.1443 15.4166C51.9434 15.0359 51.8376 14.5918 51.8376 14.079C51.8376 13.5662 51.9381 13.1379 52.1443 12.7626C52.3452 12.3872 52.6201 12.1017 52.9637 11.9114C53.3074 11.7157 53.6828 11.6206 54.1004 11.6206C54.5181 11.6206 54.8935 11.721 55.2424 11.9219C55.586 12.1228 55.861 12.4083 56.0671 12.7837C56.268 13.1591 56.3738 13.5979 56.3738 14.1001C56.3738 14.6024 56.2733 15.0465 56.0671 15.4219V15.4166Z" fill="white"/>
<path d="M60.4813 8.42212H59.3711V17.4469H60.4813V8.42212Z" fill="white"/>
<path d="M66.948 11.0708C66.4616 10.7959 65.9012 10.6584 65.2668 10.6584C64.6324 10.6584 64.0402 10.8012 63.5433 11.0814C63.041 11.3616 62.6551 11.7634 62.3802 12.2815C62.1052 12.7996 61.9678 13.4076 61.9678 14.1002C61.9678 14.7928 62.1105 15.4008 62.396 15.9242C62.6815 16.4476 63.0727 16.8547 63.575 17.1402C64.0772 17.4257 64.6429 17.5684 65.2774 17.5684C66.0757 17.5684 66.7418 17.3675 67.2758 16.9657C67.8151 16.5639 68.1693 16.0405 68.3491 15.4008H67.1542C67.0221 15.7762 66.8 16.0722 66.4775 16.2996C66.155 16.5216 65.7532 16.6327 65.2774 16.6327C64.6905 16.6327 64.1936 16.4476 63.7812 16.0775C63.3688 15.7074 63.1468 15.1946 63.1045 14.5337H68.4442C68.4707 14.2958 68.4812 14.0738 68.4812 13.8623C68.4812 13.2543 68.3491 12.7045 68.0847 12.2234C67.8204 11.7423 67.445 11.3616 66.9586 11.0814L66.948 11.0708ZM63.1045 13.6191C63.1626 12.9847 63.3847 12.4877 63.7812 12.1335C64.1777 11.774 64.6535 11.5995 65.2139 11.5995C65.6052 11.5995 65.9594 11.6788 66.2819 11.8374C66.6044 11.996 66.8582 12.2287 67.0432 12.53C67.2282 12.8367 67.3234 13.2014 67.3234 13.6191H63.1045Z" fill="white"/>
<path d="M75.9353 8.95068H73.1914V17.452H74.3017V13.9045H75.9353C76.9293 13.9045 77.6641 13.6719 78.1505 13.2014C78.6316 12.7361 78.8748 12.144 78.8748 11.4408C78.8748 10.7377 78.6263 10.1138 78.1241 9.64855C77.6218 9.18331 76.8922 8.95597 75.9353 8.95597V8.95068ZM77.2993 12.5828C77.0086 12.8524 76.5486 12.9846 75.9353 12.9846H74.3017V9.86003H75.9353C77.1407 9.86003 77.7381 10.3834 77.7381 11.4355C77.7381 11.9325 77.5901 12.3132 77.2993 12.5828Z" fill="white"/>
<path d="M81.3651 8.42212H80.2549V17.4469H81.3651V8.42212Z" fill="white"/>
<path d="M88.4968 11.9854C88.2854 11.6047 87.9629 11.2875 87.5346 11.0337C87.1011 10.78 86.5935 10.6531 86.012 10.6531C85.4304 10.6531 84.8806 10.7958 84.3942 11.0813C83.9078 11.3668 83.5324 11.7686 83.2522 12.2814C82.9773 12.7996 82.8398 13.397 82.8398 14.079C82.8398 14.761 82.9773 15.3531 83.2522 15.8818C83.5271 16.4105 83.9078 16.8229 84.3889 17.1137C84.87 17.4045 85.404 17.5525 86.0014 17.5525C86.5988 17.5525 87.0852 17.4256 87.5188 17.1665C87.9523 16.9128 88.2801 16.585 88.5021 16.199V17.4415H89.6229V10.7588H88.5021V11.9801L88.4968 11.9854ZM88.1902 15.4166C87.9893 15.7972 87.7144 16.0827 87.3654 16.2836C87.0218 16.4845 86.6411 16.585 86.2235 16.585C85.8058 16.585 85.4304 16.4845 85.0868 16.2836C84.7431 16.0827 84.4735 15.7972 84.2673 15.4166C84.0664 15.0359 83.9607 14.5918 83.9607 14.079C83.9607 13.5662 84.0611 13.1379 84.2673 12.7626C84.4682 12.3872 84.7431 12.1017 85.0868 11.9114C85.4304 11.7157 85.8058 11.6206 86.2235 11.6206C86.6411 11.6206 87.0165 11.721 87.3654 11.9219C87.7091 12.1228 87.984 12.4083 88.1902 12.7837C88.3911 13.1591 88.4968 13.5979 88.4968 14.1001C88.4968 14.6024 88.3964 15.0465 88.1902 15.4219V15.4166Z" fill="white"/>
<path d="M96.1102 10.7642L94.0325 16.1832L91.9389 10.7642H90.707L93.3981 17.3781L92.0816 20.5978H93.2289L97.2522 10.7642H96.1102Z" fill="white"/>
<defs>
<linearGradient id="paint0_linear_55_4594" x1="5.45609" y1="17.8011" x2="5.50896" y2="3.38375" gradientUnits="userSpaceOnUse">
<stop stop-color="#00E3FF"/>
<stop offset="1" stop-color="#00C2FF"/>
</linearGradient>
<linearGradient id="paint1_linear_55_4594" x1="0.52832" y1="5.37146" x2="14.5228" y2="5.37146" gradientUnits="userSpaceOnUse">
<stop stop-color="#00F076"/>
<stop offset="1" stop-color="#11D574"/>
</linearGradient>
<linearGradient id="paint2_linear_55_4594" x1="0.52832" y1="16.1197" x2="14.5228" y2="16.1197" gradientUnits="userSpaceOnUse">
<stop stop-color="#FF3A44"/>
<stop offset="1" stop-color="#E02453"/>
</linearGradient>
<linearGradient id="paint3_linear_55_4594" x1="10.9967" y1="10.7482" x2="19.3923" y2="10.7482" gradientUnits="userSpaceOnUse">
<stop stop-color="#FFBB00"/>
<stop offset="1" stop-color="#FFDD00"/>
</linearGradient>
</defs>
</svg>
