<svg width="161" height="161" viewBox="0 0 161 161" fill="none" xmlns="http://www.w3.org/2000/svg">
<rect width="160.69" height="160.69" fill="url(#paint0_linear_998_1814)"/>
<path d="M17.8866 107L13.7466 92.84H15.7466L18.8666 104.16H18.9066L22.2466 92.84H24.4466L27.7866 104.16H27.8266L30.9466 92.84H32.9466L28.8266 107H26.8066L23.3666 95.44H23.3266L19.9066 107H17.8866ZM34.4648 107V97.52H36.2648V107H34.4648ZM34.0448 94.12C34.0448 93.4 34.6448 92.8 35.3648 92.8C36.0848 92.8 36.6848 93.4 36.6848 94.12C36.6848 94.84 36.0848 95.44 35.3648 95.44C34.6448 95.44 34.0448 94.84 34.0448 94.12ZM39.1295 107V97.52H40.9295V98.98H40.9695C41.4295 97.98 42.6295 97.28 43.8095 97.28C44.0895 97.28 44.3695 97.32 44.6095 97.4L44.5295 99.34C44.2295 99.26 43.9295 99.2 43.6495 99.2C41.8895 99.2 40.9295 100.16 40.9295 102.24V107H39.1295ZM46.6719 107V97.52H48.4719V107H46.6719ZM46.2519 94.12C46.2519 93.4 46.8519 92.8 47.5719 92.8C48.2919 92.8 48.8919 93.4 48.8919 94.12C48.8919 94.84 48.2919 95.44 47.5719 95.44C46.8519 95.44 46.2519 94.84 46.2519 94.12ZM51.3366 107V97.52H53.1366V98.98H53.1766C53.6366 97.98 54.8366 97.28 56.2966 97.28C58.1366 97.28 59.7366 98.38 59.7366 100.9V107H57.9366V101.4C57.9366 99.62 56.9166 98.96 55.7766 98.96C54.2766 98.96 53.1366 99.92 53.1366 102.12V107H51.3366ZM71.9498 97.52V106.92C71.9498 109.78 69.8698 111.8 66.7698 111.8C64.9698 111.8 63.4698 111.34 62.1298 110.1L63.3498 108.58C64.2898 109.58 65.3498 110.12 66.7298 110.12C69.4098 110.12 70.1498 108.44 70.1498 106.84V105.44H70.0898C69.4098 106.58 68.1098 107.12 66.8098 107.12C64.0298 107.12 61.9698 105.02 61.9898 102.26C61.9898 99.46 63.8698 97.28 66.8098 97.28C68.0898 97.28 69.4098 97.86 70.1098 98.88H70.1498V97.52H71.9498ZM67.0298 98.96C65.1098 98.96 63.9098 100.34 63.9098 102.26C63.9098 104.18 65.1098 105.44 67.0298 105.44C68.9498 105.44 70.1498 104.18 70.1498 102.26C70.1498 100.34 68.9498 98.96 67.0298 98.96ZM80.3828 107V92.84H85.3228C91.3028 92.84 92.7628 97.3 92.7628 99.92C92.7628 103.54 90.0628 107 85.0028 107H80.3828ZM82.3028 94.64V105.2H84.7228C87.9628 105.2 90.7228 103.42 90.7228 99.92C90.7228 98.12 89.7828 94.64 85.1828 94.64H82.3028ZM104.027 102.92H96.427C96.427 104.58 97.967 105.68 99.627 105.68C100.727 105.68 101.527 105.12 102.227 104.26L103.587 105.3C102.587 106.6 101.207 107.24 99.387 107.24C96.387 107.24 94.507 105.08 94.507 102.26C94.507 99.42 96.567 97.28 99.407 97.28C102.747 97.28 104.027 99.84 104.027 102.28V102.92ZM96.427 101.48H102.107C102.067 99.9 101.187 98.72 99.367 98.72C97.587 98.72 96.427 100.22 96.427 101.48ZM108.9 107L105.04 97.52H107.12L109.96 104.78L112.68 97.52H114.6L110.88 107H108.9ZM116.32 107V97.52H118.12V107H116.32ZM115.9 94.12C115.9 93.4 116.5 92.8 117.22 92.8C117.94 92.8 118.54 93.4 118.54 94.12C118.54 94.84 117.94 95.44 117.22 95.44C116.5 95.44 115.9 94.84 115.9 94.12ZM129.125 98.8L127.765 100.04C127.105 99.34 126.405 98.98 125.405 98.98C123.445 98.98 122.445 100.56 122.445 102.34C122.445 104.12 123.645 105.56 125.505 105.56C126.505 105.56 127.205 105.2 127.805 104.5L129.085 105.78C128.145 106.82 126.865 107.24 125.485 107.24C122.565 107.24 120.525 105.22 120.525 102.3C120.525 99.38 122.525 97.3 125.485 97.3C126.865 97.3 128.185 97.78 129.125 98.8ZM139.593 102.92H131.993C131.993 104.58 133.533 105.68 135.193 105.68C136.293 105.68 137.093 105.12 137.793 104.26L139.153 105.3C138.153 106.6 136.773 107.24 134.953 107.24C131.953 107.24 130.073 105.08 130.073 102.26C130.073 99.42 132.133 97.28 134.973 97.28C138.313 97.28 139.593 99.84 139.593 102.28V102.92ZM131.993 101.48H137.673C137.633 99.9 136.753 98.72 134.933 98.72C133.153 98.72 131.993 100.22 131.993 101.48ZM148.187 98.84L146.787 99.9C146.367 99.38 145.747 98.96 144.847 98.96C144.007 98.96 143.267 99.34 143.267 100.02C143.267 101.16 144.887 101.32 145.687 101.5C147.247 101.88 148.447 102.48 148.447 104.26C148.447 106.4 146.487 107.24 144.607 107.24C143.047 107.24 141.887 106.84 140.947 105.56L142.307 104.44C142.887 105.02 143.567 105.56 144.607 105.56C145.527 105.56 146.527 105.18 146.527 104.36C146.527 103.28 145.027 103.08 144.247 102.9C142.707 102.52 141.347 102.02 141.347 100.2C141.347 98.22 143.167 97.28 144.947 97.28C146.207 97.28 147.507 97.72 148.187 98.84ZM63.9946 127.7L67.2146 131H64.6346L62.8946 129.12C61.6946 130.56 60.4546 131.36 58.5546 131.36C55.3546 131.36 53.9146 129.32 53.9146 127.26C53.9146 125.28 55.4146 124.02 57.1346 123.2C56.2346 122.24 55.4746 121.3 55.4746 119.92C55.4746 117.76 57.2346 116.6 59.2546 116.6C61.2346 116.6 62.9146 117.66 62.9146 119.8C62.9146 121.58 61.3946 122.7 59.9746 123.44L62.7746 126.36L64.5546 123.46H66.7346L63.9946 127.7ZM60.9946 119.8C60.9946 118.86 60.2746 118.28 59.2746 118.28C58.2546 118.28 57.3946 118.88 57.3946 119.94C57.3946 120.88 58.1746 121.68 58.7946 122.3C59.7746 121.76 60.9946 121.08 60.9946 119.8ZM61.7546 127.88L58.3346 124.32C57.1946 124.98 55.9546 125.74 55.9546 127.2C55.9546 128.58 57.2546 129.68 58.6146 129.68C59.9946 129.68 61.0146 128.76 61.7546 127.88ZM74.5346 116.84H76.4546V125.52C76.4546 127.28 77.3346 129.56 80.0146 129.56C82.6946 129.56 83.5746 127.28 83.5746 125.52V116.84H85.4946V125.82C85.4946 129.1 83.1146 131.36 80.0146 131.36C76.9146 131.36 74.5346 129.1 74.5346 125.82V116.84ZM88.8766 131V116.84H93.8566C97.4766 116.84 98.3966 119.02 98.3966 120.8C98.3966 122.58 97.4766 124.76 93.8566 124.76H90.7966V131H88.8766ZM90.7966 118.52V123.08H93.3166C94.8366 123.08 96.3566 122.72 96.3566 120.8C96.3566 118.88 94.8366 118.52 93.3166 118.52H90.7966ZM99.5721 129.4L101.152 128.04C101.832 129.08 103.012 129.56 104.152 129.56C105.412 129.56 106.972 128.76 106.972 127.2C106.972 123.94 99.9921 125.96 99.9921 120.44C99.9921 118.78 101.392 116.48 104.792 116.48C106.332 116.48 107.812 116.8 108.872 118.1L107.312 119.52C106.832 118.78 105.892 118.28 104.792 118.28C102.672 118.28 102.032 119.56 102.032 120.44C102.032 124.02 109.012 121.88 109.012 126.98C109.012 129.72 106.812 131.36 104.092 131.36C102.272 131.36 100.532 130.74 99.5721 129.4Z" fill="white"/>
<path d="M77.3401 62.0981L74.6501 59.3307C71.5301 56.1209 71.5301 50.905 74.6501 47.6952L81.9901 40.1439L95.9901 54.5468L88.6501 62.0981C85.5301 65.3079 80.4601 65.3079 77.3401 62.0981Z" stroke="white" stroke-width="1.5" stroke-linejoin="round"/>
<path d="M93 51.4605L101 43.2302" stroke="white" stroke-width="1.5" stroke-linecap="round" stroke-linejoin="round"/>
<path d="M85 43.2302L93 35" stroke="white" stroke-width="1.5" stroke-linecap="round" stroke-linejoin="round"/>
<path d="M76 60.7195L60 77.18" stroke="white" stroke-width="1.5" stroke-linecap="round" stroke-linejoin="round"/>
<path d="M81 39.1151L82 40.1439" stroke="white" stroke-width="1.5" stroke-linecap="round" stroke-linejoin="round"/>
<path d="M96 54.5469L97 55.5757" stroke="white" stroke-width="1.5" stroke-linecap="round" stroke-linejoin="round"/>
<defs>
<linearGradient id="paint0_linear_998_1814" x1="-1.40421e-06" y1="6.6037" x2="152.435" y2="153.536" gradientUnits="userSpaceOnUse">
<stop stop-color="#80C804"/>
<stop offset="0.501884" stop-color="#191970"/>
</linearGradient>
</defs>
</svg>
