<svg width="161" height="161" viewBox="0 0 161 161" fill="none" xmlns="http://www.w3.org/2000/svg">
<rect width="160.69" height="160.69" fill="url(#paint0_linear_998_1287)"/>
<path d="M58.6519 36.3415C58.6519 35.5583 59.2868 34.9233 60.07 34.9233H101.877C102.66 34.9233 103.295 35.5583 103.295 36.3415V75.6806C103.295 76.4638 102.66 77.0987 101.877 77.0987H60.07C59.2868 77.0987 58.6519 76.4638 58.6519 75.6806V36.3415Z" stroke="white" stroke-width="1.5"/>
<path d="M84.9805 40.5761C84.9805 39.7807 85.6253 39.1358 86.4207 39.1358H96.6599C97.4553 39.1358 98.1001 39.7807 98.1001 40.5761V71.4467C98.1001 72.2421 97.4553 72.8869 96.6599 72.8869H86.4207C85.6253 72.8869 84.9805 72.2421 84.9805 71.4467V40.5761Z" stroke="white" stroke-width="1.5"/>
<path d="M76.9668 71.4466C76.9668 72.242 76.322 72.8868 75.5265 72.8868H65.2874C64.492 72.8868 63.8471 72.242 63.8471 71.4466V40.576C63.8471 39.7806 64.492 39.1357 65.2874 39.1357H75.5265C76.322 39.1357 76.9668 39.7806 76.9668 40.576V71.4466Z" stroke="white" stroke-width="1.5"/>
<line x1="81.7231" y1="39.4458" x2="81.7231" y2="72.5762" stroke="white" stroke-width="1.5"/>
<path d="M47.4892 120.469V106.255H42.2452V104.185H54.9412V106.255H49.6972V120.469H47.4892ZM54.6519 120.469V109.567H56.7219V111.246H56.7679C57.2969 110.096 58.6769 109.291 60.0339 109.291C60.3559 109.291 60.6779 109.337 60.9539 109.429L60.8619 111.66C60.5169 111.568 60.1719 111.499 59.8499 111.499C57.8259 111.499 56.7219 112.603 56.7219 114.995V120.469H54.6519ZM64.4526 112.189L63.2106 110.901C64.3606 109.82 66.0166 109.291 67.5346 109.291C70.7546 109.291 72.0886 111.039 72.0886 112.925V118.491C72.0886 119.25 72.1116 119.894 72.1806 120.469H70.3406C70.2946 119.917 70.2716 119.365 70.2716 118.813H70.2256C69.3056 120.216 68.0636 120.745 66.4076 120.745C64.3836 120.745 62.6356 119.595 62.6356 117.479C62.6356 114.673 65.3266 113.707 68.6386 113.707H70.1566V113.247C70.1566 112.12 69.3286 110.947 67.5576 110.947C65.9706 110.947 65.2116 111.614 64.4526 112.189ZM70.1566 115.225H69.0526C67.0976 115.225 64.7056 115.57 64.7056 117.318C64.7056 118.56 65.6256 119.089 67.0516 119.089C69.3516 119.089 70.1566 117.387 70.1566 115.915V115.225ZM86.0163 103.081V120.469H83.9463V118.905H83.9003C83.0953 120.078 81.5773 120.745 80.1053 120.745C76.7243 120.745 74.5623 118.238 74.5623 115.018C74.5623 111.752 76.7473 109.291 80.1053 109.291C81.6693 109.291 83.1643 110.004 83.9003 111.131H83.9463V103.081H86.0163ZM80.3583 118.813C82.5663 118.813 83.9463 117.226 83.9463 115.018C83.9463 112.81 82.5663 111.223 80.3583 111.223C78.1503 111.223 76.7703 112.81 76.7703 115.018C76.7703 117.226 78.1503 118.813 80.3583 118.813ZM89.3129 120.469V109.567H91.3829V120.469H89.3129ZM88.8299 105.657C88.8299 104.829 89.5199 104.139 90.3479 104.139C91.1759 104.139 91.8659 104.829 91.8659 105.657C91.8659 106.485 91.1759 107.175 90.3479 107.175C89.5199 107.175 88.8299 106.485 88.8299 105.657ZM94.6773 120.469V109.567H96.7473V111.246H96.7933C97.3223 110.096 98.7023 109.291 100.381 109.291C102.497 109.291 104.337 110.556 104.337 113.454V120.469H102.267V114.029C102.267 111.982 101.094 111.223 99.7833 111.223C98.0583 111.223 96.7473 112.327 96.7473 114.857V120.469H94.6773ZM118.383 109.567V120.377C118.383 123.666 115.991 125.989 112.426 125.989C110.356 125.989 108.631 125.46 107.09 124.034L108.493 122.286C109.574 123.436 110.793 124.057 112.38 124.057C115.462 124.057 116.313 122.125 116.313 120.285V118.675H116.244C115.462 119.986 113.967 120.607 112.472 120.607C109.275 120.607 106.906 118.192 106.929 115.018C106.929 111.798 109.091 109.291 112.472 109.291C113.944 109.291 115.462 109.958 116.267 111.131H116.313V109.567H118.383ZM112.725 111.223C110.517 111.223 109.137 112.81 109.137 115.018C109.137 117.226 110.517 118.675 112.725 118.675C114.933 118.675 116.313 117.226 116.313 115.018C116.313 112.81 114.933 111.223 112.725 111.223Z" fill="white"/>
<defs>
<linearGradient id="paint0_linear_998_1287" x1="-1.40421e-06" y1="6.6037" x2="152.435" y2="153.536" gradientUnits="userSpaceOnUse">
<stop stop-color="#FF0000"/>
<stop offset="0.501884" stop-color="#191970"/>
</linearGradient>
</defs>
</svg>
