<svg width="172" height="71" viewBox="0 0 172 71" fill="none" xmlns="http://www.w3.org/2000/svg">
<g clip-path="url(#clip0_998_1625)">
<path d="M129.74 51.1H134.06V51.8H130.57V53.79H133.82V54.49H130.57V56.65H134.08V57.35H129.74V51.1Z" fill="#191970"/>
<path d="M135.19 51.1H135.93V57.35H135.19V51.1Z" fill="#191970"/>
<path d="M141.13 55.92C141.03 56.42 140.81 56.8 140.47 57.07C140.13 57.33 139.7 57.46 139.19 57.46C138.83 57.46 138.51 57.4 138.25 57.28C137.99 57.16 137.76 57 137.58 56.79C137.4 56.58 137.26 56.33 137.17 56.04C137.08 55.75 137.03 55.43 137.02 55.09C137.02 54.75 137.07 54.44 137.18 54.15C137.28 53.86 137.43 53.61 137.62 53.4C137.81 53.19 138.03 53.03 138.29 52.91C138.55 52.79 138.83 52.73 139.14 52.73C139.54 52.73 139.88 52.81 140.14 52.98C140.4 53.15 140.62 53.36 140.78 53.61C140.94 53.86 141.05 54.15 141.11 54.45C141.17 54.75 141.2 55.04 141.18 55.32H137.79C137.79 55.52 137.81 55.71 137.86 55.89C137.91 56.07 138 56.22 138.11 56.36C138.23 56.5 138.38 56.61 138.56 56.69C138.74 56.77 138.95 56.81 139.2 56.81C139.51 56.81 139.77 56.74 139.97 56.59C140.17 56.44 140.31 56.22 140.37 55.92H141.11H141.13ZM140.41 54.66C140.4 54.49 140.36 54.32 140.29 54.16C140.22 54 140.13 53.87 140.02 53.75C139.91 53.63 139.77 53.55 139.61 53.48C139.45 53.41 139.28 53.38 139.1 53.38C138.91 53.38 138.73 53.41 138.58 53.48C138.43 53.55 138.29 53.64 138.18 53.76C138.07 53.88 137.98 54.01 137.92 54.17C137.86 54.32 137.82 54.49 137.81 54.66H140.41Z" fill="#191970"/>
<path d="M145.22 54.28C145.16 53.99 145.04 53.77 144.85 53.61C144.66 53.45 144.41 53.37 144.1 53.37C143.83 53.37 143.61 53.42 143.43 53.52C143.25 53.62 143.1 53.75 143 53.91C142.89 54.07 142.81 54.26 142.77 54.48C142.72 54.69 142.7 54.91 142.7 55.14C142.7 55.35 142.72 55.56 142.77 55.75C142.82 55.95 142.9 56.13 143 56.28C143.1 56.43 143.24 56.56 143.41 56.65C143.58 56.74 143.78 56.79 144.02 56.79C144.38 56.79 144.67 56.69 144.88 56.5C145.09 56.3 145.22 56.03 145.27 55.69H146.03C145.95 56.24 145.74 56.68 145.4 56.99C145.06 57.3 144.61 57.45 144.03 57.45C143.69 57.45 143.38 57.39 143.11 57.28C142.84 57.17 142.62 57.01 142.44 56.8C142.26 56.6 142.13 56.35 142.04 56.07C141.95 55.79 141.9 55.48 141.9 55.14C141.9 54.8 141.94 54.49 142.03 54.19C142.12 53.9 142.25 53.64 142.43 53.42C142.61 53.2 142.83 53.03 143.1 52.9C143.37 52.77 143.68 52.71 144.04 52.71C144.3 52.71 144.54 52.74 144.76 52.8C144.98 52.86 145.18 52.96 145.36 53.09C145.53 53.22 145.68 53.38 145.78 53.58C145.89 53.78 145.96 54.01 145.99 54.28H145.22Z" fill="#191970"/>
<path d="M148.05 52.83H148.95V53.49H148.05V56.3C148.05 56.39 148.05 56.46 148.07 56.51C148.08 56.56 148.11 56.6 148.15 56.63C148.19 56.66 148.25 56.68 148.32 56.69C148.39 56.69 148.49 56.7 148.6 56.7H148.94V57.36H148.37C148.18 57.36 148.01 57.35 147.88 57.32C147.74 57.29 147.63 57.25 147.55 57.18C147.47 57.11 147.4 57.01 147.36 56.88C147.32 56.75 147.3 56.58 147.3 56.37V53.49H146.53V52.83H147.3V51.47H148.04V52.83H148.05Z" fill="#191970"/>
<path d="M149.93 52.83H150.63V53.79H150.65C150.83 53.42 151.05 53.15 151.32 52.98C151.58 52.8 151.92 52.72 152.32 52.73V53.52C152.02 53.52 151.77 53.56 151.56 53.64C151.35 53.72 151.18 53.84 151.05 54C150.92 54.16 150.83 54.35 150.77 54.58C150.71 54.81 150.68 55.07 150.68 55.35V57.36H149.94V52.83H149.93Z" fill="#191970"/>
<path d="M153.83 52.01H153.09V51.1H153.83V52.01ZM153.09 52.83H153.83V57.36H153.09V52.83Z" fill="#191970"/>
<path d="M158.24 54.28C158.18 53.99 158.06 53.77 157.87 53.61C157.68 53.45 157.43 53.37 157.12 53.37C156.85 53.37 156.63 53.42 156.45 53.52C156.27 53.62 156.12 53.75 156.02 53.91C155.91 54.07 155.83 54.26 155.79 54.48C155.74 54.69 155.72 54.91 155.72 55.14C155.72 55.35 155.74 55.56 155.79 55.75C155.84 55.95 155.92 56.13 156.02 56.28C156.12 56.43 156.26 56.56 156.43 56.65C156.6 56.74 156.8 56.79 157.04 56.79C157.4 56.79 157.69 56.69 157.9 56.5C158.11 56.3 158.24 56.03 158.29 55.69H159.05C158.97 56.24 158.76 56.68 158.42 56.99C158.08 57.3 157.63 57.45 157.05 57.45C156.71 57.45 156.4 57.39 156.13 57.28C155.86 57.17 155.64 57.01 155.46 56.8C155.28 56.6 155.15 56.35 155.06 56.07C154.97 55.79 154.92 55.48 154.92 55.14C154.92 54.8 154.96 54.49 155.05 54.19C155.14 53.9 155.27 53.64 155.45 53.42C155.63 53.2 155.85 53.03 156.12 52.9C156.39 52.77 156.7 52.71 157.06 52.71C157.32 52.71 157.56 52.74 157.78 52.8C158 52.86 158.2 52.96 158.38 53.09C158.55 53.22 158.7 53.38 158.8 53.58C158.91 53.78 158.98 54.01 159.01 54.28H158.24Z" fill="#191970"/>
<path d="M164.05 57.34C163.92 57.42 163.74 57.46 163.52 57.46C163.33 57.46 163.17 57.4 163.06 57.29C162.95 57.18 162.89 57 162.89 56.75C162.69 57 162.45 57.17 162.18 57.29C161.91 57.4 161.62 57.46 161.3 57.46C161.1 57.46 160.9 57.44 160.72 57.39C160.54 57.34 160.38 57.27 160.24 57.17C160.11 57.07 160 56.94 159.92 56.78C159.84 56.62 159.8 56.43 159.8 56.2C159.8 55.94 159.84 55.73 159.93 55.57C160.02 55.41 160.13 55.28 160.28 55.18C160.42 55.08 160.59 55 160.77 54.95C160.95 54.89 161.14 54.85 161.33 54.81C161.53 54.77 161.73 54.74 161.91 54.72C162.09 54.7 162.26 54.67 162.4 54.63C162.54 54.59 162.65 54.54 162.73 54.46C162.81 54.39 162.85 54.28 162.85 54.14C162.85 53.98 162.82 53.85 162.76 53.75C162.7 53.65 162.62 53.58 162.52 53.52C162.42 53.47 162.32 53.43 162.2 53.41C162.08 53.39 161.96 53.38 161.85 53.38C161.53 53.38 161.27 53.44 161.06 53.56C160.85 53.68 160.74 53.91 160.72 54.24H159.98C159.99 53.96 160.05 53.72 160.16 53.53C160.26 53.34 160.41 53.18 160.58 53.06C160.76 52.94 160.96 52.85 161.18 52.8C161.41 52.75 161.65 52.72 161.9 52.72C162.1 52.72 162.31 52.74 162.51 52.76C162.71 52.79 162.89 52.85 163.06 52.94C163.23 53.03 163.35 53.16 163.45 53.32C163.55 53.48 163.6 53.7 163.6 53.96V56.29C163.6 56.46 163.61 56.59 163.63 56.67C163.65 56.75 163.72 56.79 163.84 56.79C163.91 56.79 163.99 56.77 164.07 56.75V57.33L164.05 57.34ZM162.85 55.02C162.78 55.07 162.69 55.11 162.59 55.14C162.48 55.17 162.37 55.19 162.26 55.21C162.15 55.23 162.02 55.25 161.89 55.26C161.76 55.27 161.63 55.29 161.51 55.32C161.39 55.34 161.27 55.37 161.16 55.41C161.05 55.45 160.95 55.49 160.87 55.55C160.79 55.61 160.72 55.69 160.67 55.78C160.62 55.87 160.6 55.99 160.6 56.13C160.6 56.25 160.62 56.36 160.67 56.44C160.72 56.52 160.78 56.59 160.86 56.65C160.94 56.71 161.03 56.74 161.14 56.76C161.25 56.78 161.36 56.8 161.47 56.8C161.72 56.8 161.93 56.77 162.1 56.7C162.28 56.63 162.42 56.55 162.53 56.45C162.64 56.35 162.72 56.24 162.78 56.12C162.83 56 162.86 55.89 162.86 55.78V55.02H162.85Z" fill="#191970"/>
<path d="M164.97 51.1H165.71V57.35H164.97V51.1Z" fill="#191970"/>
<path d="M77.99 28.12C76.88 27.46 75.67 26.93 74.36 26.52C73.05 26.11 71.76 25.76 70.49 25.47C69.14 25.14 68 24.8 67.08 24.46C66.16 24.11 65.48 23.7 65.05 23.23C64.62 22.76 64.4 22.15 64.4 21.42C64.4 20.4 64.88 19.59 65.85 18.99C66.81 18.4 68.01 18.1 69.45 18.1C70.97 18.1 72.37 18.41 73.66 19.02C74.95 19.64 76.01 20.62 76.83 21.97L80.58 19.08C79.51 17.2 78.02 15.77 76.09 14.81C74.16 13.85 72.03 13.36 69.7 13.36C66.42 13.36 63.79 14.15 61.8 15.73C59.81 17.31 58.82 19.39 58.82 21.97C58.82 23.45 59.12 24.69 59.71 25.69C60.3 26.69 61.08 27.51 62.05 28.15C63.01 28.79 64.09 29.31 65.28 29.72C66.47 30.13 67.64 30.5 68.78 30.83C70.05 31.12 71.22 31.46 72.28 31.84C73.35 32.23 74.21 32.72 74.86 33.32C75.52 33.92 75.84 34.7 75.84 35.69C75.84 36.92 75.32 37.91 74.27 38.67C73.22 39.43 71.8 39.81 70 39.81C67.95 39.81 66.2 39.31 64.74 38.3C63.28 37.3 62.17 36.1 61.39 34.7L57.27 38.27C57.97 39.34 58.9 40.37 60.07 41.38C61.24 42.39 62.64 43.2 64.28 43.84C65.92 44.48 67.8 44.79 69.94 44.79C72.32 44.79 74.39 44.38 76.15 43.56C77.91 42.74 79.29 41.6 80.27 40.15C81.25 38.7 81.75 37 81.75 35.08C81.75 33.32 81.4 31.88 80.7 30.78C80 29.67 79.1 28.79 77.99 28.14V28.12Z" fill="#191970"/>
<path d="M99.8099 13.36C97.2299 13.36 94.8399 13.8 92.6499 14.68C90.4599 15.56 88.4599 16.94 86.6499 18.83L90.3999 22.7C91.7499 21.22 93.1799 20.16 94.6699 19.5C96.1699 18.84 97.7299 18.52 99.3699 18.52C101.71 18.52 103.49 19.1 104.72 20.24C105.95 21.39 106.56 23.03 106.56 25.16V26.14H97.4599C95.9399 26.14 94.5199 26.27 93.1899 26.54C91.8599 26.81 90.6799 27.27 89.6499 27.92C88.5399 28.58 87.6399 29.51 86.9399 30.72C86.2399 31.93 85.8899 33.37 85.8899 35.06C85.8899 36.99 86.3599 38.68 87.2999 40.13C88.2399 41.59 89.5699 42.72 91.2999 43.54C93.0199 44.36 95.0099 44.77 97.2599 44.77C99.2299 44.77 101 44.36 102.58 43.54C104.16 42.72 105.48 41.52 106.55 39.94C106.59 39.89 106.62 39.82 106.65 39.77V44.77H112.57V25.16C112.57 21.43 111.45 18.53 109.22 16.46C106.99 14.39 103.84 13.35 99.7799 13.35L99.8099 13.36ZM106.57 31.56C106.57 33.16 106.18 34.58 105.4 35.83C104.62 37.08 103.59 38.07 102.3 38.78C101.01 39.5 99.5799 39.86 98.0299 39.86C96.1899 39.86 94.7099 39.43 93.5999 38.57C92.4899 37.71 91.9399 36.56 91.9399 35.13C91.9399 34.39 92.0799 33.75 92.3699 33.19C92.6599 32.63 93.0499 32.18 93.5399 31.81C94.1599 31.36 94.8999 31.06 95.7799 30.92C96.6599 30.78 97.5099 30.71 98.3299 30.71H106.57V31.57V31.56Z" fill="#191970"/>
<path d="M136.88 15.3899C135.98 14.8599 135.09 14.4799 134.21 14.2499C133.33 14.0299 132.4 13.9099 131.41 13.9099C130.02 13.9099 128.6 14.2899 127.17 15.0499C125.73 15.8099 124.5 16.8499 123.45 18.1899C123.23 18.4699 123.05 18.7599 122.87 19.0499V13.4399H116.78V44.7699H122.87V30.9399C122.87 29.3399 122.92 28.0799 123.02 27.1599C123.12 26.2399 123.26 25.4899 123.42 24.9199C123.79 23.7299 124.33 22.7699 125.05 22.0299C125.77 21.2899 126.58 20.7599 127.48 20.4299C128.38 20.0999 129.3 19.9399 130.25 19.9399C130.87 19.9399 131.52 20.0199 132.22 20.1899C132.92 20.3499 133.49 20.5599 133.94 20.7999L136.89 15.3899H136.88Z" fill="#191970"/>
<path d="M162.37 16.47C160.14 14.4 156.99 13.36 152.93 13.36C152.91 13.36 152.89 13.36 152.87 13.36C152.86 13.36 152.84 13.36 152.83 13.36C150.25 13.36 147.86 13.8 145.67 14.68C143.48 15.56 141.48 16.94 139.67 18.83L143.42 22.7C143.42 22.7 143.45 22.67 143.47 22.65L143.52 22.7C144.87 21.22 146.3 20.16 147.79 19.5C149.27 18.85 150.83 18.52 152.46 18.52C154.77 18.53 156.53 19.1 157.75 20.24C158.98 21.39 159.6 23.03 159.6 25.16V26.14H150.5C148.98 26.14 147.56 26.27 146.23 26.54C144.9 26.81 143.72 27.27 142.69 27.92C141.58 28.58 140.68 29.51 139.98 30.72C139.28 31.93 138.93 33.37 138.93 35.06C138.93 36.99 139.4 38.68 140.34 40.13C141.28 41.59 142.62 42.72 144.34 43.54C146.06 44.36 148.05 44.77 150.3 44.77C150.32 44.77 150.33 44.77 150.35 44.77C150.37 44.77 150.38 44.77 150.4 44.77C152.37 44.77 154.14 44.36 155.72 43.54C157.3 42.72 158.62 41.52 159.69 39.94C159.69 39.94 159.7 39.92 159.71 39.91L159.8 40.88V44.76H165.72V25.15C165.72 21.42 164.6 18.52 162.37 16.45V16.47ZM159.6 30.7V31.56C159.6 33.16 159.21 34.58 158.43 35.83C157.65 37.08 156.62 38.07 155.32 38.78C154.04 39.49 152.63 39.85 151.1 39.85C149.28 39.85 147.82 39.41 146.72 38.56C145.61 37.7 145.06 36.55 145.06 35.12C145.06 34.38 145.2 33.74 145.49 33.18C145.78 32.63 146.17 32.17 146.66 31.8C147.28 31.35 148.02 31.05 148.9 30.91C149.78 30.77 150.63 30.7 151.45 30.7H159.59H159.6Z" fill="#191970"/>
<path d="M171.17 13.36L170.4 15.54L169.61 13.36H168.79V16.49H169.29V13.86L170.23 16.26H170.56L171.47 13.9V16.49H171.98V13.36H171.17Z" fill="white"/>
<path d="M165.72 13.82H166.66V16.49H167.17V13.82H168.09V13.36H165.72V13.82Z" fill="white"/>
<path d="M5.06362 25.3268L0.000732422 30.3896L20.2593 50.6483L25.3222 45.5854L5.06362 25.3268Z" fill="#80C804"/>
<path d="M40.52 50.65L20.26 70.91L0 50.65L5.06 45.59H5.07L20.26 60.78L35.46 45.59L40.52 50.65Z" fill="#80C804"/>
<path d="M40.52 20.26L35.46 25.32L20.26 10.13L5.06 25.32L0 20.26L20.25 0L40.52 20.26Z" fill="#80C804"/>
<path d="M40.5199 40.52L35.4599 45.59L15.1899 25.32L20.2599 20.26L40.5199 40.52Z" fill="#80C804"/>
</g>
<defs>
<clipPath id="clip0_998_1625">
<rect width="171.98" height="70.91" fill="white"/>
</clipPath>
</defs>
</svg>
