<svg width="140" height="60" viewBox="0 0 140 60" fill="none" xmlns="http://www.w3.org/2000/svg">
<g clip-path="url(#clip0_55_4415)">
<path d="M60.0928 21.4202H0V31.0019H66.0483L60.0928 21.4202Z" fill="#F9BF58"/>
<path d="M60.0928 2.25366H0V11.8384H66.0483L60.0928 2.25366Z" fill="#F9BF58"/>
<path d="M60.0928 40.5867H0V50.1684H66.0483L60.0928 40.5867Z" fill="#F9BF58"/>
<path d="M119.051 2.25366L98.7325 35.3915L78.4083 2.25366H67.0918L98.7325 53.8339L130.367 2.25366H119.051Z" fill="#F9BF58"/>
<path d="M134.047 0.624502H134.991V3.65952H135.643V0.624502H136.584V0H134.047V0.624502Z" fill="#F9BF58"/>
<path d="M139.141 0L138.483 2.25665L137.824 0H136.966V3.65952H137.557V1.04385L138.195 3.05614H138.771L139.408 0.995583V3.65952H140V0H139.141Z" fill="#F9BF58"/>
<path d="M2.08116 57.4783H3.26135V57.5597C3.26135 57.8373 3.21281 58.0756 3.11876 58.2748C3.02471 58.4709 2.88515 58.6247 2.71222 58.7303C2.53625 58.8329 2.32691 58.8872 2.09633 58.8872C1.86575 58.8872 1.64731 58.8359 1.46831 58.7363C1.28931 58.6368 1.14672 58.492 1.04963 58.314C0.952545 58.133 0.900968 57.9188 0.900968 57.6744V55.9909C0.900968 55.7224 0.949511 55.4871 1.04356 55.285C1.14065 55.0859 1.27717 54.929 1.45314 54.8174C1.62911 54.7057 1.83541 54.6514 2.06903 54.6514C2.22982 54.6514 2.38759 54.6876 2.53625 54.757C2.68491 54.8264 2.8184 54.932 2.93066 55.0678C3.04291 55.2035 3.12179 55.3664 3.1673 55.5535L3.19461 55.7315L4.12299 55.7194L4.11692 55.5263C4.05017 55.1794 3.91971 54.8717 3.72858 54.6092C3.53744 54.3467 3.29776 54.1416 3.00954 53.9968C2.72435 53.8519 2.40882 53.7795 2.07206 53.7795C1.66248 53.7795 1.29538 53.87 0.985918 54.0541C0.673425 54.2351 0.427678 54.4946 0.257779 54.8264C0.0878793 55.1553 0.00292969 55.5444 0.00292969 55.9759V57.6834C0.00292969 58.0937 0.0909132 58.4588 0.263846 58.7695C0.436779 59.0803 0.68556 59.3246 1.00109 59.4966C1.31358 59.6686 1.68372 59.753 2.09936 59.753C2.51501 59.753 2.87301 59.6625 3.18551 59.4785C3.498 59.2975 3.74375 59.038 3.91365 58.7062C4.08354 58.3743 4.16849 57.9881 4.16849 57.5537V56.6004H2.08419V57.4753L2.08116 57.4783Z" fill="#F9BF58"/>
<path d="M14.5049 54.6333H16.1826V59.7561H17.0837V54.6333H18.7615V53.7795H14.5049V54.6333Z" fill="#F9BF58"/>
<path d="M25.2301 54.6333V53.7795H21.3467V59.7561H25.2301V58.9023H22.2447V57.2158H24.7811V56.362H22.2447V54.6333H25.2301Z" fill="#F9BF58"/>
<path d="M9.72072 53.7795H8.95011L6.75052 59.7108L6.73535 59.753H7.7062L8.15522 58.4527H10.5126L10.9525 59.7319L10.9586 59.753H11.9294L9.72376 53.8007L9.71466 53.7795H9.72072ZM10.2183 57.599H8.44951L9.33238 55.0406L10.2153 57.599H10.2183Z" fill="#F9BF58"/>
</g>
<defs>
<clipPath id="clip0_55_4415">
<rect width="140" height="59.7561" fill="white"/>
</clipPath>
</defs>
</svg>
