<svg width="135" height="31" viewBox="0 0 135 31" fill="none" xmlns="http://www.w3.org/2000/svg">
<path d="M0.729228 0.86731C0.277107 1.23192 0 1.87364 0 2.73413V27.9436C0 28.8041 0.277107 29.4458 0.729228 29.8104L15.1679 15.3352L0.729228 0.86731Z" fill="url(#paint0_linear_998_926)"/>
<path d="M20.0319 10.4713L3.20133 0.947535C2.20958 0.378737 1.31992 0.393322 0.729248 0.86732L15.168 15.3425L20.0246 10.4713H20.0319Z" fill="url(#paint1_linear_998_926)"/>
<path d="M0.729248 29.8104C1.31992 30.2844 2.20958 30.2917 3.20862 29.7302L20.0319 20.2065L15.1753 15.3352L0.729248 29.8104Z" fill="url(#paint2_linear_998_926)"/>
<path d="M26.7336 15.0945C26.6533 14.6059 26.3179 14.1246 25.7418 13.7236C25.647 13.6579 25.5449 13.5923 25.4355 13.5267L20.032 10.4712L15.1753 15.3424L20.032 20.2137L25.4355 17.1582C26.4273 16.5967 26.8575 15.8383 26.7336 15.0945Z" fill="url(#paint3_linear_998_926)"/>
<path d="M37.125 8.45859C37.6792 8.77215 38.2917 8.93258 38.9626 8.93258C39.597 8.93258 40.1731 8.78674 40.6982 8.50234C41.2159 8.21794 41.6389 7.82416 41.9524 7.32828C42.2733 6.83241 42.4556 6.29278 42.514 5.69481V4.96558H38.6199V5.73127H41.5076C41.4347 6.45321 41.1649 7.02201 40.7055 7.44496C40.2461 7.86791 39.67 8.07939 38.9626 8.07939C38.4594 8.07939 38 7.96271 37.599 7.72936C37.1906 7.496 36.877 7.16785 36.6437 6.73761C36.4103 6.30736 36.2936 5.81149 36.2936 5.24269C36.2936 4.67389 36.4103 4.17801 36.6437 3.74048C36.877 3.31023 37.1906 2.97479 37.599 2.74143C38.0073 2.50808 38.4594 2.39141 38.9626 2.39141C39.4658 2.39141 39.9106 2.50808 40.2898 2.74143C40.669 2.97479 40.9607 3.30294 41.1649 3.7186H42.2952C42.0254 3.02583 41.5951 2.4935 41.0045 2.10701C40.4138 1.72781 39.7356 1.53821 38.9626 1.53821C38.2917 1.53821 37.6792 1.69864 37.125 2.01221C36.5707 2.32577 36.1332 2.76331 35.8123 3.33211C35.4915 3.89362 35.3311 4.52804 35.3311 5.2354C35.3311 5.94275 35.4915 6.57718 35.8123 7.13139C36.1332 7.6929 36.5707 8.13043 37.125 8.444V8.45859Z" fill="white"/>
<path d="M43.7537 8.86697H47.6477V8.0867H44.7017V5.60003H47.3342V4.81975H44.7017V2.40601H47.6477V1.62573H43.7537V8.86697Z" fill="white"/>
<path d="M50.6156 8.867H51.5563V2.40604H53.5252V1.63306H48.6321V2.40604H50.6156V8.867Z" fill="white"/>
<path d="M58.4038 1.63306H57.4631V8.867H58.4038V1.63306Z" fill="white"/>
<path d="M61.5467 8.867H62.4947V2.40604H64.4636V1.63306H59.5632V2.40604H61.5467V8.867Z" fill="white"/>
<path d="M73.5207 8.46591C74.0749 8.15234 74.5124 7.7148 74.826 7.1533C75.1469 6.59179 75.3 5.95736 75.3 5.24272C75.3 4.52808 75.1396 3.89365 74.826 3.33214C74.5052 2.77064 74.0749 2.3331 73.5207 2.01953C72.9665 1.70596 72.3539 1.54553 71.6757 1.54553C70.9976 1.54553 70.3923 1.70596 69.8381 2.01953C69.2839 2.3331 68.8463 2.77064 68.5255 3.33943C68.2046 3.90094 68.0442 4.53537 68.0442 5.24272C68.0442 5.95007 68.2046 6.5845 68.5255 7.14601C68.8463 7.70751 69.2839 8.15234 69.8381 8.46591C70.3923 8.77948 71.0049 8.93991 71.6757 8.93991C72.3466 8.93991 72.9665 8.77948 73.5207 8.46591ZM69.3568 6.75952C69.1234 6.32198 69.0068 5.81881 69.0068 5.24272C69.0068 4.66663 69.1234 4.15617 69.3568 3.72593C69.5902 3.29568 69.9037 2.96024 70.3048 2.72688C70.7059 2.49353 71.1653 2.37685 71.6757 2.37685C72.1862 2.37685 72.6456 2.49353 73.0467 2.72688C73.4478 2.96024 73.7613 3.29568 73.9947 3.72593C74.228 4.15617 74.3447 4.66663 74.3447 5.24272C74.3447 5.81881 74.228 6.32198 73.9947 6.75952C73.7613 7.19705 73.4478 7.5325 73.0394 7.76585C72.6383 7.9992 72.1789 8.11588 71.6757 8.11588C71.1726 8.11588 70.7132 7.9992 70.3121 7.76585C69.9037 7.5325 69.5902 7.19705 69.3568 6.75952Z" fill="white"/>
<path d="M82.2351 1.62573H81.2944V7.37205L77.4951 1.62573H76.5471V8.86697H77.4951V3.10607L81.2944 8.86697H82.2351V1.62573Z" fill="white"/>
<path d="M40.6617 19.5064H45.336C45.2121 20.6731 44.7818 21.5993 44.038 22.2847C43.2942 22.9702 42.3535 23.3129 41.2086 23.3129C40.3919 23.3129 39.6553 23.1233 38.999 22.7514C38.3427 22.3722 37.825 21.8399 37.4531 21.1471C37.0739 20.4544 36.8916 19.6449 36.8916 18.7261C36.8916 17.8073 37.0812 16.9978 37.4531 16.2978C37.8323 15.5977 38.3427 15.0581 38.999 14.6862C39.6553 14.307 40.3919 14.1247 41.2086 14.1247C42.0253 14.1247 42.7473 14.3143 43.3598 14.6862C43.9797 15.0654 44.4464 15.5904 44.7745 16.2759H46.6049C46.1674 15.1529 45.4673 14.2851 44.512 13.6653C43.5567 13.0454 42.4483 12.7391 41.2086 12.7391C40.1221 12.7391 39.1303 12.9944 38.2334 13.5048C37.3364 14.0153 36.629 14.7299 36.104 15.6415C35.579 16.553 35.3237 17.5812 35.3237 18.7261C35.3237 19.871 35.5863 20.8992 36.104 21.8034C36.629 22.715 37.3364 23.4223 38.2334 23.9328C39.1303 24.4433 40.1221 24.6985 41.2086 24.6985C42.2368 24.6985 43.1775 24.4651 44.0161 23.9984C44.8547 23.5317 45.5329 22.8973 46.0507 22.0951C46.5684 21.293 46.8674 20.4106 46.9622 19.448V18.274H40.6544V19.521L40.6617 19.5064Z" fill="white"/>
<path d="M55.4504 15.7946C54.7431 15.4081 53.9555 15.2112 53.0804 15.2112C52.2053 15.2112 51.4178 15.4081 50.7104 15.7946C50.0031 16.1811 49.4489 16.7353 49.0332 17.4572C48.6248 18.1791 48.4207 19.0105 48.4207 19.9585C48.4207 20.9065 48.6175 21.7524 49.0186 22.4743C49.4197 23.1962 49.9666 23.7577 50.6667 24.1515C51.3667 24.5453 52.147 24.7422 53.0148 24.7422C53.8826 24.7422 54.6847 24.5453 55.4067 24.1515C56.1213 23.7577 56.6901 23.2035 57.1131 22.4743C57.536 21.7524 57.7475 20.9137 57.7475 19.9585C57.7475 19.0032 57.5433 18.1718 57.1349 17.4499C56.7266 16.7353 56.1651 16.1811 55.4577 15.7946H55.4504ZM55.7275 21.8399C55.4285 22.3576 55.042 22.7441 54.5608 22.9993C54.0795 23.2546 53.5617 23.3858 53.0148 23.3858C52.4679 23.3858 51.9574 23.2619 51.498 23.0066C51.0386 22.7514 50.674 22.3722 50.3969 21.8545C50.1198 21.3367 49.9812 20.7023 49.9812 19.9512C49.9812 19.2001 50.1198 18.5802 50.4042 18.0698C50.6813 17.552 51.0605 17.1728 51.5199 16.9176C51.9866 16.6623 52.497 16.5384 53.0585 16.5384C53.6201 16.5384 54.1159 16.6623 54.5899 16.9176C55.0639 17.1728 55.4431 17.552 55.7348 18.0698C56.0265 18.5875 56.1723 19.2146 56.1723 19.9512C56.1723 20.6877 56.0265 21.3221 55.7275 21.8326V21.8399Z" fill="white"/>
<path d="M66.2138 15.7946C65.5065 15.4081 64.7189 15.2112 63.8439 15.2112C62.9688 15.2112 62.1812 15.4081 61.4739 15.7946C60.7665 16.1811 60.2123 16.7353 59.7966 17.4572C59.3883 18.1791 59.1841 19.0105 59.1841 19.9585C59.1841 20.9065 59.381 21.7524 59.782 22.4743C60.1831 23.1962 60.73 23.7577 61.4301 24.1515C62.1302 24.5453 62.9104 24.7422 63.7782 24.7422C64.646 24.7422 65.4481 24.5453 66.1701 24.1515C66.8847 23.7577 67.4535 23.2035 67.8765 22.4743C68.2994 21.7524 68.5109 20.9137 68.5109 19.9585C68.5109 19.0032 68.3067 18.1718 67.8984 17.4499C67.49 16.7353 66.9285 16.1811 66.2211 15.7946H66.2138ZM66.4909 21.8399C66.192 22.3576 65.8055 22.7441 65.3242 22.9993C64.8429 23.2546 64.3251 23.3858 63.7782 23.3858C63.2313 23.3858 62.7208 23.2619 62.2614 23.0066C61.802 22.7514 61.4374 22.3722 61.1603 21.8545C60.8832 21.3367 60.7519 20.7023 60.7519 19.9512C60.7519 19.2001 60.8905 18.5802 61.1749 18.0698C61.452 17.552 61.8312 17.1728 62.2906 16.9176C62.7573 16.6623 63.2678 16.5384 63.8293 16.5384C64.3908 16.5384 64.8866 16.6623 65.3606 16.9176C65.8346 17.1728 66.2138 17.552 66.5055 18.0698C66.7972 18.5875 66.9431 19.2146 66.9431 19.9512C66.9431 20.6877 66.7972 21.3221 66.4982 21.8326L66.4909 21.8399Z" fill="white"/>
<path d="M77.7576 17.0488C77.4659 16.5238 77.0211 16.0863 76.4231 15.7362C75.8251 15.3862 75.1251 15.2112 74.3302 15.2112C73.5353 15.2112 72.7697 15.4081 72.0988 15.8019C71.4279 16.1956 70.9101 16.7499 70.5236 17.4572C70.1444 18.1718 69.9548 18.9959 69.9548 19.9366C69.9548 20.8773 70.1444 21.694 70.5236 22.4233C70.9028 23.1525 71.4279 23.7213 72.0988 24.1224C72.7624 24.5234 73.5062 24.7276 74.3302 24.7276C75.1542 24.7276 75.8251 24.5453 76.4158 24.188C77.0138 23.8307 77.4586 23.3785 77.7649 22.8389V24.7714C77.7649 25.7267 77.4951 26.4632 76.9627 26.9955C76.4304 27.5206 75.7449 27.7831 74.899 27.7831C74.1552 27.7831 73.5281 27.6154 72.9957 27.2726C72.4707 26.9299 72.1206 26.4778 71.9529 25.9163H70.4361C70.582 26.9007 71.056 27.681 71.8654 28.2571C72.6749 28.8259 73.6812 29.1176 74.8917 29.1176C75.7741 29.1176 76.5544 28.9353 77.2179 28.5634C77.8815 28.1914 78.3993 27.681 78.7566 27.0247C79.1139 26.3684 79.2962 25.6173 79.2962 24.7787V15.357H77.7503V17.0415L77.7576 17.0488ZM77.3346 21.7815C77.0575 22.3066 76.6783 22.7004 76.197 22.9775C75.723 23.2546 75.198 23.3931 74.6219 23.3931C74.0458 23.3931 73.5281 23.2546 73.0541 22.9775C72.5801 22.7004 72.2081 22.3066 71.9237 21.7815C71.6466 21.2565 71.5008 20.6439 71.5008 19.9366C71.5008 19.2292 71.6393 18.6386 71.9237 18.1208C72.2009 17.6031 72.5801 17.2093 73.0541 16.9467C73.5281 16.6769 74.0458 16.5457 74.6219 16.5457C75.198 16.5457 75.7157 16.6842 76.197 16.9613C76.671 17.2384 77.0502 17.6322 77.3346 18.15C77.6117 18.6677 77.7576 19.273 77.7576 19.9658C77.7576 20.6585 77.619 21.2711 77.3346 21.7888V21.7815Z" fill="white"/>
<path d="M83.4237 12.1339H81.8923V24.5818H83.4237V12.1339Z" fill="white"/>
<path d="M92.342 15.7873C91.6711 15.4081 90.8981 15.2185 90.023 15.2185C89.148 15.2185 88.3312 15.4154 87.6458 15.8019C86.953 16.1884 86.4207 16.7426 86.0415 17.4572C85.6623 18.1719 85.4727 19.0105 85.4727 19.9658C85.4727 20.9211 85.6695 21.7597 86.0633 22.4816C86.4571 23.2036 86.9967 23.7651 87.6895 24.1588C88.3823 24.5526 89.1626 24.7495 90.0376 24.7495C91.1388 24.7495 92.0576 24.4724 92.7941 23.9182C93.5379 23.364 94.0265 22.6421 94.2744 21.7597H92.6264C92.4441 22.2774 92.1378 22.6858 91.693 22.9994C91.2481 23.3056 90.6939 23.4588 90.0376 23.4588C89.2282 23.4588 88.5427 23.2036 87.9739 22.6931C87.4051 22.1826 87.0988 21.4753 87.0405 20.5638H94.4057C94.4422 20.2356 94.4567 19.9293 94.4567 19.6376C94.4567 18.799 94.2744 18.0406 93.9098 17.377C93.5452 16.7134 93.0275 16.1884 92.3566 15.8019L92.342 15.7873ZM87.0405 19.3022C87.1207 18.4271 87.427 17.7416 87.9739 17.2531C88.5208 16.7572 89.1771 16.5165 89.9501 16.5165C90.4897 16.5165 90.9783 16.6259 91.4232 16.8447C91.868 17.0635 92.218 17.3843 92.4732 17.8C92.7285 18.2229 92.8597 18.7261 92.8597 19.3022H87.0405Z" fill="white"/>
<path d="M104.739 12.8632H100.954V24.5892H102.486V19.696H104.739C106.11 19.696 107.124 19.3752 107.795 18.7262C108.458 18.0844 108.794 17.2677 108.794 16.2978C108.794 15.328 108.451 14.4675 107.758 13.8257C107.065 13.184 106.059 12.8705 104.739 12.8705V12.8632ZM106.62 17.873C106.219 18.2449 105.585 18.4272 104.739 18.4272H102.486V14.1174H104.739C106.402 14.1174 107.226 14.8394 107.226 16.2905C107.226 16.976 107.022 17.5011 106.62 17.873Z" fill="white"/>
<path d="M112.228 12.1339H110.697V24.5818H112.228V12.1339Z" fill="white"/>
<path d="M122.065 17.0488C121.774 16.5238 121.329 16.0863 120.738 15.7362C120.14 15.3862 119.44 15.2112 118.638 15.2112C117.836 15.2112 117.078 15.4081 116.407 15.8019C115.736 16.1956 115.218 16.7499 114.831 17.4572C114.452 18.1718 114.263 18.9959 114.263 19.9366C114.263 20.8773 114.452 21.694 114.831 22.4233C115.211 23.1525 115.736 23.7213 116.399 24.1224C117.063 24.5234 117.799 24.7276 118.623 24.7276C119.448 24.7276 120.118 24.5526 120.716 24.1953C121.314 23.8452 121.766 23.3931 122.073 22.8608V24.5745H123.619V15.357H122.073V17.0415L122.065 17.0488ZM121.642 21.7815C121.365 22.3066 120.986 22.7004 120.505 22.9775C120.031 23.2546 119.506 23.3931 118.93 23.3931C118.354 23.3931 117.836 23.2546 117.362 22.9775C116.888 22.7004 116.516 22.3066 116.232 21.7815C115.955 21.2565 115.809 20.6439 115.809 19.9366C115.809 19.2292 115.947 18.6386 116.232 18.1208C116.509 17.6031 116.888 17.2093 117.362 16.9467C117.836 16.6769 118.354 16.5457 118.93 16.5457C119.506 16.5457 120.024 16.6842 120.505 16.9613C120.979 17.2384 121.358 17.6322 121.642 18.15C121.92 18.6677 122.065 19.273 122.065 19.9658C122.065 20.6585 121.927 21.2711 121.642 21.7888V21.7815Z" fill="white"/>
<path d="M132.566 15.3644L129.7 22.839L126.813 15.3644H125.114L128.825 24.487L127.01 28.928H128.592L134.141 15.3644H132.566Z" fill="white"/>
<defs>
<linearGradient id="paint0_linear_998_926" x1="7.52564" y1="25.0704" x2="7.59856" y2="5.18434" gradientUnits="userSpaceOnUse">
<stop stop-color="#00E3FF"/>
<stop offset="1" stop-color="#00C2FF"/>
</linearGradient>
<linearGradient id="paint1_linear_998_926" x1="0.729248" y1="7.92625" x2="20.0319" y2="7.92625" gradientUnits="userSpaceOnUse">
<stop stop-color="#00F076"/>
<stop offset="1" stop-color="#11D574"/>
</linearGradient>
<linearGradient id="paint2_linear_998_926" x1="0.729248" y1="22.7515" x2="20.0319" y2="22.7515" gradientUnits="userSpaceOnUse">
<stop stop-color="#FF3A44"/>
<stop offset="1" stop-color="#E02453"/>
</linearGradient>
<linearGradient id="paint3_linear_998_926" x1="15.168" y1="15.3424" x2="26.7481" y2="15.3424" gradientUnits="userSpaceOnUse">
<stop stop-color="#FFBB00"/>
<stop offset="1" stop-color="#FFDD00"/>
</linearGradient>
</defs>
</svg>
