<svg width="135" height="30" viewBox="0 0 135 30" fill="none" xmlns="http://www.w3.org/2000/svg">
<path d="M0.729228 0.350098C0.277107 0.714712 0 1.35643 0 2.21692V27.4263C0 28.2868 0.277107 28.9286 0.729228 29.2932L15.1679 14.818L0.729228 0.350098Z" fill="url(#paint0_linear_186_4056)"/>
<path d="M20.0319 9.95405L3.20133 0.430323C2.20958 -0.138475 1.31992 -0.12389 0.729248 0.350108L15.168 14.8253L20.0246 9.95405H20.0319Z" fill="url(#paint1_linear_186_4056)"/>
<path d="M0.729248 29.2933C1.31992 29.7673 2.20958 29.7746 3.20862 29.2131L20.0319 19.6894L15.1753 14.8181L0.729248 29.2933Z" fill="url(#paint2_linear_186_4056)"/>
<path d="M26.7336 14.5774C26.6533 14.0888 26.3179 13.6075 25.7418 13.2065C25.647 13.1408 25.5449 13.0752 25.4355 13.0096L20.032 9.9541L15.1753 14.8253L20.032 19.6966L25.4355 16.6411C26.4273 16.0796 26.8575 15.3212 26.7336 14.5774Z" fill="url(#paint3_linear_186_4056)"/>
<path d="M37.125 7.94137C37.6792 8.25494 38.2917 8.41537 38.9626 8.41537C39.597 8.41537 40.1731 8.26953 40.6982 7.98513C41.2159 7.70073 41.6389 7.30694 41.9524 6.81107C42.2733 6.31519 42.4556 5.77557 42.514 5.1776V4.44837H38.6199V5.21406H41.5076C41.4347 5.936 41.1649 6.50479 40.7055 6.92775C40.2461 7.3507 39.67 7.56217 38.9626 7.56217C38.4594 7.56217 38 7.4455 37.599 7.21215C37.1906 6.97879 36.877 6.65064 36.6437 6.22039C36.4103 5.79015 36.2936 5.29427 36.2936 4.72548C36.2936 4.15668 36.4103 3.6608 36.6437 3.22327C36.877 2.79302 37.1906 2.45758 37.599 2.22422C38.0073 1.99087 38.4594 1.87419 38.9626 1.87419C39.4658 1.87419 39.9106 1.99087 40.2898 2.22422C40.669 2.45758 40.9607 2.78573 41.1649 3.20139H42.2952C42.0254 2.50862 41.5951 1.97629 41.0045 1.58979C40.4138 1.2106 39.7356 1.021 38.9626 1.021C38.2917 1.021 37.6792 1.18143 37.125 1.49499C36.5707 1.80856 36.1332 2.2461 35.8123 2.8149C35.4915 3.3764 35.3311 4.01083 35.3311 4.71818C35.3311 5.42554 35.4915 6.05996 35.8123 6.61418C36.1332 7.17568 36.5707 7.61322 37.125 7.92679V7.94137Z" fill="#2A0944"/>
<path d="M43.7537 8.34964H47.6477V7.56936H44.7017V5.08269H47.3342V4.30242H44.7017V1.88867H47.6477V1.1084H43.7537V8.34964Z" fill="#2A0944"/>
<path d="M50.6156 8.34967H51.5563V1.8887H53.5252V1.11572H48.6321V1.8887H50.6156V8.34967Z" fill="#2A0944"/>
<path d="M58.4038 1.11572H57.4631V8.34967H58.4038V1.11572Z" fill="#2A0944"/>
<path d="M61.5467 8.34967H62.4947V1.8887H64.4636V1.11572H59.5632V1.8887H61.5467V8.34967Z" fill="#2A0944"/>
<path d="M73.5207 7.9487C74.0749 7.63513 74.5124 7.19759 74.826 6.63609C75.1469 6.07458 75.3 5.44015 75.3 4.72551C75.3 4.01086 75.1396 3.37644 74.826 2.81493C74.5052 2.25342 74.0749 1.81589 73.5207 1.50232C72.9665 1.18875 72.3539 1.02832 71.6757 1.02832C70.9976 1.02832 70.3923 1.18875 69.8381 1.50232C69.2839 1.81589 68.8463 2.25342 68.5255 2.82222C68.2046 3.38373 68.0442 4.01816 68.0442 4.72551C68.0442 5.43286 68.2046 6.06729 68.5255 6.62879C68.8463 7.1903 69.2839 7.63513 69.8381 7.9487C70.3923 8.26227 71.0049 8.4227 71.6757 8.4227C72.3466 8.4227 72.9665 8.26227 73.5207 7.9487ZM69.3568 6.2423C69.1234 5.80477 69.0068 5.3016 69.0068 4.72551C69.0068 4.14942 69.1234 3.63896 69.3568 3.20871C69.5902 2.77847 69.9037 2.44302 70.3048 2.20967C70.7059 1.97632 71.1653 1.85964 71.6757 1.85964C72.1862 1.85964 72.6456 1.97632 73.0467 2.20967C73.4478 2.44302 73.7613 2.77847 73.9947 3.20871C74.228 3.63896 74.3447 4.14942 74.3447 4.72551C74.3447 5.3016 74.228 5.80477 73.9947 6.2423C73.7613 6.67984 73.4478 7.01529 73.0394 7.24864C72.6383 7.48199 72.1789 7.59867 71.6757 7.59867C71.1726 7.59867 70.7132 7.48199 70.3121 7.24864C69.9037 7.01529 69.5902 6.67984 69.3568 6.2423Z" fill="#2A0944"/>
<path d="M82.2351 1.1084H81.2944V6.85472L77.4951 1.1084H76.5471V8.34964H77.4951V2.58873L81.2944 8.34964H82.2351V1.1084Z" fill="#2A0944"/>
<path d="M40.6617 18.9892H45.336C45.2121 20.1559 44.7818 21.0821 44.038 21.7675C43.2942 22.453 42.3535 22.7957 41.2086 22.7957C40.3919 22.7957 39.6553 22.6061 38.999 22.2342C38.3427 21.855 37.825 21.3227 37.4531 20.6299C37.0739 19.9372 36.8916 19.1277 36.8916 18.2089C36.8916 17.2901 37.0812 16.4806 37.4531 15.7806C37.8323 15.0805 38.3427 14.5409 38.999 14.169C39.6553 13.7898 40.3919 13.6075 41.2086 13.6075C42.0253 13.6075 42.7473 13.7971 43.3598 14.169C43.9797 14.5482 44.4464 15.0732 44.7745 15.7587H46.6049C46.1674 14.6357 45.4673 13.7679 44.512 13.148C43.5567 12.5282 42.4483 12.2219 41.2086 12.2219C40.1221 12.2219 39.1303 12.4772 38.2334 12.9876C37.3364 13.4981 36.629 14.2127 36.104 15.1243C35.579 16.0358 35.3237 17.064 35.3237 18.2089C35.3237 19.3538 35.5863 20.382 36.104 21.2862C36.629 22.1978 37.3364 22.9051 38.2334 23.4156C39.1303 23.926 40.1221 24.1813 41.2086 24.1813C42.2368 24.1813 43.1775 23.9479 44.0161 23.4812C44.8547 23.0145 45.5329 22.3801 46.0507 21.5779C46.5684 20.7758 46.8674 19.8934 46.9622 18.9308V17.7568H40.6544V19.0037L40.6617 18.9892Z" fill="#2A0944"/>
<path d="M55.4504 15.2775C54.7431 14.891 53.9555 14.6941 53.0804 14.6941C52.2053 14.6941 51.4178 14.891 50.7104 15.2775C50.0031 15.664 49.4489 16.2182 49.0332 16.9401C48.6248 17.6621 48.4207 18.4934 48.4207 19.4414C48.4207 20.3894 48.6175 21.2353 49.0186 21.9572C49.4197 22.6791 49.9666 23.2406 50.6667 23.6344C51.3667 24.0282 52.147 24.2251 53.0148 24.2251C53.8826 24.2251 54.6847 24.0282 55.4067 23.6344C56.1213 23.2406 56.6901 22.6864 57.1131 21.9572C57.536 21.2353 57.7475 20.3967 57.7475 19.4414C57.7475 18.4861 57.5433 17.6548 57.1349 16.9328C56.7266 16.2182 56.1651 15.664 55.4577 15.2775H55.4504ZM55.7275 21.3228C55.4285 21.8405 55.042 22.227 54.5608 22.4823C54.0795 22.7375 53.5617 22.8687 53.0148 22.8687C52.4679 22.8687 51.9574 22.7448 51.498 22.4895C51.0386 22.2343 50.674 21.8551 50.3969 21.3374C50.1198 20.8196 49.9812 20.1852 49.9812 19.4341C49.9812 18.683 50.1198 18.0631 50.4042 17.5527C50.6813 17.0349 51.0605 16.6557 51.5199 16.4005C51.9866 16.1453 52.497 16.0213 53.0585 16.0213C53.6201 16.0213 54.1159 16.1453 54.5899 16.4005C55.0639 16.6557 55.4431 17.0349 55.7348 17.5527C56.0265 18.0704 56.1723 18.6976 56.1723 19.4341C56.1723 20.1706 56.0265 20.805 55.7275 21.3155V21.3228Z" fill="#2A0944"/>
<path d="M66.2138 15.2775C65.5065 14.891 64.7189 14.6941 63.8439 14.6941C62.9688 14.6941 62.1812 14.891 61.4739 15.2775C60.7665 15.664 60.2123 16.2182 59.7966 16.9401C59.3883 17.6621 59.1841 18.4934 59.1841 19.4414C59.1841 20.3894 59.381 21.2353 59.782 21.9572C60.1831 22.6791 60.73 23.2406 61.4301 23.6344C62.1302 24.0282 62.9104 24.2251 63.7782 24.2251C64.646 24.2251 65.4481 24.0282 66.1701 23.6344C66.8847 23.2406 67.4535 22.6864 67.8765 21.9572C68.2994 21.2353 68.5109 20.3967 68.5109 19.4414C68.5109 18.4861 68.3067 17.6548 67.8984 16.9328C67.49 16.2182 66.9285 15.664 66.2211 15.2775H66.2138ZM66.4909 21.3228C66.192 21.8405 65.8055 22.227 65.3242 22.4823C64.8429 22.7375 64.3251 22.8687 63.7782 22.8687C63.2313 22.8687 62.7208 22.7448 62.2614 22.4895C61.802 22.2343 61.4374 21.8551 61.1603 21.3374C60.8832 20.8196 60.7519 20.1852 60.7519 19.4341C60.7519 18.683 60.8905 18.0631 61.1749 17.5527C61.452 17.0349 61.8312 16.6557 62.2906 16.4005C62.7573 16.1453 63.2678 16.0213 63.8293 16.0213C64.3908 16.0213 64.8866 16.1453 65.3606 16.4005C65.8346 16.6557 66.2138 17.0349 66.5055 17.5527C66.7972 18.0704 66.9431 18.6976 66.9431 19.4341C66.9431 20.1706 66.7972 20.805 66.4982 21.3155L66.4909 21.3228Z" fill="#2A0944"/>
<path d="M77.7576 16.5317C77.4659 16.0067 77.0211 15.5692 76.4231 15.2191C75.8251 14.8691 75.1251 14.6941 74.3302 14.6941C73.5353 14.6941 72.7697 14.891 72.0988 15.2848C71.4279 15.6785 70.9101 16.2328 70.5236 16.9401C70.1444 17.6548 69.9548 18.4788 69.9548 19.4195C69.9548 20.3602 70.1444 21.1769 70.5236 21.9062C70.9028 22.6354 71.4279 23.2042 72.0988 23.6053C72.7624 24.0063 73.5062 24.2105 74.3302 24.2105C75.1542 24.2105 75.8251 24.0282 76.4158 23.6709C77.0138 23.3136 77.4586 22.8615 77.7649 22.3218V24.2543C77.7649 25.2096 77.4951 25.9461 76.9627 26.4784C76.4304 27.0035 75.7449 27.266 74.899 27.266C74.1552 27.266 73.5281 27.0983 72.9957 26.7555C72.4707 26.4128 72.1206 25.9607 71.9529 25.3992H70.4361C70.582 26.3836 71.056 27.1639 71.8654 27.74C72.6749 28.3088 73.6812 28.6005 74.8917 28.6005C75.7741 28.6005 76.5543 28.4182 77.2179 28.0463C77.8815 27.6744 78.3993 27.1639 78.7566 26.5076C79.1139 25.8513 79.2962 25.1002 79.2962 24.2616V14.8399H77.7503V16.5245L77.7576 16.5317ZM77.3346 21.2644C77.0575 21.7895 76.6783 22.1833 76.197 22.4604C75.723 22.7375 75.198 22.876 74.6219 22.876C74.0458 22.876 73.5281 22.7375 73.0541 22.4604C72.5801 22.1833 72.2081 21.7895 71.9237 21.2644C71.6466 20.7394 71.5008 20.1268 71.5008 19.4195C71.5008 18.7121 71.6393 18.1215 71.9237 17.6037C72.2009 17.086 72.5801 16.6922 73.0541 16.4297C73.5281 16.1598 74.0458 16.0286 74.6219 16.0286C75.198 16.0286 75.7157 16.1671 76.197 16.4442C76.671 16.7213 77.0502 17.1151 77.3346 17.6329C77.6117 18.1506 77.7576 18.7559 77.7576 19.4487C77.7576 20.1414 77.619 20.754 77.3346 21.2717V21.2644Z" fill="#2A0944"/>
<path d="M83.4237 11.6167H81.8923V24.0646H83.4237V11.6167Z" fill="#2A0944"/>
<path d="M92.342 15.2702C91.6711 14.891 90.8981 14.7014 90.023 14.7014C89.148 14.7014 88.3312 14.8983 87.6458 15.2848C86.953 15.6713 86.4207 16.2255 86.0415 16.9401C85.6623 17.6548 85.4727 18.4934 85.4727 19.4487C85.4727 20.404 85.6695 21.2426 86.0633 21.9645C86.4571 22.6865 86.9967 23.248 87.6895 23.6418C88.3823 24.0355 89.1626 24.2324 90.0376 24.2324C91.1388 24.2324 92.0576 23.9553 92.7941 23.4011C93.5379 22.8469 94.0265 22.125 94.2744 21.2426H92.6264C92.4441 21.7603 92.1378 22.1687 91.693 22.4823C91.2481 22.7886 90.6939 22.9417 90.0376 22.9417C89.2282 22.9417 88.5427 22.6865 87.9739 22.176C87.4051 21.6655 87.0988 20.9582 87.0405 20.0467H94.4057C94.4422 19.7185 94.4567 19.4122 94.4567 19.1205C94.4567 18.2819 94.2744 17.5235 93.9098 16.8599C93.5452 16.1963 93.0275 15.6713 92.3566 15.2848L92.342 15.2702ZM87.0405 18.7851C87.1207 17.91 87.427 17.2245 87.9739 16.736C88.5208 16.2401 89.1771 15.9994 89.9501 15.9994C90.4897 15.9994 90.9783 16.1088 91.4232 16.3276C91.868 16.5464 92.218 16.8672 92.4732 17.2829C92.7285 17.7058 92.8597 18.209 92.8597 18.7851H87.0405Z" fill="#2A0944"/>
<path d="M104.739 12.3459H100.954V24.0719H102.486V19.1788H104.739C106.11 19.1788 107.124 18.858 107.795 18.2089C108.458 17.5672 108.794 16.7505 108.794 15.7806C108.794 14.8107 108.451 13.9502 107.758 13.3085C107.065 12.6668 106.059 12.3532 104.739 12.3532V12.3459ZM106.62 17.3557C106.219 17.7277 105.585 17.91 104.739 17.91H102.486V13.6002H104.739C106.402 13.6002 107.226 14.3222 107.226 15.7733C107.226 16.4588 107.022 16.9838 106.62 17.3557Z" fill="#2A0944"/>
<path d="M112.228 11.6167H110.697V24.0646H112.228V11.6167Z" fill="#2A0944"/>
<path d="M122.065 16.5317C121.774 16.0067 121.329 15.5692 120.738 15.2191C120.14 14.8691 119.44 14.6941 118.638 14.6941C117.836 14.6941 117.078 14.891 116.407 15.2848C115.736 15.6785 115.218 16.2328 114.831 16.9401C114.452 17.6548 114.263 18.4788 114.263 19.4195C114.263 20.3602 114.452 21.1769 114.831 21.9062C115.211 22.6354 115.736 23.2042 116.399 23.6053C117.063 24.0063 117.799 24.2105 118.623 24.2105C119.448 24.2105 120.118 24.0355 120.716 23.6782C121.314 23.3282 121.766 22.876 122.073 22.3437V24.0574H123.619V14.8399H122.073V16.5245L122.065 16.5317ZM121.642 21.2644C121.365 21.7895 120.986 22.1833 120.505 22.4604C120.031 22.7375 119.506 22.876 118.93 22.876C118.354 22.876 117.836 22.7375 117.362 22.4604C116.888 22.1833 116.516 21.7895 116.232 21.2644C115.955 20.7394 115.809 20.1268 115.809 19.4195C115.809 18.7121 115.947 18.1215 116.232 17.6037C116.509 17.086 116.888 16.6922 117.362 16.4297C117.836 16.1598 118.354 16.0286 118.93 16.0286C119.506 16.0286 120.024 16.1671 120.505 16.4442C120.979 16.7213 121.358 17.1151 121.642 17.6329C121.92 18.1506 122.065 18.7559 122.065 19.4487C122.065 20.1414 121.927 20.754 121.642 21.2717V21.2644Z" fill="#2A0944"/>
<path d="M132.566 14.8472L129.7 22.3218L126.813 14.8472H125.114L128.825 23.9698L127.01 28.4108H128.592L134.141 14.8472H132.566Z" fill="#2A0944"/>
<defs>
<linearGradient id="paint0_linear_186_4056" x1="7.52564" y1="24.5532" x2="7.59856" y2="4.66713" gradientUnits="userSpaceOnUse">
<stop stop-color="#00E3FF"/>
<stop offset="1" stop-color="#00C2FF"/>
</linearGradient>
<linearGradient id="paint1_linear_186_4056" x1="0.729248" y1="7.40904" x2="20.0319" y2="7.40904" gradientUnits="userSpaceOnUse">
<stop stop-color="#00F076"/>
<stop offset="1" stop-color="#11D574"/>
</linearGradient>
<linearGradient id="paint2_linear_186_4056" x1="0.729248" y1="22.2344" x2="20.0319" y2="22.2344" gradientUnits="userSpaceOnUse">
<stop stop-color="#FF3A44"/>
<stop offset="1" stop-color="#E02453"/>
</linearGradient>
<linearGradient id="paint3_linear_186_4056" x1="15.168" y1="14.8253" x2="26.7481" y2="14.8253" gradientUnits="userSpaceOnUse">
<stop stop-color="#FFBB00"/>
<stop offset="1" stop-color="#FFDD00"/>
</linearGradient>
</defs>
</svg>
