<svg width="134" height="31" viewBox="0 0 134 31" fill="none" xmlns="http://www.w3.org/2000/svg">
<path d="M20.6924 15.7654C20.6924 13.5704 21.9831 11.6672 23.8499 10.7702C22.4425 8.75024 20.1236 7.77307 17.4984 7.77307C16.1566 7.77307 14.895 7.94079 13.7939 8.57522C13.1667 8.93984 12.3865 8.93984 11.7593 8.57522C10.6582 7.94079 9.39662 7.77307 8.05484 7.77307C3.76698 7.77307 0.288574 10.391 0.288574 15.8602C0.288574 21.3294 3.76698 30.1677 8.05484 30.1677C9.02471 30.1677 9.95085 29.752 10.804 29.3364C12.0437 28.7384 13.5022 28.7384 14.7492 29.3364C15.6024 29.752 16.5285 30.1677 17.4984 30.1677C20.5757 30.1677 23.2301 25.6173 24.4844 21.0304C22.2748 20.2793 20.6924 18.2083 20.6924 15.7727V15.7654Z" fill="white"/>
<path d="M16.4483 4.82695C17.5932 3.52892 18.162 1.96838 18.162 0.517212C16.7254 0.699519 15.2451 1.45792 14.1002 2.75594C12.9553 4.05397 12.3865 5.61452 12.3865 7.06568C13.8231 6.88338 15.3034 6.12498 16.4483 4.82695Z" fill="white"/>
<path d="M42.912 8.26895C43.4589 7.99913 43.8819 7.59806 44.1736 7.0876C44.4653 6.56985 44.6111 5.96459 44.6111 5.25723C44.6111 4.54988 44.4653 3.94462 44.1736 3.41958C43.8819 2.90183 43.4589 2.50075 42.912 2.22364C42.3651 1.94654 41.7161 1.80798 40.965 1.80798H38.821V8.68461H40.965C41.7161 8.68461 42.3651 8.54605 42.912 8.27624V8.26895ZM39.7253 2.53721H40.965C41.8473 2.53721 42.5182 2.77786 42.9922 3.25915C43.4589 3.74044 43.6996 4.40404 43.6996 5.26453C43.6996 6.12502 43.4662 6.77403 42.9995 7.24074C42.5328 7.70744 41.8546 7.94809 40.965 7.94809H39.7253V2.53721Z" fill="white"/>
<path d="M49.3147 3.52889C48.899 3.30283 48.4396 3.18616 47.9219 3.18616C47.4041 3.18616 46.9447 3.30283 46.529 3.52889C46.1134 3.75496 45.7852 4.08311 45.5446 4.50606C45.3039 4.92901 45.1873 5.4176 45.1873 5.97181C45.1873 6.52602 45.3039 7.0219 45.5373 7.44485C45.7706 7.8678 46.0915 8.19596 46.5072 8.42931C46.9155 8.66266 47.3749 8.77205 47.8854 8.77205C48.3959 8.77205 48.8626 8.65537 49.2855 8.42931C49.7085 8.19596 50.0366 7.8751 50.2846 7.44485C50.5325 7.0219 50.6565 6.52602 50.6565 5.97181C50.6565 5.4176 50.5398 4.92172 50.2992 4.49877C50.0585 4.07582 49.7304 3.75496 49.3147 3.52889ZM49.4751 7.07295C49.3001 7.37193 49.074 7.60528 48.7896 7.75113C48.5052 7.90427 48.2063 7.97719 47.8854 7.97719C47.5645 7.97719 47.2656 7.90427 46.9958 7.75842C46.7259 7.61257 46.5072 7.38651 46.3467 7.08024C46.1863 6.78125 46.1061 6.40935 46.1061 5.96452C46.1061 5.51969 46.1863 5.16237 46.354 4.86338C46.5217 4.5644 46.7405 4.33834 47.0103 4.1852C47.2801 4.03935 47.5864 3.96643 47.9146 3.96643C48.2427 3.96643 48.5344 4.03935 48.8115 4.1852C49.0886 4.33105 49.3074 4.55711 49.4824 4.86338C49.6501 5.16237 49.7376 5.53427 49.7376 5.96452C49.7376 6.39476 49.6501 6.76667 49.4751 7.07295Z" fill="white"/>
<path d="M54.9809 4.3894L56.2862 8.67726H57.2123L58.8968 3.27368H58.0145L56.7894 7.82407L55.4768 3.27368H54.5579L53.2161 7.80948L51.9765 3.27368H51.0576L52.7567 8.67726H53.6828L54.9809 4.3894Z" fill="white"/>
<path d="M62.2876 3.17896C61.9156 3.17896 61.5802 3.25188 61.2739 3.40502C60.9676 3.55815 60.727 3.76963 60.552 4.04674V3.28105H59.655V8.68463H60.552V5.69479C60.552 5.126 60.6905 4.69575 60.9677 4.40406C61.2448 4.10508 61.624 3.95923 62.0979 3.95923C62.5719 3.95923 62.9293 4.10508 63.1991 4.38947C63.4689 4.67387 63.6002 5.08953 63.6002 5.62916V8.68463H64.4898V5.4979C64.4898 4.7468 64.2856 4.178 63.8773 3.77692C63.4689 3.37585 62.9366 3.17896 62.2803 3.17896H62.2876Z" fill="white"/>
<path d="M66.1743 1.38501H65.2773V8.68459H66.1743V1.38501Z" fill="white"/>
<path d="M68.4132 8.42211C68.8215 8.65546 69.2809 8.76485 69.7914 8.76485C70.3019 8.76485 70.7686 8.64817 71.1915 8.42211C71.6145 8.18876 71.9426 7.86789 72.1906 7.43765C72.4385 7.0147 72.5625 6.51882 72.5625 5.96461C72.5625 5.41039 72.4458 4.91452 72.2051 4.49157C71.9645 4.06861 71.6364 3.74775 71.2207 3.52169C70.805 3.29563 70.3456 3.17896 69.8279 3.17896C69.3101 3.17896 68.8507 3.29563 68.435 3.52169C68.0194 3.74775 67.6912 4.07591 67.4506 4.49886C67.2099 4.92181 67.0933 5.41039 67.0933 5.96461C67.0933 6.51882 67.2099 7.0147 67.4433 7.43765C67.6766 7.8606 67.9975 8.18876 68.4132 8.42211ZM68.26 4.86347C68.4278 4.56449 68.6465 4.33843 68.9163 4.18529C69.1861 4.03944 69.4924 3.96652 69.8206 3.96652C70.1487 3.96652 70.4404 4.03944 70.7175 4.18529C70.9946 4.33114 71.2134 4.5572 71.3884 4.86347C71.5561 5.16246 71.6436 5.53436 71.6436 5.96461C71.6436 6.39485 71.5561 6.76676 71.3811 7.07304C71.2061 7.37202 70.9801 7.60537 70.6957 7.75122C70.4113 7.90436 70.1123 7.97728 69.7914 7.97728C69.4705 7.97728 69.1715 7.90436 68.9017 7.75851C68.6319 7.61266 68.4132 7.3866 68.2527 7.08033C68.0923 6.78134 68.0121 6.40944 68.0121 5.96461C68.0121 5.51978 68.0923 5.16246 68.26 4.86347Z" fill="white"/>
<path d="M77.7107 4.25812C77.5357 3.95185 77.2805 3.68932 76.9304 3.49243C76.5804 3.28825 76.172 3.18616 75.698 3.18616C75.224 3.18616 74.7792 3.30283 74.3927 3.52889C73.9989 3.76225 73.6927 4.08311 73.4739 4.49877C73.2478 4.91443 73.1384 5.40301 73.1384 5.95723C73.1384 6.51144 73.2478 6.99273 73.4739 7.41568C73.6999 7.84593 74.0062 8.17408 74.3927 8.41473C74.7792 8.64808 75.2167 8.77205 75.698 8.77205C76.1793 8.77205 76.5731 8.66996 76.9231 8.45848C77.2732 8.2543 77.543 7.99177 77.718 7.67091V8.67725H78.6222V3.27366H77.718V4.25812H77.7107ZM77.4628 7.03648C77.295 7.34276 77.0763 7.57611 76.7992 7.73654C76.5221 7.89697 76.2085 7.97719 75.8803 7.97719C75.5522 7.97719 75.2386 7.89697 74.9615 7.73654C74.6844 7.57611 74.4656 7.34276 74.2979 7.03648C74.1302 6.73021 74.05 6.37289 74.05 5.95723C74.05 5.54157 74.1302 5.19154 74.2979 4.89255C74.4656 4.59357 74.6844 4.36022 74.9615 4.19978C75.2386 4.03935 75.5449 3.96643 75.8803 3.96643C76.2158 3.96643 76.5221 4.04665 76.7992 4.20708C77.0763 4.36751 77.3023 4.60086 77.4628 4.89984C77.6305 5.20612 77.7107 5.55615 77.7107 5.96452C77.7107 6.37289 77.6305 6.73021 77.4628 7.03648Z" fill="white"/>
<path d="M85.0104 8.67729V1.38501H84.1062V4.24359C83.9166 3.93002 83.6395 3.67479 83.2749 3.4779C82.9102 3.281 82.5237 3.1862 82.1008 3.1862C81.6122 3.1862 81.1747 3.30288 80.7809 3.52894C80.3871 3.76229 80.0808 4.08315 79.8621 4.49881C79.636 4.91448 79.5266 5.40306 79.5266 5.95727C79.5266 6.51149 79.636 6.99278 79.8621 7.41573C80.0881 7.84597 80.3944 8.17413 80.7809 8.41477C81.1747 8.64812 81.6049 8.77209 82.0862 8.77209C82.5675 8.77209 82.9613 8.67 83.3113 8.45853C83.6613 8.25434 83.9239 7.98453 84.0989 7.66367V8.67729H85.0031H85.0104ZM83.8582 7.03653C83.6905 7.34281 83.4717 7.57616 83.1946 7.73659C82.9175 7.89702 82.6113 7.97723 82.2758 7.97723C81.9404 7.97723 81.6341 7.89702 81.357 7.73659C81.0799 7.57616 80.8611 7.34281 80.6934 7.03653C80.5257 6.73025 80.4454 6.37293 80.4454 5.95727C80.4454 5.54161 80.5257 5.19158 80.6934 4.8926C80.8611 4.59361 81.0799 4.36026 81.357 4.19983C81.6341 4.0394 81.9404 3.96648 82.2758 3.96648C82.6113 3.96648 82.9175 4.04669 83.1946 4.20712C83.4717 4.36755 83.6978 4.60091 83.8582 4.89989C84.026 5.20617 84.1062 5.5562 84.1062 5.96456C84.1062 6.37293 84.026 6.73025 83.8582 7.03653Z" fill="white"/>
<path d="M89.4586 8.42211C89.8669 8.65546 90.3264 8.76485 90.8368 8.76485C91.3473 8.76485 91.814 8.64817 92.2369 8.42211C92.6599 8.18876 92.9953 7.86789 93.236 7.43765C93.4839 7.0147 93.6079 6.51882 93.6079 5.96461C93.6079 5.41039 93.4912 4.91452 93.2506 4.49157C93.0099 4.06861 92.6818 3.74775 92.2661 3.52169C91.8504 3.29563 91.391 3.17896 90.8733 3.17896C90.3555 3.17896 89.8961 3.29563 89.4804 3.52169C89.0648 3.74775 88.7367 4.07591 88.496 4.49886C88.2554 4.92181 88.1387 5.41039 88.1387 5.96461C88.1387 6.51882 88.2554 7.0147 88.4887 7.43765C88.7221 7.8606 89.0429 8.18876 89.4586 8.42211ZM89.3054 4.86347C89.4732 4.56449 89.6919 4.33843 89.9617 4.18529C90.2316 4.03944 90.5378 3.96652 90.866 3.96652C91.1942 3.96652 91.4858 4.03944 91.7629 4.18529C92.04 4.33114 92.2588 4.5572 92.4338 4.86347C92.6016 5.16246 92.6891 5.53436 92.6891 5.96461C92.6891 6.39485 92.6016 6.76676 92.4265 7.07304C92.2515 7.37202 92.0255 7.60537 91.7411 7.75122C91.4567 7.90436 91.1577 7.97728 90.8368 7.97728C90.516 7.97728 90.217 7.90436 89.9472 7.75851C89.6774 7.61266 89.4586 7.3866 89.2981 7.08033C89.1377 6.78134 89.0575 6.40944 89.0575 5.96461C89.0575 5.51978 89.1377 5.16246 89.3054 4.86347Z" fill="white"/>
<path d="M96.8311 3.95923C97.2978 3.95923 97.6624 4.10508 97.9322 4.38947C98.202 4.67387 98.3333 5.08953 98.3333 5.62916V8.68463H99.2229V5.4979C99.2229 4.7468 99.0188 4.178 98.6104 3.77692C98.202 3.37585 97.6697 3.17896 97.0134 3.17896C96.6415 3.17896 96.306 3.25188 95.9997 3.40502C95.6935 3.55815 95.4528 3.76963 95.2778 4.04674V3.28105H94.3809V8.68463H95.2778V5.69479C95.2778 5.126 95.4164 4.69575 95.7008 4.40406C95.9779 4.10508 96.3571 3.95923 96.8311 3.95923Z" fill="white"/>
<path d="M105.152 8.67731V7.91891H104.488C104.211 7.91891 104.021 7.86786 103.905 7.75848C103.795 7.64909 103.737 7.46679 103.737 7.20427V4.01754H105.144V3.28102H103.737V1.91736H102.84V3.28102H102.14V4.01754H102.84V7.20427C102.84 7.72931 102.964 8.10851 103.212 8.34186C103.46 8.57521 103.839 8.6846 104.335 8.6846H105.144L105.152 8.67731Z" fill="white"/>
<path d="M106.858 5.69475C106.858 5.12595 106.997 4.69571 107.274 4.40402C107.551 4.10503 107.93 3.95919 108.404 3.95919C108.878 3.95919 109.243 4.10503 109.505 4.38943C109.775 4.67383 109.906 5.08949 109.906 5.62912V8.68459H110.796V5.49786C110.796 5.00198 110.701 4.57174 110.512 4.229C110.322 3.87897 110.067 3.61645 109.739 3.44143C109.41 3.26642 109.039 3.17891 108.637 3.17891C108.236 3.17891 107.901 3.25183 107.587 3.40497C107.274 3.55811 107.033 3.76959 106.851 4.04669V1.38501H105.954V8.68459H106.851V5.69475H106.858Z" fill="white"/>
<path d="M115.31 7.73654C115.047 7.91885 114.726 8.00636 114.34 8.00636C113.866 8.00636 113.465 7.85322 113.129 7.55424C112.794 7.25525 112.612 6.83959 112.582 6.30726H116.899C116.921 6.11766 116.929 5.93535 116.929 5.76763C116.929 5.27175 116.819 4.83421 116.608 4.44043C116.396 4.04665 116.09 3.74037 115.696 3.5216C115.302 3.29554 114.85 3.18616 114.333 3.18616C113.815 3.18616 113.341 3.30283 112.94 3.52889C112.531 3.75496 112.218 4.08311 111.999 4.49877C111.773 4.92172 111.664 5.4103 111.664 5.97181C111.664 6.53332 111.78 7.0219 112.006 7.44485C112.24 7.8678 112.553 8.19596 112.962 8.42931C113.363 8.66266 113.822 8.77205 114.34 8.77205C114.982 8.77205 115.521 8.61162 115.959 8.28346C116.396 7.95531 116.681 7.53236 116.827 7.01461H115.857C115.755 7.32088 115.572 7.56153 115.31 7.73654ZM113.137 4.38209C113.457 4.0904 113.844 3.94455 114.296 3.94455C114.61 3.94455 114.901 4.01019 115.157 4.13415C115.419 4.26542 115.623 4.44772 115.776 4.69566C115.93 4.9436 116.002 5.23529 116.002 5.57803H112.59C112.633 5.06757 112.816 4.66649 113.137 4.3748V4.38209Z" fill="white"/>
<path d="M91.7994 17.5083C91.2598 17.2676 90.5452 17.027 89.6555 16.7863C88.919 16.5822 88.3502 16.3999 87.9491 16.2394C87.5407 16.079 87.2053 15.8456 86.9282 15.5321C86.6511 15.2258 86.5125 14.8247 86.5125 14.3361C86.5125 13.658 86.7459 13.1256 87.2053 12.7464C87.6647 12.3672 88.2699 12.1776 88.9992 12.1776C89.7867 12.1776 90.4139 12.3745 90.8879 12.7683C91.3619 13.1621 91.6317 13.6142 91.6973 14.132H93.6298C93.5277 13.0892 93.0756 12.2505 92.2661 11.6234C91.464 10.9963 90.4285 10.6754 89.1669 10.6754C88.2918 10.6754 87.5188 10.8286 86.8407 11.1421C86.1625 11.4484 85.6447 11.8859 85.2655 12.4547C84.8936 13.0235 84.704 13.6725 84.704 14.4018C84.704 15.2404 84.8936 15.904 85.2728 16.3999C85.652 16.8957 86.1114 17.2603 86.6438 17.4937C87.1761 17.7271 87.8907 17.9604 88.7731 18.1865C89.4951 18.3761 90.0639 18.5584 90.4941 18.7261C90.9171 18.8938 91.2744 19.1418 91.5588 19.4626C91.8432 19.7835 91.9817 20.1991 91.9817 20.7169C91.9817 21.3732 91.7411 21.9128 91.2598 22.3285C90.7785 22.7441 90.1149 22.9556 89.2836 22.9556C88.4523 22.9556 87.7449 22.7369 87.2855 22.3066C86.8261 21.8764 86.5709 21.344 86.5052 20.7169H84.6311C84.6457 21.4534 84.8499 22.0951 85.251 22.6566C85.652 23.2181 86.199 23.6557 86.899 23.9692C87.5991 24.2828 88.3939 24.4432 89.2836 24.4432C90.1732 24.4432 91.0119 24.2609 91.6973 23.9036C92.3755 23.5463 92.8933 23.0723 93.2433 22.4962C93.5933 21.9201 93.7611 21.3003 93.7611 20.644C93.7611 19.7981 93.5715 19.1199 93.185 18.624C92.7985 18.1281 92.3391 17.7635 91.7994 17.5229V17.5083Z" fill="white"/>
<path d="M43.685 10.916L38.821 24.2901H40.6733L41.7526 21.3002H47.6155L48.6948 24.2901H50.547L45.705 10.916H43.6777H43.685ZM42.2557 19.8709L44.684 13.0818L47.1124 19.8709H42.2484H42.2557Z" fill="white"/>
<path d="M61.2668 14.2194C60.5011 13.7673 59.6479 13.5413 58.7072 13.5413C57.7665 13.5413 56.9935 13.7454 56.308 14.1465C55.6225 14.5549 55.1048 15.0581 54.7548 15.6633V13.7163H52.9973V29.3072H54.7548V22.343C55.1121 22.9483 55.6371 23.4515 56.3299 23.8598C57.0154 24.2682 57.8102 24.4651 58.7145 24.4651C59.6187 24.4651 60.5084 24.2317 61.2741 23.7723C62.0398 23.3056 62.6377 22.6566 63.0753 21.8253C63.5128 20.9867 63.7316 20.0387 63.7316 18.9667C63.7316 17.8948 63.5128 16.9395 63.0753 16.1227C62.6377 15.306 62.0398 14.6716 61.2741 14.2194H61.2668ZM61.4491 21.0742C61.1282 21.6722 60.6907 22.1316 60.1438 22.4451C59.5968 22.7587 58.9989 22.9191 58.3426 22.9191C57.6863 22.9191 57.1029 22.7587 56.556 22.4451C56.009 22.1316 55.5715 21.6722 55.2434 21.0742C54.9152 20.4762 54.7548 19.7762 54.7548 18.9813C54.7548 18.1864 54.9152 17.5083 55.2434 16.9103C55.5715 16.3123 56.009 15.8529 56.556 15.5393C57.1029 15.2258 57.7009 15.0653 58.3426 15.0653C58.9843 15.0653 59.5968 15.2185 60.1438 15.5248C60.6907 15.831 61.1282 16.2832 61.4491 16.8738C61.7699 17.4645 61.9304 18.1573 61.9304 18.9594C61.9304 19.7616 61.7699 20.4762 61.4491 21.0742Z" fill="white"/>
<path d="M74.6261 14.2194C73.8604 13.7673 73.0073 13.5413 72.0666 13.5413C71.1259 13.5413 70.3529 13.7454 69.6674 14.1465C68.9819 14.5549 68.4642 15.0581 68.1141 15.6633V13.7163H66.3567V29.3072H68.1141V22.343C68.4715 22.9483 68.9965 23.4515 69.6893 23.8598C70.3747 24.2682 71.1696 24.4651 72.0738 24.4651C72.9781 24.4651 73.8677 24.2317 74.6334 23.7723C75.3991 23.3056 75.9971 22.6566 76.4346 21.8253C76.8722 20.9867 77.0909 20.0387 77.0909 18.9667C77.0909 17.8948 76.8722 16.9395 76.4346 16.1227C75.9971 15.306 75.3918 14.6716 74.6334 14.2194H74.6261ZM74.8084 21.0742C74.4876 21.6722 74.05 22.1316 73.5031 22.4451C72.9562 22.7587 72.3583 22.9191 71.7019 22.9191C71.0456 22.9191 70.4622 22.7587 69.9153 22.4451C69.3684 22.1316 68.9309 21.6722 68.6027 21.0742C68.2746 20.4762 68.1068 19.7762 68.1068 18.9813C68.1068 18.1864 68.2673 17.5083 68.6027 16.9103C68.9309 16.3123 69.3684 15.8529 69.9153 15.5393C70.4622 15.2258 71.0602 15.0653 71.7019 15.0653C72.3437 15.0653 72.9562 15.2185 73.5031 15.5248C74.05 15.831 74.4803 16.2832 74.8084 16.8738C75.1293 17.4645 75.2897 18.1573 75.2897 18.9594C75.2897 19.7616 75.1293 20.4762 74.8084 21.0742Z" fill="white"/>
<path d="M98.8147 11.0546H97.0572V13.7162H95.6863V15.1601H97.0572V21.395C97.0572 22.4232 97.3052 23.167 97.7938 23.6119C98.2823 24.064 99.0189 24.2901 99.996 24.2901H101.578V22.8024H100.288C99.7481 22.8024 99.3689 22.6931 99.1501 22.4816C98.9313 22.2701 98.822 21.9055 98.822 21.395V15.1601H101.578V13.7162H98.822V11.0546H98.8147Z" fill="white"/>
<path d="M111.583 14.2049C110.774 13.76 109.862 13.5413 108.863 13.5413C107.864 13.5413 106.953 13.76 106.143 14.2049C105.334 14.6497 104.692 15.2841 104.225 16.1154C103.759 16.9468 103.518 17.902 103.518 18.9813C103.518 20.0606 103.744 21.0377 104.204 21.869C104.663 22.7004 105.29 23.3421 106.092 23.7869C106.894 24.239 107.791 24.4651 108.783 24.4651C109.775 24.4651 110.701 24.239 111.525 23.7869C112.349 23.3348 112.998 22.6931 113.487 21.869C113.968 21.0377 114.209 20.0751 114.209 18.9813C114.209 17.8875 113.975 16.9322 113.501 16.1081C113.034 15.2841 112.393 14.6497 111.583 14.2049ZM111.897 21.1471C111.554 21.7378 111.109 22.1826 110.555 22.4816C110.001 22.7806 109.41 22.9264 108.783 22.9264C108.156 22.9264 107.573 22.7806 107.048 22.4889C106.522 22.1972 106.1 21.7597 105.786 21.169C105.472 20.5783 105.312 19.8491 105.312 18.9886C105.312 18.1281 105.472 17.4208 105.793 16.8301C106.114 16.2394 106.544 15.7946 107.077 15.5102C107.609 15.2185 108.2 15.0726 108.841 15.0726C109.483 15.0726 110.059 15.2185 110.599 15.5102C111.139 15.8019 111.576 16.2394 111.911 16.8301C112.247 17.4208 112.415 18.1427 112.415 18.9886C112.415 19.8345 112.247 20.5564 111.904 21.1471H111.897Z" fill="white"/>
<path d="M118.591 15.43V13.709H116.834V24.2828H118.591V18.5292C118.591 16.3925 119.576 15.3279 121.545 15.3279H122.012V13.5121C121.187 13.5121 120.487 13.6798 119.919 14.0153C119.343 14.3507 118.905 14.8174 118.599 15.4227L118.591 15.43Z" fill="white"/>
<path d="M134 18.5948C134 17.6322 133.789 16.7644 133.373 15.9988C132.957 15.2331 132.359 14.6351 131.586 14.1976C130.813 13.76 129.924 13.5413 128.925 13.5413C127.926 13.5413 126.985 13.76 126.197 14.2049C125.402 14.6497 124.79 15.2841 124.352 16.1081C123.915 16.9322 123.696 17.8875 123.696 18.9813C123.696 20.0751 123.922 21.0377 124.374 21.869C124.826 22.7004 125.446 23.3421 126.234 23.7869C127.021 24.239 127.926 24.4651 128.925 24.4651C130.186 24.4651 131.244 24.1442 132.089 23.5098C132.935 22.8754 133.504 22.0441 133.789 21.0304H131.9C131.696 21.6211 131.338 22.0951 130.828 22.4524C130.317 22.8025 129.683 22.9848 128.925 22.9848C127.998 22.9848 127.211 22.6931 126.562 22.1097C125.913 21.5263 125.556 20.7096 125.49 19.6668H133.942C133.978 19.2949 134 18.9375 134 18.6021V18.5948ZM125.505 18.2302C125.592 17.2239 125.949 16.4436 126.577 15.8748C127.204 15.306 127.955 15.0289 128.844 15.0289C129.464 15.0289 130.026 15.1529 130.536 15.4081C131.047 15.656 131.448 16.0279 131.739 16.5092C132.038 16.9905 132.184 17.5666 132.184 18.2375H125.505V18.2302Z" fill="white"/>
</svg>
